<mxfile host="app.diagrams.net" modified="2021-05-17T01:36:04.423Z" agent="5.0 (Windows NT 10.0; Win64; x64) AppleWebKit/537.36 (KHTML, like Gecko) Chrome/90.0.4430.212 Safari/537.36" etag="PNdlvRXBRrMnpN0g8N3E" version="14.6.12" type="github">
  <diagram id="q3Z1H3btBQTQNrwf0yXD" name="Page-1">
    <mxGraphModel dx="2839" dy="620" grid="1" gridSize="10" guides="1" tooltips="1" connect="1" arrows="1" fold="1" page="1" pageScale="1" pageWidth="827" pageHeight="1169" background="#F1FAEE" math="0" shadow="0">
      <root>
        <mxCell id="0" />
        <mxCell id="1" parent="0" />
        <mxCell id="wgaBkyX_i237nLYb71gu-34" value="" style="edgeStyle=orthogonalEdgeStyle;rounded=0;orthogonalLoop=1;jettySize=auto;html=1;entryX=0.5;entryY=0;entryDx=0;entryDy=0;strokeColor=#457B9D;fontColor=#1D3557;labelBackgroundColor=#F1FAEE;" parent="1" source="Ral3mTj9MEij2qjCwWmm-1" target="wgaBkyX_i237nLYb71gu-35" edge="1">
          <mxGeometry relative="1" as="geometry">
            <mxPoint x="-10" y="390" as="targetPoint" />
          </mxGeometry>
        </mxCell>
        <mxCell id="Ral3mTj9MEij2qjCwWmm-1" value="Fert3000采集工程" style="rounded=1;whiteSpace=wrap;html=1;fillColor=#A8DADC;strokeColor=#457B9D;fontColor=#1D3557;" parent="1" vertex="1">
          <mxGeometry x="-70" y="220" width="120" height="60" as="geometry" />
        </mxCell>
        <mxCell id="Ral3mTj9MEij2qjCwWmm-3" style="edgeStyle=orthogonalEdgeStyle;rounded=0;orthogonalLoop=1;jettySize=auto;html=1;exitX=0.5;exitY=1;exitDx=0;exitDy=0;entryX=0.5;entryY=0;entryDx=0;entryDy=0;strokeColor=#457B9D;fontColor=#1D3557;labelBackgroundColor=#F1FAEE;" parent="1" source="Ral3mTj9MEij2qjCwWmm-2" target="Ral3mTj9MEij2qjCwWmm-4" edge="1">
          <mxGeometry relative="1" as="geometry">
            <mxPoint x="530" y="190" as="targetPoint" />
          </mxGeometry>
        </mxCell>
        <mxCell id="Ral3mTj9MEij2qjCwWmm-2" value="PLCs7connector工程" style="rounded=1;whiteSpace=wrap;html=1;fillColor=#A8DADC;strokeColor=#457B9D;fontColor=#1D3557;" parent="1" vertex="1">
          <mxGeometry x="435" y="100" width="190" height="60" as="geometry" />
        </mxCell>
        <mxCell id="wgaBkyX_i237nLYb71gu-2" style="edgeStyle=orthogonalEdgeStyle;rounded=0;orthogonalLoop=1;jettySize=auto;html=1;exitX=1;exitY=0.5;exitDx=0;exitDy=0;entryX=0;entryY=0.5;entryDx=0;entryDy=0;strokeColor=#457B9D;fontColor=#1D3557;labelBackgroundColor=#F1FAEE;" parent="1" source="Ral3mTj9MEij2qjCwWmm-4" target="wgaBkyX_i237nLYb71gu-1" edge="1">
          <mxGeometry relative="1" as="geometry" />
        </mxCell>
        <mxCell id="wgaBkyX_i237nLYb71gu-5" value="" style="edgeStyle=orthogonalEdgeStyle;rounded=0;orthogonalLoop=1;jettySize=auto;html=1;strokeColor=#457B9D;fontColor=#1D3557;labelBackgroundColor=#F1FAEE;" parent="1" source="Ral3mTj9MEij2qjCwWmm-4" target="wgaBkyX_i237nLYb71gu-4" edge="1">
          <mxGeometry relative="1" as="geometry" />
        </mxCell>
        <mxCell id="wgaBkyX_i237nLYb71gu-6" style="edgeStyle=orthogonalEdgeStyle;rounded=0;orthogonalLoop=1;jettySize=auto;html=1;exitX=1;exitY=0.5;exitDx=0;exitDy=0;entryX=0;entryY=0.5;entryDx=0;entryDy=0;strokeColor=#457B9D;fontColor=#1D3557;labelBackgroundColor=#F1FAEE;" parent="1" source="Ral3mTj9MEij2qjCwWmm-4" target="wgaBkyX_i237nLYb71gu-8" edge="1">
          <mxGeometry relative="1" as="geometry">
            <mxPoint x="680" y="200" as="targetPoint" />
          </mxGeometry>
        </mxCell>
        <mxCell id="Ral3mTj9MEij2qjCwWmm-4" value="连接本地数据库加载配置参数" style="rounded=0;whiteSpace=wrap;html=1;fillColor=#A8DADC;strokeColor=#457B9D;fontColor=#1D3557;" parent="1" vertex="1">
          <mxGeometry x="460" y="200" width="140" height="60" as="geometry" />
        </mxCell>
        <mxCell id="wgaBkyX_i237nLYb71gu-44" style="edgeStyle=entityRelationEdgeStyle;rounded=0;orthogonalLoop=1;jettySize=auto;html=1;exitX=0.5;exitY=1;exitDx=0;exitDy=0;entryX=1;entryY=0.25;entryDx=0;entryDy=0;strokeColor=#457B9D;fontColor=#1D3557;labelBackgroundColor=#F1FAEE;" parent="1" source="wgaBkyX_i237nLYb71gu-1" target="wgaBkyX_i237nLYb71gu-10" edge="1">
          <mxGeometry relative="1" as="geometry" />
        </mxCell>
        <mxCell id="wgaBkyX_i237nLYb71gu-1" value="&lt;p&gt;base_parameter表&lt;/p&gt;" style="rounded=0;whiteSpace=wrap;html=1;fillColor=#A8DADC;strokeColor=#457B9D;fontColor=#1D3557;" parent="1" vertex="1">
          <mxGeometry x="700" y="260" width="120" height="60" as="geometry" />
        </mxCell>
        <mxCell id="wgaBkyX_i237nLYb71gu-11" value="" style="edgeStyle=orthogonalEdgeStyle;curved=1;rounded=0;orthogonalLoop=1;jettySize=auto;html=1;strokeColor=#457B9D;fontColor=#1D3557;labelBackgroundColor=#F1FAEE;" parent="1" source="wgaBkyX_i237nLYb71gu-4" target="wgaBkyX_i237nLYb71gu-10" edge="1">
          <mxGeometry relative="1" as="geometry" />
        </mxCell>
        <mxCell id="-aoUGRB_CuIsWPi_dUsE-6" style="edgeStyle=orthogonalEdgeStyle;rounded=0;orthogonalLoop=1;jettySize=auto;html=1;exitX=1;exitY=0.75;exitDx=0;exitDy=0;entryX=0.5;entryY=0;entryDx=0;entryDy=0;" parent="1" source="wgaBkyX_i237nLYb71gu-4" target="-aoUGRB_CuIsWPi_dUsE-5" edge="1">
          <mxGeometry relative="1" as="geometry" />
        </mxCell>
        <mxCell id="wgaBkyX_i237nLYb71gu-4" value="连接PLC" style="whiteSpace=wrap;html=1;rounded=0;fillColor=#A8DADC;strokeColor=#457B9D;fontColor=#1D3557;" parent="1" vertex="1">
          <mxGeometry x="460" y="300" width="140" height="60" as="geometry" />
        </mxCell>
        <mxCell id="wgaBkyX_i237nLYb71gu-43" style="edgeStyle=entityRelationEdgeStyle;rounded=0;orthogonalLoop=1;jettySize=auto;html=1;exitX=0.5;exitY=1;exitDx=0;exitDy=0;entryX=1;entryY=0.25;entryDx=0;entryDy=0;strokeColor=#457B9D;fontColor=#1D3557;labelBackgroundColor=#F1FAEE;" parent="1" source="wgaBkyX_i237nLYb71gu-8" target="wgaBkyX_i237nLYb71gu-4" edge="1">
          <mxGeometry relative="1" as="geometry" />
        </mxCell>
        <mxCell id="wgaBkyX_i237nLYb71gu-8" value="&lt;p&gt;base_plcinfo表&lt;/p&gt;" style="rounded=0;whiteSpace=wrap;html=1;fillColor=#A8DADC;strokeColor=#457B9D;fontColor=#1D3557;" parent="1" vertex="1">
          <mxGeometry x="700" y="140" width="120" height="60" as="geometry" />
        </mxCell>
        <mxCell id="wgaBkyX_i237nLYb71gu-15" value="" style="edgeStyle=orthogonalEdgeStyle;rounded=0;orthogonalLoop=1;jettySize=auto;html=1;strokeColor=#457B9D;fontColor=#1D3557;labelBackgroundColor=#F1FAEE;" parent="1" source="wgaBkyX_i237nLYb71gu-10" target="wgaBkyX_i237nLYb71gu-14" edge="1">
          <mxGeometry relative="1" as="geometry" />
        </mxCell>
        <mxCell id="wgaBkyX_i237nLYb71gu-19" value="" style="edgeStyle=orthogonalEdgeStyle;rounded=0;orthogonalLoop=1;jettySize=auto;html=1;strokeColor=#457B9D;fontColor=#1D3557;labelBackgroundColor=#F1FAEE;" parent="1" source="wgaBkyX_i237nLYb71gu-10" target="wgaBkyX_i237nLYb71gu-18" edge="1">
          <mxGeometry relative="1" as="geometry" />
        </mxCell>
        <mxCell id="-aoUGRB_CuIsWPi_dUsE-4" style="edgeStyle=orthogonalEdgeStyle;rounded=0;orthogonalLoop=1;jettySize=auto;html=1;exitX=1;exitY=0.75;exitDx=0;exitDy=0;entryX=0.5;entryY=0;entryDx=0;entryDy=0;" parent="1" source="wgaBkyX_i237nLYb71gu-10" target="-aoUGRB_CuIsWPi_dUsE-5" edge="1">
          <mxGeometry relative="1" as="geometry">
            <mxPoint x="880" y="570" as="targetPoint" />
          </mxGeometry>
        </mxCell>
        <mxCell id="wgaBkyX_i237nLYb71gu-10" value="读取PLC数据" style="whiteSpace=wrap;html=1;rounded=0;fillColor=#ffe6cc;strokeColor=#d79b00;" parent="1" vertex="1">
          <mxGeometry x="460" y="410" width="140" height="60" as="geometry" />
        </mxCell>
        <mxCell id="wgaBkyX_i237nLYb71gu-27" value="" style="edgeStyle=orthogonalEdgeStyle;rounded=0;orthogonalLoop=1;jettySize=auto;html=1;strokeColor=#457B9D;fontColor=#1D3557;labelBackgroundColor=#F1FAEE;" parent="1" source="wgaBkyX_i237nLYb71gu-14" target="wgaBkyX_i237nLYb71gu-26" edge="1">
          <mxGeometry relative="1" as="geometry" />
        </mxCell>
        <mxCell id="wgaBkyX_i237nLYb71gu-14" value="数据发送" style="whiteSpace=wrap;html=1;rounded=0;fillColor=#A8DADC;strokeColor=#457B9D;fontColor=#1D3557;" parent="1" vertex="1">
          <mxGeometry x="380" y="524.5" width="120" height="60" as="geometry" />
        </mxCell>
        <mxCell id="wgaBkyX_i237nLYb71gu-18" value="数据存储" style="whiteSpace=wrap;html=1;rounded=0;shadow=0;fillColor=#A8DADC;strokeColor=#457B9D;fontColor=#1D3557;" parent="1" vertex="1">
          <mxGeometry x="550" y="525" width="120" height="60" as="geometry" />
        </mxCell>
        <mxCell id="wgaBkyX_i237nLYb71gu-30" style="edgeStyle=orthogonalEdgeStyle;curved=1;rounded=0;orthogonalLoop=1;jettySize=auto;html=1;exitX=0.5;exitY=1;exitDx=0;exitDy=0;entryX=1;entryY=0.5;entryDx=0;entryDy=0;strokeColor=#457B9D;fontColor=#1D3557;labelBackgroundColor=#F1FAEE;" parent="1" source="wgaBkyX_i237nLYb71gu-26" target="Ral3mTj9MEij2qjCwWmm-1" edge="1">
          <mxGeometry relative="1" as="geometry" />
        </mxCell>
        <mxCell id="wgaBkyX_i237nLYb71gu-26" value="数据包装" style="rounded=0;whiteSpace=wrap;html=1;fillColor=#A8DADC;strokeColor=#457B9D;fontColor=#1D3557;" parent="1" vertex="1">
          <mxGeometry x="380" y="630" width="120" height="60" as="geometry" />
        </mxCell>
        <mxCell id="wgaBkyX_i237nLYb71gu-38" value="" style="edgeStyle=orthogonalEdgeStyle;rounded=0;orthogonalLoop=1;jettySize=auto;html=1;strokeColor=#457B9D;fontColor=#1D3557;labelBackgroundColor=#F1FAEE;" parent="1" source="wgaBkyX_i237nLYb71gu-35" target="wgaBkyX_i237nLYb71gu-37" edge="1">
          <mxGeometry relative="1" as="geometry" />
        </mxCell>
        <mxCell id="wgaBkyX_i237nLYb71gu-40" value="" style="edgeStyle=orthogonalEdgeStyle;rounded=0;orthogonalLoop=1;jettySize=auto;html=1;strokeColor=#457B9D;fontColor=#1D3557;labelBackgroundColor=#F1FAEE;" parent="1" source="wgaBkyX_i237nLYb71gu-35" target="wgaBkyX_i237nLYb71gu-39" edge="1">
          <mxGeometry relative="1" as="geometry" />
        </mxCell>
        <mxCell id="wgaBkyX_i237nLYb71gu-35" value="数据解析" style="rounded=0;whiteSpace=wrap;html=1;shadow=0;fillColor=#A8DADC;strokeColor=#457B9D;fontColor=#1D3557;" parent="1" vertex="1">
          <mxGeometry x="-70" y="330" width="120" height="60" as="geometry" />
        </mxCell>
        <mxCell id="wgaBkyX_i237nLYb71gu-37" value="实时数据" style="whiteSpace=wrap;html=1;rounded=0;shadow=0;fillColor=#A8DADC;strokeColor=#457B9D;fontColor=#1D3557;" parent="1" vertex="1">
          <mxGeometry x="-140" y="470" width="120" height="60" as="geometry" />
        </mxCell>
        <mxCell id="wgaBkyX_i237nLYb71gu-39" value="历史数据" style="whiteSpace=wrap;html=1;rounded=0;shadow=0;fillColor=#A8DADC;strokeColor=#457B9D;fontColor=#1D3557;" parent="1" vertex="1">
          <mxGeometry y="470" width="120" height="60" as="geometry" />
        </mxCell>
        <mxCell id="EXphBwM4bVncMX0CTonM-7" style="edgeStyle=orthogonalEdgeStyle;rounded=0;orthogonalLoop=1;jettySize=auto;html=1;exitX=0;exitY=0.5;exitDx=0;exitDy=0;exitPerimeter=0;entryX=1;entryY=0.5;entryDx=0;entryDy=0;strokeColor=#457B9D;fontColor=#1D3557;labelBackgroundColor=#F1FAEE;" parent="1" source="EXphBwM4bVncMX0CTonM-1" target="wgaBkyX_i237nLYb71gu-8" edge="1">
          <mxGeometry relative="1" as="geometry" />
        </mxCell>
        <mxCell id="EXphBwM4bVncMX0CTonM-1" value="" style="strokeWidth=1;html=1;shape=mxgraph.flowchart.annotation_2;align=left;labelPosition=right;pointerEvents=1;verticalAlign=middle;fontSize=12;fillColor=#A8DADC;strokeColor=#457B9D;fontColor=#1D3557;" parent="1" vertex="1">
          <mxGeometry x="820" y="120" width="50" height="100" as="geometry" />
        </mxCell>
        <mxCell id="EXphBwM4bVncMX0CTonM-11" style="edgeStyle=orthogonalEdgeStyle;rounded=1;sketch=0;orthogonalLoop=1;jettySize=auto;html=1;exitX=0;exitY=0.5;exitDx=0;exitDy=0;entryX=1;entryY=0;entryDx=0;entryDy=0;entryPerimeter=0;fontColor=#1D3557;strokeColor=#457B9D;fillColor=#A8DADC;labelBackgroundColor=#F1FAEE;" parent="1" source="EXphBwM4bVncMX0CTonM-10" target="EXphBwM4bVncMX0CTonM-1" edge="1">
          <mxGeometry relative="1" as="geometry" />
        </mxCell>
        <mxCell id="EXphBwM4bVncMX0CTonM-10" value="&lt;p&gt;ip地址&lt;/p&gt;" style="rounded=0;whiteSpace=wrap;html=1;fillColor=#A8DADC;strokeColor=#457B9D;fontColor=#1D3557;" parent="1" vertex="1">
          <mxGeometry x="870" y="110" width="110" height="20" as="geometry" />
        </mxCell>
        <mxCell id="mD94zGOXXY75mjwzcfFq-3" style="edgeStyle=orthogonalEdgeStyle;rounded=0;orthogonalLoop=1;jettySize=auto;html=1;exitX=0.5;exitY=1;exitDx=0;exitDy=0;entryX=0.5;entryY=0;entryDx=0;entryDy=0;labelBackgroundColor=#F1FAEE;strokeColor=#457B9D;fontColor=#1D3557;" parent="1" source="mD94zGOXXY75mjwzcfFq-1" target="mD94zGOXXY75mjwzcfFq-2" edge="1">
          <mxGeometry relative="1" as="geometry" />
        </mxCell>
        <mxCell id="mD94zGOXXY75mjwzcfFq-1" value="Fert3000采集工程启动过程" style="rounded=1;whiteSpace=wrap;html=1;fillColor=#A8DADC;strokeColor=#457B9D;fontColor=#1D3557;" parent="1" vertex="1">
          <mxGeometry x="-696.5" y="40" width="153" height="60" as="geometry" />
        </mxCell>
        <mxCell id="mD94zGOXXY75mjwzcfFq-13" value="" style="edgeStyle=orthogonalEdgeStyle;curved=0;rounded=1;sketch=0;orthogonalLoop=1;jettySize=auto;html=1;fontColor=#1D3557;strokeColor=#457B9D;fillColor=#A8DADC;" parent="1" source="mD94zGOXXY75mjwzcfFq-2" target="mD94zGOXXY75mjwzcfFq-12" edge="1">
          <mxGeometry relative="1" as="geometry" />
        </mxCell>
        <mxCell id="mD94zGOXXY75mjwzcfFq-2" value="DataServer工程&lt;br&gt;ServerStart类&lt;br&gt;startServer()方法" style="rounded=0;whiteSpace=wrap;html=1;fillColor=#A8DADC;strokeColor=#457B9D;fontColor=#1D3557;" parent="1" vertex="1">
          <mxGeometry x="-696.5" y="150" width="153" height="60" as="geometry" />
        </mxCell>
        <mxCell id="mD94zGOXXY75mjwzcfFq-33" style="edgeStyle=orthogonalEdgeStyle;sketch=0;orthogonalLoop=1;jettySize=auto;html=1;exitX=0;exitY=0.5;exitDx=0;exitDy=0;entryX=1;entryY=0.5;entryDx=0;entryDy=0;fontColor=#1D3557;strokeColor=#457B9D;fillColor=#A8DADC;rounded=1;" parent="1" source="mD94zGOXXY75mjwzcfFq-12" target="mD94zGOXXY75mjwzcfFq-14" edge="1">
          <mxGeometry relative="1" as="geometry" />
        </mxCell>
        <mxCell id="mD94zGOXXY75mjwzcfFq-34" style="edgeStyle=orthogonalEdgeStyle;curved=0;rounded=1;sketch=0;orthogonalLoop=1;jettySize=auto;html=1;exitX=0;exitY=0.5;exitDx=0;exitDy=0;entryX=1;entryY=0.5;entryDx=0;entryDy=0;fontColor=#1D3557;strokeColor=#457B9D;fillColor=#A8DADC;" parent="1" source="mD94zGOXXY75mjwzcfFq-12" target="mD94zGOXXY75mjwzcfFq-15" edge="1">
          <mxGeometry relative="1" as="geometry" />
        </mxCell>
        <mxCell id="mD94zGOXXY75mjwzcfFq-35" style="edgeStyle=orthogonalEdgeStyle;curved=0;rounded=1;sketch=0;orthogonalLoop=1;jettySize=auto;html=1;exitX=0;exitY=0.5;exitDx=0;exitDy=0;entryX=1;entryY=0.5;entryDx=0;entryDy=0;fontColor=#1D3557;strokeColor=#457B9D;fillColor=#A8DADC;" parent="1" source="mD94zGOXXY75mjwzcfFq-12" target="mD94zGOXXY75mjwzcfFq-16" edge="1">
          <mxGeometry relative="1" as="geometry" />
        </mxCell>
        <mxCell id="mD94zGOXXY75mjwzcfFq-36" style="edgeStyle=orthogonalEdgeStyle;curved=0;rounded=1;sketch=0;orthogonalLoop=1;jettySize=auto;html=1;exitX=0;exitY=0.5;exitDx=0;exitDy=0;entryX=1;entryY=0.5;entryDx=0;entryDy=0;fontColor=#1D3557;strokeColor=#457B9D;fillColor=#A8DADC;" parent="1" source="mD94zGOXXY75mjwzcfFq-12" target="mD94zGOXXY75mjwzcfFq-17" edge="1">
          <mxGeometry relative="1" as="geometry" />
        </mxCell>
        <mxCell id="mD94zGOXXY75mjwzcfFq-37" style="edgeStyle=orthogonalEdgeStyle;curved=0;rounded=1;sketch=0;orthogonalLoop=1;jettySize=auto;html=1;exitX=0;exitY=0.5;exitDx=0;exitDy=0;entryX=1;entryY=0.5;entryDx=0;entryDy=0;fontColor=#1D3557;strokeColor=#457B9D;fillColor=#A8DADC;" parent="1" source="mD94zGOXXY75mjwzcfFq-12" target="mD94zGOXXY75mjwzcfFq-18" edge="1">
          <mxGeometry relative="1" as="geometry" />
        </mxCell>
        <mxCell id="mD94zGOXXY75mjwzcfFq-38" style="edgeStyle=orthogonalEdgeStyle;curved=0;rounded=1;sketch=0;orthogonalLoop=1;jettySize=auto;html=1;entryX=0.5;entryY=0;entryDx=0;entryDy=0;fontColor=#1D3557;strokeColor=#457B9D;fillColor=#A8DADC;" parent="1" source="mD94zGOXXY75mjwzcfFq-12" target="mD94zGOXXY75mjwzcfFq-19" edge="1">
          <mxGeometry relative="1" as="geometry" />
        </mxCell>
        <mxCell id="mD94zGOXXY75mjwzcfFq-41" value="" style="edgeStyle=orthogonalEdgeStyle;curved=0;rounded=1;sketch=0;orthogonalLoop=1;jettySize=auto;html=1;fontColor=#1D3557;strokeColor=#457B9D;fillColor=#A8DADC;" parent="1" source="mD94zGOXXY75mjwzcfFq-12" target="mD94zGOXXY75mjwzcfFq-40" edge="1">
          <mxGeometry relative="1" as="geometry" />
        </mxCell>
        <mxCell id="mD94zGOXXY75mjwzcfFq-43" style="edgeStyle=orthogonalEdgeStyle;curved=0;rounded=1;sketch=0;orthogonalLoop=1;jettySize=auto;html=1;exitX=1;exitY=0.5;exitDx=0;exitDy=0;entryX=0;entryY=0.5;entryDx=0;entryDy=0;fontColor=#1D3557;strokeColor=#457B9D;fillColor=#A8DADC;" parent="1" source="mD94zGOXXY75mjwzcfFq-12" target="mD94zGOXXY75mjwzcfFq-42" edge="1">
          <mxGeometry relative="1" as="geometry" />
        </mxCell>
        <mxCell id="mD94zGOXXY75mjwzcfFq-12" value="BeanContainer.init();&lt;br&gt;根据@Protocol注解及类继承的父类将bean放入beanMap中" style="rounded=0;whiteSpace=wrap;html=1;fillColor=#A8DADC;strokeColor=#457B9D;fontColor=#1D3557;" parent="1" vertex="1">
          <mxGeometry x="-696.5" y="270" width="153" height="60" as="geometry" />
        </mxCell>
        <mxCell id="mD94zGOXXY75mjwzcfFq-14" value="StartWeb" style="rounded=0;whiteSpace=wrap;html=1;labelBackgroundColor=none;sketch=0;fontColor=#1D3557;strokeColor=#457B9D;fillColor=#A8DADC;" parent="1" vertex="1">
          <mxGeometry x="-1000" y="150" width="120" height="60" as="geometry" />
        </mxCell>
        <mxCell id="mD94zGOXXY75mjwzcfFq-15" value="WebsocketServer" style="rounded=0;whiteSpace=wrap;html=1;labelBackgroundColor=none;sketch=0;fontColor=#1D3557;strokeColor=#457B9D;fillColor=#A8DADC;" parent="1" vertex="1">
          <mxGeometry x="-1000" y="210" width="120" height="60" as="geometry" />
        </mxCell>
        <mxCell id="mD94zGOXXY75mjwzcfFq-16" value="WebsocketClient" style="rounded=0;whiteSpace=wrap;html=1;labelBackgroundColor=none;sketch=0;fontColor=#1D3557;strokeColor=#457B9D;fillColor=#A8DADC;" parent="1" vertex="1">
          <mxGeometry x="-1000" y="270" width="120" height="60" as="geometry" />
        </mxCell>
        <mxCell id="mD94zGOXXY75mjwzcfFq-17" value="LoadChannelDriver" style="rounded=0;whiteSpace=wrap;html=1;labelBackgroundColor=none;sketch=0;fontColor=#1D3557;strokeColor=#457B9D;fillColor=#A8DADC;" parent="1" vertex="1">
          <mxGeometry x="-1000" y="330" width="120" height="60" as="geometry" />
        </mxCell>
        <mxCell id="mD94zGOXXY75mjwzcfFq-18" value="SaveDataServer" style="rounded=0;whiteSpace=wrap;html=1;labelBackgroundColor=none;sketch=0;fontColor=#1D3557;strokeColor=#457B9D;fillColor=#A8DADC;" parent="1" vertex="1">
          <mxGeometry x="-1000" y="390" width="120" height="60" as="geometry" />
        </mxCell>
        <mxCell id="mD94zGOXXY75mjwzcfFq-39" style="edgeStyle=orthogonalEdgeStyle;curved=0;rounded=1;sketch=0;orthogonalLoop=1;jettySize=auto;html=1;exitX=0.5;exitY=1;exitDx=0;exitDy=0;entryX=0.5;entryY=0;entryDx=0;entryDy=0;fontColor=#1D3557;strokeColor=#457B9D;fillColor=#A8DADC;" parent="1" source="mD94zGOXXY75mjwzcfFq-19" target="mD94zGOXXY75mjwzcfFq-20" edge="1">
          <mxGeometry relative="1" as="geometry" />
        </mxCell>
        <mxCell id="mD94zGOXXY75mjwzcfFq-19" value="ServerStart.loadParams()" style="rounded=0;whiteSpace=wrap;html=1;labelBackgroundColor=none;sketch=0;fontColor=#1D3557;strokeColor=#457B9D;fillColor=#A8DADC;" parent="1" vertex="1">
          <mxGeometry x="-706.5" y="450" width="173" height="60" as="geometry" />
        </mxCell>
        <mxCell id="mD94zGOXXY75mjwzcfFq-20" value="ServerStart.start()" style="rounded=0;whiteSpace=wrap;html=1;labelBackgroundColor=none;sketch=0;fontColor=#1D3557;strokeColor=#457B9D;fillColor=#A8DADC;" parent="1" vertex="1">
          <mxGeometry x="-706.5" y="560" width="173" height="60" as="geometry" />
        </mxCell>
        <mxCell id="mD94zGOXXY75mjwzcfFq-40" value="ServerChannel : s_" style="rounded=0;whiteSpace=wrap;html=1;fillColor=#A8DADC;strokeColor=#457B9D;fontColor=#1D3557;" parent="1" vertex="1">
          <mxGeometry x="-470" y="220" width="153" height="60" as="geometry" />
        </mxCell>
        <mxCell id="mD94zGOXXY75mjwzcfFq-42" value="ClientChannel : c_" style="rounded=0;whiteSpace=wrap;html=1;fillColor=#A8DADC;strokeColor=#457B9D;fontColor=#1D3557;" parent="1" vertex="1">
          <mxGeometry x="-470" y="310" width="153" height="60" as="geometry" />
        </mxCell>
        <mxCell id="y_2R0KRIv1sbbhgSnNdf-2" value="" style="edgeStyle=orthogonalEdgeStyle;rounded=0;orthogonalLoop=1;jettySize=auto;html=1;entryX=0.5;entryY=0;entryDx=0;entryDy=0;exitX=0.5;exitY=1;exitDx=0;exitDy=0;" parent="1" source="x9bEP2mhulIpiE2jmw_l-5" target="y_2R0KRIv1sbbhgSnNdf-3" edge="1">
          <mxGeometry relative="1" as="geometry">
            <mxPoint x="990" y="670" as="targetPoint" />
          </mxGeometry>
        </mxCell>
        <mxCell id="x9bEP2mhulIpiE2jmw_l-6" style="edgeStyle=orthogonalEdgeStyle;rounded=0;orthogonalLoop=1;jettySize=auto;html=1;exitX=0.5;exitY=1;exitDx=0;exitDy=0;entryX=0.5;entryY=0;entryDx=0;entryDy=0;" edge="1" parent="1" source="-aoUGRB_CuIsWPi_dUsE-5" target="x9bEP2mhulIpiE2jmw_l-5">
          <mxGeometry relative="1" as="geometry" />
        </mxCell>
        <mxCell id="-aoUGRB_CuIsWPi_dUsE-5" value="HslCommunication" style="rounded=1;whiteSpace=wrap;html=1;fillColor=none;" parent="1" vertex="1">
          <mxGeometry x="920" y="530" width="140" height="60" as="geometry" />
        </mxCell>
        <mxCell id="y_2R0KRIv1sbbhgSnNdf-3" value="数据解析" style="swimlane;fillColor=#fff2cc;strokeColor=#d6b656;" parent="1" vertex="1">
          <mxGeometry x="740" y="1340" width="500" height="500" as="geometry">
            <mxRectangle x="720" y="650" width="80" height="23" as="alternateBounds" />
          </mxGeometry>
        </mxCell>
        <mxCell id="y_2R0KRIv1sbbhgSnNdf-4" value="IByteTransform" style="whiteSpace=wrap;html=1;fillColor=#fff2cc;strokeColor=#d6b656;" parent="y_2R0KRIv1sbbhgSnNdf-3" vertex="1">
          <mxGeometry x="60" y="40" width="120" height="60" as="geometry" />
        </mxCell>
        <mxCell id="y_2R0KRIv1sbbhgSnNdf-14" style="edgeStyle=orthogonalEdgeStyle;rounded=0;orthogonalLoop=1;jettySize=auto;html=1;entryX=0.5;entryY=1;entryDx=0;entryDy=0;fillColor=#fff2cc;strokeColor=#d6b656;" parent="y_2R0KRIv1sbbhgSnNdf-3" source="y_2R0KRIv1sbbhgSnNdf-6" target="y_2R0KRIv1sbbhgSnNdf-4" edge="1">
          <mxGeometry relative="1" as="geometry" />
        </mxCell>
        <mxCell id="y_2R0KRIv1sbbhgSnNdf-6" value="ByteTransformBase" style="whiteSpace=wrap;html=1;fillColor=#fff2cc;strokeColor=#d6b656;" parent="y_2R0KRIv1sbbhgSnNdf-3" vertex="1">
          <mxGeometry x="60" y="120" width="120" height="60" as="geometry" />
        </mxCell>
        <mxCell id="y_2R0KRIv1sbbhgSnNdf-13" style="edgeStyle=orthogonalEdgeStyle;rounded=0;orthogonalLoop=1;jettySize=auto;html=1;entryX=0.5;entryY=1;entryDx=0;entryDy=0;fillColor=#fff2cc;strokeColor=#d6b656;" parent="y_2R0KRIv1sbbhgSnNdf-3" source="y_2R0KRIv1sbbhgSnNdf-10" target="y_2R0KRIv1sbbhgSnNdf-6" edge="1">
          <mxGeometry relative="1" as="geometry" />
        </mxCell>
        <mxCell id="y_2R0KRIv1sbbhgSnNdf-10" value="Utilities" style="whiteSpace=wrap;html=1;fillColor=#fff2cc;strokeColor=#d6b656;" parent="y_2R0KRIv1sbbhgSnNdf-3" vertex="1">
          <mxGeometry x="60" y="200" width="120" height="60" as="geometry" />
        </mxCell>
        <mxCell id="y_2R0KRIv1sbbhgSnNdf-12" value="transform()" style="rounded=0;whiteSpace=wrap;html=1;fillColor=#fff2cc;strokeColor=#d6b656;" parent="y_2R0KRIv1sbbhgSnNdf-3" vertex="1">
          <mxGeometry x="230" y="55" width="110" height="30" as="geometry" />
        </mxCell>
        <mxCell id="y_2R0KRIv1sbbhgSnNdf-11" style="edgeStyle=orthogonalEdgeStyle;rounded=0;orthogonalLoop=1;jettySize=auto;html=1;entryX=0;entryY=0.5;entryDx=0;entryDy=0;fillColor=#fff2cc;strokeColor=#d6b656;" parent="y_2R0KRIv1sbbhgSnNdf-3" source="y_2R0KRIv1sbbhgSnNdf-4" target="y_2R0KRIv1sbbhgSnNdf-12" edge="1">
          <mxGeometry relative="1" as="geometry">
            <mxPoint x="240" y="70" as="targetPoint" />
            <Array as="points" />
          </mxGeometry>
        </mxCell>
        <mxCell id="B07JP_nlf9BlqsH8_0sl-1" value="创建新文件夹" style="rounded=0;whiteSpace=wrap;html=1;fillColor=#fff2cc;strokeColor=#d6b656;" parent="y_2R0KRIv1sbbhgSnNdf-3" vertex="1">
          <mxGeometry x="230" y="120" width="120" height="60" as="geometry" />
        </mxCell>
        <mxCell id="x9bEP2mhulIpiE2jmw_l-5" value="HSL一次读取多条数据" style="swimlane;fillColor=#dae8fc;strokeColor=#6c8ebf;" vertex="1" parent="1">
          <mxGeometry x="740" y="660" width="500" height="600" as="geometry" />
        </mxCell>
        <mxCell id="x9bEP2mhulIpiE2jmw_l-9" value="SiemensS7Net.Read(String[] address, short[] length)" style="rounded=0;whiteSpace=wrap;html=1;fillColor=#dae8fc;strokeColor=#6c8ebf;" vertex="1" parent="x9bEP2mhulIpiE2jmw_l-5">
          <mxGeometry x="70" y="480" width="330" height="60" as="geometry" />
        </mxCell>
        <mxCell id="x9bEP2mhulIpiE2jmw_l-11" value="SiemensS7Net.Read(String addres, short length)&lt;br style=&quot;font-size: 14px;&quot;&gt;例:siemensNet.Read(&quot;DB12.0&quot;, (short)64);&lt;br style=&quot;font-size: 14px;&quot;&gt;DB12:数据块12&lt;br style=&quot;font-size: 14px;&quot;&gt;.0:偏移量&lt;br style=&quot;font-size: 14px;&quot;&gt;&lt;div style=&quot;font-size: 14px;&quot;&gt;&lt;br style=&quot;font-size: 14px;&quot;&gt;&lt;/div&gt;" style="rounded=0;whiteSpace=wrap;html=1;align=left;verticalAlign=middle;fontSize=14;spacingLeft=0;spacingTop=0;spacing=15;fillColor=#dae8fc;strokeColor=#6c8ebf;" vertex="1" parent="x9bEP2mhulIpiE2jmw_l-5">
          <mxGeometry x="70" y="157" width="340" height="180" as="geometry" />
        </mxCell>
        <mxCell id="x9bEP2mhulIpiE2jmw_l-12" value="" style="shape=image;verticalLabelPosition=bottom;labelBackgroundColor=#ffffff;verticalAlign=top;aspect=fixed;imageAspect=0;image=data:image/png,iVBORw0KGgoAAAANSUhEUgAAA4sAAADtCAYAAAAWVuC5AAAgAElEQVR4Aey9eXwVRbo+nj9c7v3N994ZFWeuM+OGGFBnXFBREMVxGRXnOnrFBRwQNMooCujAgCiIIAIaFInGDQyENYEQCEtCDiRkX0lIONnIcrKQEBKzsAgqyPP7PB0rVA6nw0nOycn2/lGfqq5+663qt563qp+u6m6vmpoa9JZgs9mwZcsWpKSk9Jpr7sl9y35kf7Jf7a/z0KFDOFB1EBWVnRMOHqxu0SbBXu8ZZ+yx2BnHgjfBmzO4E5wITpzBicgITroCBmS86jwcenUFAHiqDRUVFQZRzM3NbXEj76n6pR73Ap39SMLIfu3qthXsubfvu3p/d3b7BG+CN2cwKDgRnDiDE5ERnHQFDMh41Xk47FVksSuAXdrQeWAX24vtBQOCAcGAYEAwIBgQDAgGBAPOY0DIYi/ahiuO4bxjiK3EVoIBwYBgQDAgGBAMCAYEA70dA15lZWWQIDYQDAgGBAOCAcGAYEAwIBgQDAgGBAOCAR0DXgUFBZAgNhAMCAYEA4IBwYBgQDAgGBAMCAYEA4IBHQNCFoUsy8MCwYBgQDAgGBAMCAYEA4IBwYBgQDBwFgaELAoozgKF/jRB0vJ0STAgGBAMCAYEA4IBwYBgQDDQOzHQJcliUlIStm3bZgSmFTjN8tV5+1iXV/oY6zrty3jqWG+bfXv27dsHi8ViXD9jHnuqXVJP7xwIpN+l3wUDggHBgGBAMCAYEAwIBuwx0CXJ4rvvvot+/foZgWnVaLN8dd4+1uWVPsa6TvsynjrW22bfHhLE+++/37h+xjz2VLukHhkkBAOCAcGAYEAwIBgQDAgGBAOCAWLA7WSRq2QkP6+99poR83jlypXGMfPMAmUUKCnj5eVlBKZVPmVGjRqFiy++GIMGDWrWr87bx7oeyrelrL0udx/rbdOvkfVw9ZOkljZgzGN31y/6ZAAQDAgGBAOCAcGAYEAwIBgQDAgGWsOA28miWhUjobviiivg7+9vkDRF/pivVvmYVvk6YXIXkbLXo9rG+s+s2OUi15qB1OhIRIU3bX09s2V1O7Zt24FwSxyiEzKRmZOH3BbvOJ67rCUmCQmZVuTk5bcgfPZt07ee0ma0HW2jbHimTU1t5LXI9lRx7tacW84JPgQDggHBgGBAMCAYEAwIBlzBgNvJoiI9XMW74IILDLKjk0LmK+LDtCfJomob6z9DtlKRGr0Ci567B0/c2rT1VZHZfv2uQ79+d+PW+ybh6alrsCYhE6ktyOK5y943dhamrok2CKPeUfZkUSeyJIi0HW2jbHimTU1tPEN2xQF0u0pa8CAYEAwIBgQDggHBgGBAMCAYcA8G3E4WVcfoW0+5BVSRQqZJlBicyaec0slY3+aq9JjFZvopz62yTR+WSURSpD9m3XcFBv3+D/j11cPw6OgX8eJrr+GVl1/G6Mcewz2DHsafbh2BJya9j/nrt8FSUIB9Bmk0K/siXh77GB67+QoMGnQPBo+ehUWbkxC190ynsQ3KJkzr16W2y/I8iTaPKaPnkzyS9Oq2kfQZ+4otxBaCAcGAYEAwIBgQDAgGBAOCAdcw4FaySMKjVg2biFhT43RipAiSszHLmnWyvhpnv/LGY31Fk2ld5szKnEb4rhmEK+6bBf/IJCQWFMCamYroNYswa9SDuOOyPvjVH2/DsDfnY1GqFam53FZqVjYVmXHLsObV6/DY9ZfiN38cisd9t+LDjfHN9tFXVZnW7cY020obMVak0CzfzD6S75pziP3EfoIBwYBgQDAgGBAMCAYEA70ZA24li2Zf+OwosqhvK1VkS4/NCBllzmxDNSN8BcjPyzUIY1Lge/jmpdtw5WV98If7XsQTi6KxK9XaClnMRV7aDmQueQov33c1/qNPP/T3WYrrH5vUTFjNiCxtaEYKzfJ7M4Dl2mUAFwwIBgQDggHBgGBAMCAYEAx0DAbcShbNvlbqKlnUt2hSlwpntpI6No5eL9OOQWROFpvlkwJh8R+F+664GH/o9zBuHrsU63bvwV7TlcW92Je0HpZZwzBq0MX4z0uvxp9fWY0npn7V3HazLbK0oRkpNMtvbmeL9ykd20RkxS6CAcGAYEAwIBgQDAgGBAOCAcGAMxhwK1lkhfrWULXVUydtzm4/VXIsq+vUP/6itmjq219JqFTQVxZdIosF4YjdPhMvXXcZ+l90Ky6/+y18uiMRcTpZvOrPuOyOVzDzm9VYvW01gpfPxJzHL8Owfv8Pl/YbjCfe34FlljOg1G1i3zYzUmiW70xHi8wZ24stxBaCAcGAYEAwIBgQDAgGBAOCgXNjwO1kUd8aqrZ66sRIkUBnY5bVdeq/lVBkUd/+yjwV9K2e9oTsDDicWFksiEPijk/x1t2X49aL+uOy617CzO2xCNfJYp//xPm/uhSXXXk1ru53NfpedRl+/5vz8Yd+QzF4xAKs3pqCPfvOdIhuE/u2mZFCs/wz13JGv+SJLQQDggHBgGBAMCAYEAwIBgQDggFXMOB2sqgaY/Y1VGdJopJzhkjp219ZjiSRq4r6Vk97Paqd5h+p0YGlEcqL+uF/+o3F9G0x2KqTxRZfUuXXUB/FYzf/Gn/+8yD8+YlZ+CoqCUnaNlGdLLKdPFaBbVdEV10LzznK57WfuRa9zZIWuwgGBAOCAcGAYEAwIBgQDAgGBAPtx0CHkUWdDCni156YevQONltdc5Svt8FezxmdGhG0+xrqGRknVhZblE1FZvy3WDPpRjwxtD9+P+QpvBq8A+v35jZfi942EkK1GspY32qr28zRPxe5qnqmne0HgugQ2wkGBAOCAcGAYEAwIBgQDAgGBAM6BoQs6quDLQifDhQn3llsUTYXeXujkLl+IqaOuBVX//463PLqMszfkNpM7HSyyBVDkl0V9K22OlkkieQ5JcdY/0WJ3rGS1vtP0oIHwYBgQDAgGBAMCAYEA4IBwUBbMeB2sqi+XMqtlfoWSpIjBn1rqL79Us/XCRLL6BdFgsTVN8ow5jHPO8rXt6dSv+Ovpzqxstjmr6EWoGBfEgoiZ2HWqEG46td/QJ9H52PqV7uar0Uni7od2Gb9WnRb6Ner20TS4viCAcGAYEAwIBgQDAgGBAOCAcGAuzHgdrKoEx2d3KiP1HAVTREgptVHcPSP1Kj39SjXGlnUV9r01Ti9Xr09uryqt7V3FvPzcmDNTEBS4Kw2/mexAPlZCbBumoLpI27G7//79/j1X+dg7PvrmlcFdTvo21B5vepa9HymVftlNVEGAncPBKJPMCUYEAwIBgQDggHBgGBAMGCPAY+RRfX7C50IMq1+r6H//kInUq2RRf0dPhIpHre24qjLq3pbI4skitFrphqrg3dc1ge/+uNtGPbmfCxKtSI1Nx+tlk3ZiegFf8PYof+DX/+2L26dGIybR7zV/G6ibgdeL0ktA69XXYuez7Rqv7ynKI5s78hyLJgQDAgGBAOCAcGAYEAwIBhwNwbcShZb2/apr/CRKJH8cPulSutf9SRhUquPrZFFJUM91KcImNLJsnq+km9JKLVtqC2+aPoaXnn5RYx+bBjuGTQMf7p1BJ6Y9D7mr98GS0EB9hlfNm2l7ItjMXrYTRg26B4MenQSZgXEY9bilc1fPGXbVHDm2imr2s+0u4Eg+mRwEQwIBgQDggHBgGBAMCAYEAwIBnQMuJUsmhEarhrqWyvVqp6ZvFk+G66TTkWeSAiVfuapFThuR1VBEUlV5sxW1VSkRq/AoufuwRO3npFvKncd+vW7G7feNwlPT12DNQmZSNV+f1FQcO6y9z0xC1MXRSMh1doqwdO36ar26yuITOsrjme20QqgdUBLWvAgGBAMCAYEA4IBwYBgQDAgGHAPBjxCFs2IjhkpNMtnpzsiiySCikiRDDJN8khZFUgoFVFkfIYs5iLXmoHU6EhEhZ+Rbyq3Hdu27UC4JQ7RCZnIzMlDbguyeO6ylqgkgyjmGNtWzTtN36ar2q+/m2hGuMURzG0qthHbCAYEA4IBwYBgQDAgGBAMCAbajwG3kkVupyTRY2CaBIdE0Wy7qS6vyjGmvCJ2PNY7WOnU5e3TrFMnWizPuvQtqWfIYvuNp7fLlbTeNl67o/ZTv7p2M3u60gYp2/k4kD6QPhAMCAYEA4IBwYBgQDAgGOhKGHArWbS/MLVaRmKmtp7ay6hjEqSmrZ8tt4IyX8m4GrelPa7W1Zby+rU7c71tlW9LW0RWBijBgGBAMCAYEAwIBgQDggHBgGCAGOhQsqjew+OWznO9Y8dVM7VlVI/tVwhdAW5b2uNKPW0tq1+7M9fbVvm2tkfkZXAQDAgGBAOCAcGAYEAwIBgQDAgGOpQsCsAEYIIBwYBgQDAgGBAMCAYEA4IBwYBgoHtiQMhiiw/WdM9OFOeTfhMMCAYEA4IBwYBgQDAgGBAMCAbcjQEhi0IW3fZOqLvBKfpkwBMMCAYEA4IBwYBgQDAgGBAMdB4GhCwKWRSyKBgQDAgGBAOCAcGAYEAwIBgQDAgGzsKAV3Z2NiSIDQQDgoHuhAF+rCo3Nxc5OTkyfskYLhgQDAgGBAOCAcGAYKCDMOC1Y8cOSBAbCAYEA90JAzt37kRqairi4uJk/JIxXDAgGBAMCAYEA4IBwUAHYcAtK4t79uxBeHg4YmNjPcbqWRfrZN3daUVE2ioreIIB1zBA39++fTuSk5ORmZkp/t9BTxIFp67h1Fn7yVwmdnYWKyLnGay0xc7034iICGMusubkQILYoDtjIC4u3iG38jpy5AhcDQcPHsSuXbuMmzZXdTlbns7MOlm3s2VEzvW+FhuKDTsbA/R9RRZtNpv4vxvG8M7u095cv8xlnhlTxc6esXNv82UDV1FRqP2uDsdP/ChBbNCtMUCi64hbeTU0NMDVUFlZCW4L27t3r8u6nG0L62KdrNvZMiLnel+LDcWGnY0B+r4ii8XFxeL/bhjDO7tPe3P9Mpd5ZkwVO3vGzr3Nl4mrXbuicKjmOxz7/oQEsUG3xsA+a45DbuVVW1sLV0N5ebmhnFvCXNXlbHnWRbLIup0tk5+fjw8//BCbN292uowj3Y70UCd185yjMpLnOs7EhmJDYoC+r8hiUVHROf3NzDfN8s1w1lZ5Mz1m+R2tX6/Xk3Xp9Ur6bB92di5zNO/o9mxPnzrS2VY9lJ82bVqbQmfMlc7aWdm0rXZQ5ezj1vQ4sr99ef3YTN4sXy8r6bN9zx02Ia64ElNVXYPDR793KhTbyvDxJ4uxLTyiWZ5p5vFca3oclW1N3plzZjrN8p3RKTLOYaGr2Slrn9Uht/Kqrq6Gq4FbwSwWi/H+oKu6nC3PdxVZJ+t2tkxMTAz69++PKVOmOF2GuvnFRe5LV2HdunW49957MX/+/GY91EndrMPZ9oic69gTG/Y+G9L3FVncv3+/Q3+jz/KdxrKyMsPflW+a5TuDI3sfp27WocYFR7Fqg71+VZbtUefM9OsySlbFSo+julWeaoMr167qk9j9/ubsXKbPX476fdy4cbj66quxYsWKFpjU8cO0wgVjs7nsXHp0HBC3F1xwAa666ip4e3s3h0suucQ0X/mjrqej087aWbXDzB91+zGt/EuVs4/t9ejn9T7V883SuryOAfY5+4wYsG8fj3UMmOmW/Pb5NnG1c9cuHDh4CPWHjzkMhcU27NmbjeraOuN8YkoaBlx3Haa9NaNZnmnm8ZyZHubvyczGI8MfNcrqOqmbx0kpaQ4D22CmV2+Prmf12iBc3bcvXnzppTbrNKtL8h1jpKvYZW/2PofcyuvAgQNwNfDpfmRkJNLS0lzW5WxbWBfrZN3OlomKijImsjfffNPpMtQ9b948gwhygmMgUVy1apWx7VbVTZ2cKFmHypPYdWyJDcWG9hig7yuyyCfq9ud5TJ996KGHEB8fD903zfId6bDP0/XwHHWzDjUuOIpVG+x1qbJsjzpnpl+XUbIqVnoc1a3yVBtcuXZVn8Tu90dn5zJ9/nLU73369MGFF15okAbV94x1/DCtnzOby86lR8cBcUuiuGzZMmOFhassDGPGjDHN74y50lk7q2sz80fdfkwr/1Ll7GN7Pfp5vU/1fLO0Lq9jgESRfUYM2LePxzoGzHRLfvt8m7jauXMXyg8cxHcNRxyGD30/Nghe2p69xvn4xFQMGHAd/j3trWZ5ppnHc2Z6mF9ZXYvUPXuNsiSNSidjHpNwOgpsg5levT26HhJFhau26jSrS/IdY6Sr2CVzb7ZDbuXFp1OuBj7dJ3Hjp+xd1eVsedbFOlm3M2WCgoKMyYtPOwcPHow33njDYXj//feNbW66TpadPHmyEe68806DFHILrC5DfdTNCdJetyOdellJu45BsWHvsSF9X5HFvLy8Fn6ocECfnTt3LjIyMgx/5M0pfdYsX5VrLaZfKz2Uoz4ec0xQ44Mem40VLMt2sX3UqcYHXT/byWPqY9qsXUoP6+L4M3r0aKMMYx4z35Ed9LrMdEu+Z3zKmbnMHg/nwh5xozDAvlZ9ST0Ko/b45HY6YlHhTsk50qP0MTbDkqqL53UMm8nrOjsi3RY7s428T1BzOtuvfE3ZhbG9DR212+x6qZPnqEe3jyMdzLOX19uj+ojt0dun0s7oN6tX8lsfB4gry85dKK2oQk3dYYdh6r+no/+AAYhLSDbOM+Yx81UZpkn2X3jxJUyd9lZz2BS2rVmGaXXurruGNsszX+kcctdQTPn39OYw7gUfQ06vS9XJuFnnv6cjdPNW5BYUY8GHvkZ5VdZep9JPeV2XpB33f3eyS0ZmlkNu5cVtnK4GPt0ncUtJSXFZl7NtYV2sk3W3VqagoAC7d+82BtBrr70WrQVODLz5o14znRx8dZlz6XdGp1ldku86NsWGPc+G9H1FFnNzc1v4qvJH+rAKvJG68sor8c033xh5HA8oR1/W85U8txUp3DCt8nU9Kp9jAfOVjB4z39FYYS+j2qDr19O6vN421UbG9uMSy7Bu5is5XUZPq/MSd46vODOX2feX6l8z7PE88U5s6RjQ+1jXSVxxK+M999xjyCsf0fPnzJnTjCXqUb5mhlW9DXo7dXkzPOvtdFfaGTvzGtU9Audubq+lDe2vXbVJt6HKY8zr4vUz2F+vshvLPvDAA8b9CcuofDOb2Nel5M3szHzVj3rbJO1ePyeuLDt3wlZeiUPfNToMJFckhzHxScZ5xjxmfnnlISSnZRjp/v0HwD6QuCm9TOvnr/plRZl6HOnMyS9qka/06LF921R7YuOTsWLlGlx9dV+QNPJYBbaXcroeSTvu++5mlz2/kEV7buXFrwm6GnjDxh96c+++q7qcLc+6WCfrbq1MdHS0MSBPmjTJ+BcO/4djFv7xj38YEwXPm+mkHk4mSuZc+p3RaVaX5LuOTbFhz7MhfV+RRb6Lo/ex8kcSJRX0mz7m8QaNcvRldTOoZBm/9957zTqZVud0PcznGMCxQD0QUnIqZr6jsUKdZ6zrNEvr8nrb9Ou2H5dU25iv5HQZPa3OS9w5vuLMXGbfX6p/zbBHzJDkEN86BvQ+1nUSVySKAQEBhrzyET2f2+308srXdNzqWNXboLdTlzfDs16Pu9LO2JnXSNsycO6mDb/66ivjFRtH7dBtqJ/ndSlb2F+vshvLclspd0ewrMo3s4l9XUrezM7MV/2ot03S7vVz4opksaSsEgdrGxwGg5D1H4Dd8UnGecYkfcxPSs3AQw8PN9K745JgH6x5hc06mdbPL1+5GiSM1ONI5/yFvi3yHbXPvm2qPSSzJIpqGyqPVWB7KedIn+Q5xkB3sQvJoiNu5cV3/lwNvGGj8qSkJJd1OdsW1sU6WbdZmdWrV2PixInNgYMwtwzYyzOP5yg7e/ZsY4VUl9H13HHHHcYNHicSXTdllB49baZT1y9p1zEoNuw9NqTvK7JotVpb+DOf8tKHX3/9dTz33HO4+OKL4eXlZcQ8Zr7utzxmoF9TljL0X4Unps1kwsPDDTLIso5kmKePJ3rbHMnrbdDTSpaxfdvUtVCeN6VqXGLMY+arcY+yJK9st55W1ypx5/hQa3OZmlPYj6rv2E+OsKfjRE87ixmFVcorXDFW+fb4UHg2w6oz+Xrb7PW7+7g1Ozuqy95HVF/otrHvF6WH16XGH8qoNMvqfafrcuSz1Kfqta9L16P3t0rby6u2SexePyeuLJadKC49gMqaeofhX1OnGeQwOi7ROM+YZJHbO3nuzanTsCE0DNm5+zF/4UfYsGmLQz26fsroZZVO5pml9fKqLraBbbFv2+Ahd+HNKf8+KzBfl9d1Stpx/3cnu6Rn7HXIrbz4zp+rgTdsJG6JiYku63K2LayLdbJuszLvvvsu7r//fuPdIqbvvvtufPvtt8YKKMvxvQ/edDKP5yjjSBfz+/XrZwTeUPJp7RVXXGEcK/0sR12c0DlYUzfPmel0VI/kuY5FsWHPtyF9X5HFffv2OfRZPu1Vfk2f5QrBl19+afi+8k3lpxwLmKbvUq8ZhuxllL/zRpBpBqZVXTxmXY7GKDX+UKcaQ3T99uOVoza1Ni5xfOI4xWt3pF+vy5FuyfOcH7U2lymssh91fDrCnsKgfUxfUP1phhl9ntJ9hzgxw7DSSRkd86p+e1/Q8/VrUXo6Om7NzsofVRsZ6+2nTZjHdrMv1P0AY+Vf9u1X8rSPnlZ9quvQ0/Z9reTt85VOffxhngrM7ww729uhpx8TV5GWnSi0VeDAoTqHYd6CD/HXhx5BfHKacX5XTAK8+w/AJZf0aZHP85QjSYtPTkdxeZVDfayHMlxV/HbFKmTlFEDpZL5ZWm+fqottYFtYhudV2efHvYio2ISzAvN1eV2npB33f3eyS9qeTIfcyov7Ul0N2dnZxraNhIQEl3U52xbWxa0irNusjOHEkZGGDNNLly5tJoXcz89BnoMpiSLPUcaRLuZv3brVCKNGjTKI4ueff24cU49qA2U46L/22mtGHs+Z6XRUj+S5jkWxYc+3IX2fN0S8gVO+Z9/vimzRr+mzarsp81mGvkk/5Rig0vRd+rC9LnVMeV1G+bu6iVM3kqouHiv9SoeKWSfPUSfTbJOu3368UuX0uLVxieMTCSOv3ZF+vS5dp6Q97z+tzWUKq+zHc2GPeHMUiHnVr2aY0ecp3XeIEzMMK52U0TGv2kC/MMvXr0Xp6ei4NTsrf1RtZ6y3nzZR/s6+YFoF5V/27VfytI+eVn2qytvH9n2t5O3zlU59/LFvf2fY2d4OPf2YuCJZ3F9SjvKDtQ5DpjUPsUmpKCqrNM7v3B1vEK4xY19okc/zlHtjyr8N0hiXlOpQH+uhzAUXXmgQxvfnL4TSyXyztN4+VRfbQPLHMjyvyl7Sp4lE8pweVL6S13VK2nH/dye7pO7JdMitvLhf3tWQlZXVTBZd1eVseTXws25ny2zZssWYcAcNGmTcmHEQnzBhAmbNmgXqa00Pz1OOZTk4c+AODAw0yjGfaaWfepU881vTK+dcx5/YsHfZkL6lk0W9/5Xf0QeVXzNNnx05cqTh93o+b6bot5RRaV2fnlZ6lO8rf+eYwHGEQY0PrMtsbOGYQF0M/KiIqoNp1TbmOboWJatiMxnVNtahZHX9zD/X9apyEnesf7EP+eCztbnMvr9U/xJvxBrxbZbWMcC+VJihvI4BlU95FRSeiXnm6fhUuGC+8i/lB458QZ2zr1fp6ei4NTura1dttG8/fUfZnNfrTFt1eT2t6lI2dhSb2VnvL6WT9tTbrdKdZWdnbNOTZNifJIsFxWUoq6p1KmTsy8PcDxZi3YZNDuWZz/OUs9fJPJLDO4fcZaxMjn7+BUz+11SQ9HGVkGlLdBy8+/c/K22vi8eUpyzL8FiVvXPwXZj85tSzAvN1eUc6Jc85HHRFO6WkZzicj7z4zp+rgZ/c5mQXFxfnsi5n28K6WCfrbq0Mz3O7KgdW9bSd7zDxqTuPme8o8B9Gut7NmzcbEyvL8mnpH//4R7z66qvNOplWMkzzfQL+w4pp1n+udup1Sdp1TIoNe64N6fuKLO7du7eFnyq/e+eddwyfo+/RB+mLPMd8lWY+b77ot3paxw7HATU+8KZc+T71KH9nvi6jjy2OfF9vg31dbZXnFy+HDBliXJeuS7eDnq/GQ7ZZXbt+XtKe9xtn5jIdn8SkmsuYr3DYWlrvVyWvz4PUqTBDPQpXffv2hQoXXXSRQ8xQXse8mS/o+Z2BPWfsTDsoH+R16e1UdmO+bk/lUyyr8plWNtTHCpZVemhPZVvGvKfg+GKvX+k0a48+/igbMxYf94wvE1c7Ii3IKyxFyYEahyE9Kw+R0XFtCrsTUpFfXNFCH/WsWB2Eu4f9BRfzA2re/bFjVyzee38BrrjyKgM/k96cauTxnH3aUfsoo/TwPPXxmCTUUZuZr8s70il5jnHQHezCL9064lZe/Eyzq4HbwTjR8OtcrupytjzrYp2su7UyHJh5c8hBnxMaB2NF+HjMfEfhrbfeaqE3ODjYGNhZloO6r68vXn755WadTCsZpvnSc2hoqCHD+tmO1top51zHodiwd9iQvq/IYnp6egu/Un5nsVgMn6Pv0R/pi00fIrA0p5nPmzT6rZ7WccRxQI0PXD1Rvk/9yt+Zr8twjFFjiyPfZ1nVHvu62ipPoujn5wfq1HXpdtDz1XjINqtr189L2vM+5MxcpuOTmFRzGfMVDltL6/2q5PV5kDoVZqhH4Yr/51NhxIgRDjFDeR3zZr6g53cG9pyxM+2gfJDXpbdT2Y35uj2VT7Gsymda2VAfK1hW6aE9lW0Z856C44u9fqXTrD36+KNszFh83DO+TFxF7LAgO68Y+SWVDsO7cz6At3f/NoUHHnwIkdEJLfRRD4niNwGrMPIfz6Pftd7YuiMaiWlZ+Pyrbw3C+Nqkfxl5PGefdtQ+yig9PE99PDbeZXTQZubr8o50Sp5jHHQHuyQkpzvkVl682XI1qJe/6TSu6nK2POvSbxj1chycp02bhpdeeskYeMePH49bb70VfJL39BJT8REAACAASURBVNNPg8dmgecpx4FZ6eSns3ms9KgJ5Ouvvzb0KXk1Cehl9QFe6ZPYdcyJDXuvDZ31fd6M0Tfp+xwLGOjLCju6b+ppdZ4xfVyNFdSjfJ/nlL/zptvR2GIvr49Lqj16rMYotlvP19N6+9m26dOnG0RRbzPTqi5dXuWzDK/JrKy9LjnuWF9rDc/K9sQnMUZsMK3mKWJGx7mjNOWVHvu5TOGWWFKYoTzxwZjyer4jzOg+onyFscKzoznXkR7Vxo6KnbWz8nFev7I57aD8Xbcn2+ooX9lE2VCX0dP6tZrlKxnqUm3T66WddburNPN1eaVHYvf6M3EVsSMSWblFyCs+4DC8NulNYyVw1D+eB9OMuTI46I7BLdI8x8B8ErItEVEt9AWuWY9Z732AhLQsQ06XYR7PKR32Mcs6ah/ldD2sk8dsg70OHpu1zZFuyXOMh65sl4TkNIfcyotbKFwN/LQzV/n4A1hXdTlbnnWxTtZtXyYsLMx4OnjNNdcYMY85gPJ4w4YNZ8nr5XmecpRX+eppo72eXbt24bPPPjOeIFLGUVln61V1Sew6HsWGPduG9H31oIhP3fX+Vr7Pp+pc7bj88ssNf2bMY3u/5tN/+jDzuaLA8ro+Pa37su77rMvR2KLLU49qG2X1oNpGPXpal1FpjjN6m/j7Aq5srF+/vkX45JNPDF28Ubc/x2O2X9cj6c7zmdbmMtUvxJLCsz7X2GNGx49Ks6zSYzaX8bzCJ2VUmmX1OU7p0WNiyRHGiD22gVi0P0/MEru6no5OO2tn+hrncnub6zbRr0f5mm5nXosur9vQ0X0C5c3ylV2oX7VNlzfzcebr8kqPxO71deLqXCuLZqt3Zit/9vKOVqTMZPR8Pe1IB/PsZdTKIgkt0/aB+SSTzDfTKfndf2XRnlt58aV6VwOfVJG4xcbGuqzL2bawLtbJuu3L8Me6/FIYt3ox5vErr7xiDJwbN248S14vz/McYCmv8jkYONIzY8YMgyh+8cUXBlF2VNbZelVdEruOR7Fhz7YhfV+RRd746P2tfP+ZZ54xblQ//fRTYxxgzBtXe7+m75IwMl/5uK5PT+u+rPs+6+KYYT+26PLUo9rGcUkPqm3Uo6d1GZXmWKS3iW0myWX9elBEgSsjer5Ks/26Hkl3ns+0NpepfiGW2KfEBzGg5hp7zOj4UWmWVXrM5jKeV/ikjEqzLP1DzXFKjx4TSwpXekzsKYKr5zNNzBK7up6OTjtrZ7aP9rW3uW4T/XqUr+l25rXo8roNVd/Zy5vlK7tQXrWNeUrezMdVPuWUDond7+fEFd9Z3JdfjP2lVQ7D65P/Zbznty0y2jjPmO/9MV9Pq/L28ipfj81k9Hw9rZfV0/Yyqj1c+SQptA/qXUl1LbouSTvu/+5kl8SUJj5nz628+J8yV0NGRtMLkXzR11VdzpZXL6uzbmfK8OVwPoXl5MpB1yzwPOUo70ivesl806ZNCAgIMD4swcGCsszjuwJ6WXsZRzolz3UMig17jw3p+4os8gM3jvqefkc/1P2cx8xX8vwPI88zn+Htt99GTExM83klp2LK0L/p5/ZpR2PLbbfd1iyvdKiY9bA+1T7qY9s4lvCDGDxW59hOVc4+1uVZRgV+3IJtuv3225vz1DnGuh3sdcqxZ33JmbmMfaawx/7R5xpn0o761F6nklF+oXyDeFRznJLRY+VrOr6YJvaIQWLR/ty5dOr63ZV21s7Kl8381+x67X1K+bi6dtqTtlX9Rf3Kxxm35d6DNlF6zHyc+Tpm3GVH0dNyfCCuSBatBSUOiSKJgiJk2y27DRnGiizqaUUq7OVVvh7byyRn7MO7cz8w6po9dz54rMusWhdinGd+a3pUe+64c4hRnjr0wHy2XV2LrkvSPYMs8gM39tzKKzc3F64G3rBROb8A5qouZ8uzLtbJup0pw89J8ymn+vAEB1FHQX04gPKO9DKf5bjFRD/PAYMfmmB5s7K6vKRdx53YsHfakL6vyCKflOs44EojdxxwmxvfGxo6dKjhr4x5TD9VMvTT++67zxhHZs6cacgqGUc6edNL/6af62WZdjS28KZTHytUvfZtU23Q62R71PhE/SzDwPYrOaZVvn2sxiK22f6cOqad2CalT+LO8Sdn5jJiQMcS5x8eM5/zIDFEzKg08xUGmHbUt7pOHUsqn/qp01FZ5ul4VpjSY91f9Hw9rePZrB535bdmZ3Ut+rXTf5W/6202S+vXwrQaf2hDvb9UWo0Pys/bcu9B/ap/zXxct7/eNnfZU/Q0jRfElSKLhWUHoYecwjLsjEnCc2PG4sorr8KXS5cbJIsxj5mvp0nAGHT5lAxrC51K/8Q3pjSTNsp8G7jG+PjN7PfnN8szzQ/i8Bx1KpKndDC21+OoPapdzrZN1y/plpjo6vZISt3jkFt5ueOHqfxpLCcp/m/GHfqc0cG6WCfrdkae/zLiYOzv749t27aZBp6nHOUd6WU+B3duodHP879IarA3K6vLS9rzP78Wm/cMm9P3FVm093/+IJs3zvRREsSlS5cavs6Yx/RTJUM/5cc7qIM/JddldKwoed7cKVKol2Xa0dhi/xNtpce+baoNep1sjxqnqF/dULL9So5plW8fq7HI/oZUl6Od2CalT+LO8Q9n5jKFATXvMGZfMp/4JYaIGZVWmCRemXbUt7pOHUvMV9ijTkdlmafjWceVSuv+ovLsYx3PZvW4K781O6tr0a+d/qv83b7djo71a2FajT+0od5fKk39ys6M23LvQf3n8nHd/nrb3GVP0dM0XhBXJIs5+20orqhuEaLiksCvmnLr5gUXXGgQRBI2EkUeM19P8xyDLv/e+/Nb6FR1KJIXsSsGlCEpDFi5Fql7rc3yTDNP/9UG5ZUOxvZ6HLVHtcvZtun6Jd0SE13dHoos2t9bee3fvx+uBqvVavybiIOiq7qcLc+6+D8k1u1MmVWrVmH27NnGrzZak+eXXSlHeUdyZnqYP3HiRCOYlXWkT/Jcx5/YsHfZkL6vyCK3ROn9r/yXvqj7u8qnb+ppR2Xt/VfJK/9mrMswrdeldNrn63ocyaty9jH1qLrt61X57Ynb0gb7Nsmx+3zOmbnMDEs6HvQ+McOMvYzCgDPyelmmdTy3B38sY9Z++7rccdyandW16O3RbeLM9dmXVbbVbUUZR3XZyzi6XpZVOl1pmyPdktd+fzZwxf8sFvE/i4dahLSsHMyZt8D43yH/Z9iesHZ9aAudqg7mUzfr0NPqvIr1Nih5dY6xXpbptrSR8rouSbfs/+5oj+S0PQ65lVdRURFcDfxpLIkb/9Pkqi5ny7Mu1sm6nS0jcq73tdhQbNjZGKDvK7LIh0Wd3R6pX3zCFQzIXOYZ/IidPWNnV3yhO5YlriItFuQXl8FWWSNBbNCtMZCSnuGQW3mVlJTA1ZCXl2co5xMzV3U5W551kSyybmfLiJzrfS02FBt2Ngbo+4os8mFRZ7dH6hefcAUDMpd5Bj9iZ8/Y2RVf6I5liatIy04UFJehrKpWgtigW2NAkUV7buVVVlYGV0NBQYHx/gL/m+SqLmfLsy6+Z8C6nS0jcq73tdhQbNjZGKDvK7LIjyx0dnukfvEJVzAgc5ln8CN29oydXfGF7ljWwJVlJ/aXlKO8qlaC2KBbYyA1PdMht/IqLCyEq0F/Z9FVXc6W198/cLaMyLne12JDsWFnY4C+r8gi31ns7PZI/eITrmBA5jLP4Efs7Bk7u+IL3bFsE64iYc3bj8KScglig26NgcTkVGPXJnmd7o9eXJ1zNXA76JYtW4wbOFd1OVueN4usk3U7W0bkXO9rsaHYsLMxQN9XZJGfhO/s9kj94hOuYEDmMs/gR+zsGTu74gvdsWwTrrZix45IYzsqt6RKEBt0Vwxs3x7ukFu55dcZ8gnlzvnkuthd7N5bMcDtp/xprP3nnXurPeS6ZSwQDAgGBAOCAcGAYKAjMOB1/PhxuCMcPXrU0PPTTz/BE+HUqVM4ffo0Tp486ZH6PHFNUodnsCN27t52pu9zzOLHbSoqKsT/PTTmit90jN/IXNYxdrXHq9jZM3a2t3tPPxZcCa56EsbN8OzFGy5XQ1ZWFmJjY42n/FVVVfBEOHLkiEEUa2pqPFKfJ65J6vAMdsTO3dvO9H1FFvmBK+nP7t2fvb3/ZC7zDH7Fzp6xc2/zZ8GV4KonYd4Mz17p6elwNahP2fOrUJ76mlVjY6OxosBO8lSdUo98TU0w0PkYoO8rsihfQ+38/hCfcK0PZC5zzX7O4k/s7Bk7O9sfPUVOcCW46ilY5nWY4VnIoht+HdKTgCLXIgNfV8cABzMhi4LTro5TZ9tnNjk7W17knPMFsbNzdhI8tc1Ogqu22Uvw1bXtZYZnIYtCFmVlVjDQrTDAwUzIYteecOSGwPn+MZucxYbO29AZW4md3WtPZ2zeG2QEV4KrnoRzMzwLWRSi0K2IQk9ySrmW9k0yHMyELLbPdoK5rmc3s8lZ+sq9fSV2dq89BZ9N9hRcCa56ki+Y4VnIYo8ii4UoLsxCekwC0tKykFVUhpJSceSe5MhyLU176oUsil/3FF8wm5x7yvV1lesQO8uY0RFYFFwJrjoCV52l0wzPQhZ7FFmMRXqMH9568ClMmeIHv6QygzB2FuikXhlEOwIDHMyELAq2OgJbnaHTbHLujLb05DrFzjJmdAS+BVeCq47AVWfpNMOzx8liUJINb4YUtSuwrDKg2QWp850Rl+RbkRUWiKBFczF78mRMmTwZk2fMxczFgQiNsSIj74xT5eVlIC0jFtEZhS3ynW13SUkhsrJikZCRgdisMhSWUHcGrBlhCJy7CAEBYQjLKkO+kX+mXmf1i5zYrKtigL4vZFHw2VXx2dZ2dcW5rK3X0B3kxc4yZnQETgVXgquOwFVn6TTDs8fIIslM7L5SvLrBhv9ZWHJ2WFCC/1lQgt8tKMbv5v8SPijG7z4oRp85BbhgahomrclGUVExSktLTT/vqhs4IyMDFovF6UB5vXyb0iX5yE2MwIZ/jcPrw+7EoKu8cd213vAeeB+GPDUFC9anITrrjFOlxYciJPhjfLplL7alncl3ts79eXuxM+xjBGwMxZc7y5C9v+06nK1L5MS2XQkDHMyELAomuxImXWmL2eTsik4pe7Z/iJ3PtongxHWbCK5ct6HgsOvY0AzPHiOLJIoPfV2I4euq8VrCCbyWcBwT4pvCq3Hf49WYY3gl+ij+GXUU/9x5BOMjD+PliEa8HN6Ap1YVo8/zX+OFhUFITMkwCKPZBemgmzt3Lry9vZ0OlNfLtymdFYbEVTMw6uYRGPfMXCxaYUHYdgssoWGIXB+G7Vl5SNNW+aIDZuLTf96FF5dEY2l024GSkxaNdVPuwoyZMzFpXRlSc9quo03X16O264qtunPf0/eFLAqGuzOG9bY7M5fp8pJuH/bFzu2zm+CtdbsJrlq3j+Cne9nHDM8eIYvcPsoVRRLFh7Ydxd/iTuFvsSfxaMxPGJP4E9aXnUL0wVOIqjqFqMpTeC/1BEaGH8O6gh/xbvwx3PHFfvz3U754/r0A7I5Pxf7CIqdWFoOCgjBmzBhccskl8PLyMg08TznKtxvYCQGIWjIOg+56HeNnBJ3ZGpqXh5KsLGSVlCCvrAyF1gzEBs7F3DF34sE/XYI/PTgGj45fhNl+oYjKSkaCJQihi2dj5rQpmMytrDNmY3ZAFMIS8prblmEJQtDcMRhz5yW48847MXDEDPjMCEBAWBjiM7YhYO5SBAVZEMv6SPIyLMgKXQy/mdMwg1tjp8zA5NkB8A9LOCMjZLDZvu3GgNjQIzbkYCZksXtNQOJT5v1lNjmLzcxt1h7biJ3da8/29EFPLCO4Elz1JFyb4blDyaLaevrK+hJ4LynDGMsR3LulAZeurMVvQ07gtyE/YuiOH5F/+DRqT5xGyeGf8cMp4IPU47h97WHk1p3C3ISjuHB2Ds5/ou1kkR0YExODBx980JQwkijyPOVc6vDYQOz+/FXc+/xcTF4YhPiENKRn5SG/sKSF3tz0GIS89aBB9H736wvw699dictuegr3jl2EtUlhCF06Ewv+fheG3Hg9vL2vRP+bb8ENoxZj9sp45JaVwVZWZpDNj566Ejf/4QLjui66ehD63jMFU/wWIcSyEM97P4vJk/0RWFoCa1EWsjYsRNDr9+LRm27An67xxrXX34ar7pqEcYtDEVJWZuh16dqFJLXoY7Flx04eHMyELHasjQXDnrOv2eQsfeDePhA7u9eegs8mewquBFc9yRfM8NyhZFFtPX14ZRVGbak3CONvpljwqwnr0Gf5IVy6/gcMDf8B+Y2nsTTvJ4zaedwgjPNSjuP21Q1NZDH+KC6cZcX5j3/U5pVFdmBhYaFBBLly6Gh1kfkkipRzqcMLrciJ24a177yKyc+OweNPTcFbfmEIi81qoddWXAgSRq4MvvnIlXjkzaWYGZCA3UlpyCmKQvK2jdi+ZA0it4TDYlmKtaumY+TwFzHlw4BmYsfVycTNS0HCyPY/uSAKa7anIS0rDLGWhXhRkcWiLFiT/OD3+rN49KYH8PwHK7F4vQXbw3dgxZrNiIhJbiagLl27kMUWfSy27NjJg4OZkMWOtbFg2HP2NZucpQ/c2wdiZ/faU/DZZE/BleCqJ/mCGZ7dThYzsvZh7uJlmDz7E4yZ9jH6PPUR+vp8gYfnrMeoL5LwuH8S7vo8BZevbUCfoBO4a9sPyGs8jfkZP+DOkKPIq/8Z85K/x20r65H73SnMjTuCC97Zh/PaSRZVJ9pvSXXL1lM7ktT8NVR/f8yf7w8/P3/4L/LHUr9AbMuyIkOTt/hPxsJnvfHsQgv8LXQ2ktUYJAT5I2Dy5KbtopPHwGfcwxh4zVCMmLwIflllyPrlvUdrsgWBPt7GVlWfwDIkW6nDgmTLQvgospiXBmvYFMwYPwZ/um8KFoelISGvDCUlJcjKykJe3pmtrcpOEsvA19UxwMFMyKLgtKvj1Nn2mU3OzpYXOed8QezsnJ0ET22zk+CqbfYSfHVte5nh2e1kMSYxFQ+OmoS+Q5/G7+8YgQtuehq/vvsF3DFuJr7cGIUvUyvxevpJ9N/8A/qsPYEhW08gr/FnzN9zAnesP4K8+lN4P+kYbl1Rh9zvTmJO7BFc8LbrZJEAVVtS+dEbt2w91cifvQMU5WYhKcQPfhPH459PvIC3Nu1CqPXM6uVZZNGWh7LcMIQueh2v33szbrphAK7xvgbXXHUVfvv/rsV94+bi/ZgyZBQ2Ac0psmhNhjXQxyCU3j6BsCRbZQWslT6z70M57pqDGgczIYtds2/EZ9reL2aTs9iy7bZszWZiZ/faszVb96ZzgivBVU/Cuxme3U4WCwuLQMK4PiwS7329GX+cYsGdSzLx5q4KzEtvxPtZJ/B62kl4h57AJau/x5Cw75HX8DM+SDuBO4ION5HFxGMYuPy7ZrJ4/oxsl1cW2ZlqSyp/p+GWraetEI9SWwlIGLM2LELwrFG445XPMDMwtpmsnUUWc9NQFjIFM8ePw00P/AsfrAzBest6rF+xABOHDMH414Us9iSHlGtp/wTDwUzIYvvtJ9jrWrYzm5yln9zbT2Jn99pT8NlkT8GV4Kon+YIZnt1OFpXR8vL3Iyo1B+9tKcSoZel4wD8Rw8MbMTz6J9wb+SMuDz6Oi1cew+BNTWQxrvIkvrH+gNrjp/F+wlEMDKhtIosxh3HeW9k47+/te2dRtafj4zyUlGQhK6sEeXl0Hn7YJgsZQTMQ8PpduGncEswISDAni9ZklHEVcPx4XPmUH5YmZCEjz4K00LmYMnAwxo9vB1k02YZaVlKCsl+2oWaVlaGkFdLb8XaTgUZs3DYMcDATstg2mwnGuq69zCZn6TP39pnY2b32FHw22VNwJbjqSb5ghucOI4u68eYt345rX/kav/s0B5cE1qPPuhO4ZNX3uHjFUQxcfxTbSn8yPmbDdxS59XSSpRHXf30IYftP4LXt9ThvWlbXJ4slacjL2o6w9ZEIC7XAYtkOi2UFAuY+g+kjbsbwGauwOOzMx25il06D35jrMWLat5jND9zsjETOugmYNuVVXD9yPuat3Yz1oX5Yt/B5jPEeiDE+LclibuouhEy6GVNe9cHIBVFY24YP3FjCI2BZsx4RMfHYWVaG/UIWm0m8jltJd81JgIOZkMWu2TfiM23vF7PJWWzZdlu2ZjOxs3vt2Zqte9M5wZXgqifh3QzPHiGLGdZ8LNuaYBDG/3o3FpesOY6LA4/hNwFH8NtvG3HT6kbj66e3BdYb20//6FeN//qwEgM+O4jLfCtx3r/3dn2ymBWNtPULMOWpIbhvoDe8va+Ft/dVuOnOYRg+7l9YHJGImPwzv9Eo3LYYEdOG4OE/XY/r+OuM0fOwducCLJ79BJ684Q+4vn8/XDNwKP40bDgeHPZnjJnZkizashOR++UozH5iIG64ehD6t+HXGd7X3wTvu0Zg3OIArCsrQ46QRSGL3QgDHMyELMoE3VMmaLPJuadcX1e5DrGzjBkdgUXBleCqI3DVWTrN8OwRssiLJmHkCuOw98Pwq6nh+NW/tuP/e2Mb/nPSVvzn61vwH6+F4cJXw3DBK5tx/vhNOP/lUJzvsxHnvbgR541ZjfOGz2nXrzM8ZvC8DFhjQhG4eCbmzphsfFRmMr9qOncRFgeGIcaajzz9hjzDgqzQxfCbOQ0zZizCbL8NiMqKgCXMHwGzJ2PGlMmYPGMups33w2K/+QgIC0NYVhnyf/kaalmhFWWxgQjzn4vZU2ZgyuwAQyY+YxsC5i5FUJAFsXxPk3XqdU2ejMlTpmHy7MXwD9Nk9LZJWshjF8YABzMhizJBe2xs72BfMJuce8r1dZXrEDvLmNERWBRcCa46AledpdMMzx4ji+rCSRgHjPkQ/UZ9gGtGti1M9F2N3fGp2F9YBLMLUvVILA4sGOiZGKDvC1nsmX3bG31W5jLPYFns7Bk79zYfFlwJrnoS5s3w7HGyyBXG7bHpWBG6E98ER7QprN8aLWSxg59y9yTQy7X0zEGcg5mQxZ7Zt73RZ80m595oi468ZrGzjBkdgS/BleCqI3DVWTrN8OxxskgDlJTYkJWdgz2Z+9ocWI7lzS6oswws9cqAIRjwDAbo+0IWPWNrwXTH21nmso63MXEsdvaMnXvbmCG4Elz1JMyb4blTyKI7DGt2Qe7QLTrE+QUDXRcD9H0hi123f8R32tY3Mpe1zV7txZfY2TN2bm//dNdygivBVXfFrqN2m+FZyKJs65SPuQgGuhUGOJgJWZQJ2tFE1x3zzCbn7ngtXbnNYmcZMzoCn4IrwVVH4KqzdJrhWciiEIVuRRQ6y4Gk3q4zIXAwE7LYdfpDfMO1vjCbnMWurtnV3n5iZ/fa096+ve24oqICdXV1OHHiBE6dOoUjR44YW52JMwlig+6KAR3P1dXVzfzAKycnB66GrKwsxMbGIjs7G1VVVR4JdMyTJ0+ipqbGI/V56rqkHs/gR+zcfe1M31dksaCgQPzfQ2Ou+EzH+IzMZR1jV3u8ip09Y2d7u/fUY9578h70p5On8P2JHySIDXoMBk788CN+Pn3aeACi/NeLN13uCEePHjX0/PTTT/BE4JOc06dPNzmrh+r0xHVJHZ7Bj9i5+9qZvq/IIp/uSl92376UvvvJWJWQuazjMSz3DB1v497kzySK9NuqmnrsySmRIDboMRjIKaoACSPHTOXTXmVVtXA12A5UG/8+PHDggMeW37lU+vPPPxs3jceOHUNHh++//97YbsB6JYgNBAOdhwFO0ooslpeXiz/KmNShGCgpKUF8fLzbw549e9DQ0GA88OSkzJWv7rp1qTu0m2M2b+5//PHHDsWLzA2dNzd40vbEEfHE++fkPXtQlLYWZanLJIgNujUGstMjDdLL1XLeaymf8orbkwdXw+7kLGwLj0BKSkrz/taO3r/OyYkXwj3j3A7Q0aG2ttaY2LvDpChtlP3yPRkDHLwUWeSNfE++Vrm2zvNlzi18GBEeHo6PP/7Y7WHp0qXgKxwkjHx6y+0+HT1v9mb99CUh5Z3nTz1tLOPDHeKJZHFPejy+T5kGJPtIEBt0awzwgQdXykkWea+l/FbIopNEU8iiTDLKaSTuXCwIWexc+/cW/JMoBgUF4dtvv8Xy5cvdHgICAkDCyBVGIYsd//EV4lbIoowd7hq/hCwKMe6JDweELDpJCs1WKIUsyiTjrklG9LiGJSGLrtlP8Oec/Ww2G7755ht8+eWX2LhxI9LS0oyPuPFDbq6GnTt3IjAwEJ988omxvVXIopBF8Uvn/LKr2EnIopBFIYtt3Joq21C71yDXVQZbaYfgpj0YELIouGkPbtpaRpHFr7/+GhEREcZ20eMnfkb94VNGaDh8CkY4cgqNKhw9hcNHT+EIw7GmcPjIT6itO4xj3x833rPnu/ZWqxWrVq0SsujBX1ex/2VlUcaOto4DZvJCFoUsClkUsnjWO5CysiiTjNmkIfmexYaQRc/au7fiW5FFbhWNjIwE54Ds/GMIiWg0QuiORmyyNCJs12FsjT6MbTGNCI87jMj4w4hKPIzopMPYnXwYlpiD+HaNBUlp1uaPBXBlcu3atVi8eLGsLHqIMBLHQhZl7HDXeCZkUciikEUhi0IWu+yPZYtQXhSDEN+12Lo1GZmNjTjUZdsqE7O7JmZdT9cmi4JPva+6c1qRxWXLlsFisRgfoEnKaEBgaD22RB/DjvjvYUn4HruSj2N32nHEZXyPxL3HkZJ9HHusx5GZexz78k8geU81Fn8VitBtMbCVHUB9fYPxYZvg4GAhix4iivywD7F4TrJYW45qWyZSdu/Crl2J2J1SAFt1LWpbnWPq0NhYimKrFRkxWdhfVYODrcrLvNCdxwXVdiGLQhaFLHYgWczIL8XOvbZ2BZZVX3Ojw/bmr6E2NNSjpqYSVYcOobKmEfUNHTMB1dUdQvWhAiQ33gAAIABJREFUShw4VI9DdayjHo2NlSgvysG+5GSkJicjmSElFcl79iHHVo7KxkbUd9hkmYycZD9MGDAa06cvR0hjI8o7rK6OsamabCRun31bJ4uCT8FV+3BlbzdFFvmBG75jyA/eJKR/h7XbGpFqPQlr8c/Itf2M/NLTKDpwGqXVP6OiBjj43WnU1J9G/WHg6PdARVUD/L/dhMCg7UhOz0ZlZRUyMzOxYcMGfPrpp86tLJbkozg3DemJUYiJssCycxcsuxORkGFFVlEZSkpbeefPlbIeJHNqbu+omP17LrJYX5GFktQNCPT/HH7+67B8Uwr2VVSjutU5pgaNjVlIjYjAer8wJBRXoLhVeffg0x6vcuxZuzpDFk/GjUPd5qdhC3oS1jVtCEFPo2Dzc/gu7gX8kDwOP8WOxsENo1ATPgZHk33wc/MXR18Ekp/H4fB/oHLDc6iP1eWfQqFdnTlBT2P/1udRF81yQvbEBmdjoMt84Gbe9mIM+KigXYFl1UTCgbE3k0USRat1B6IyM7HD2mgQxo6YLGx8ypq5A1syK5Fp42BcicbGHQjxnYCxAwbg1gEDMIDhxlsx4IGxmLAsBDsaGw3C2BHtaWwUstgxdvXsROvKNbROFgWfrthWyp7xA0UW+SXUqKgo8Dg+rQbB4Y1Iz/3pDFGsAGyVp1F+6GdU/UIUGw4DR44Dx38ADhxsIovL125DQkomSsvKkZGRYXw0x2mymBWG9A1T8NaoQXhwkDe8b7gZ3veOwlNzA+GXVGYQRjU3nhW7UraXkcXqvATs2xmI5ZsTEJG0H6UV1aipqz/Hw08hi71x3HCGLJIorh1xJcbedBFu6NuGcNOVuH/EICzf/ByKkp/GwQ0PYOE9t+DzqQ8jPtnHIIxNROd5IPl/ETF1CGbeMwgbNij5YVh4z+/xmF2dt9z8RzwyfjjWfjtayKKQZYcY6HSyyFVBkr1RwRW4b21Nc/jLmhoYYdUh3Luy2gjDAqsxbMVBDAs4iHu+rcLtfoX4r1e34J9fRCErOwclJTZjS8m5yGJMajW+XF+FL4Ir4R9UAf915fhsjQ1+q0qwItSGwpLqs7abdpevoVbZchC1bAL8ly+Hb1QjiqrO3OS4c+DOjlqOYL8JmBOSg63ZrKMcjY0hWD7dB4/3uR2P+0yAz/TpmPrGRIx/5q8YNX0OJoRkIqf8UPP/WdzZHiGLHdPP7u2jjm1j62RR8Nmd+rIrt1WRxRUrVmD37t0oKipCXGo1NuxoREb+SaxYl4F33w9FenY91oVk4I0pAfjXvwMwdVoApr8VgBlvB2CHJbOZLAas2YLYxHQUFZcYZHHz5s1YsmTJOVYWC1FWFgtLwAwsHDMMz455BmPGj8frr7+KceOewKNjJuOxKYFYnWZFxlnEzpWyraxUnlVP95Al1s61slieuQtpYV9hdVQeEgtqnZzDhCx2ZT/uqLY5QxaPRf4DqXOGIOC1gZg95k+Y/fBvce/Ay3Dpn/vh1ZE3YbbP9XjjySsx+KJLcO/Aq/EPn1sw3ecGvPro1Xjq3mvw1LThCF77KMrX3I03+/bHbJ/7EJHsg8PNRGcMkPwIgn0G4sW+f8LSNSNhTX4S5WuG4M2+l+EpQ+dATPcZiNk+AzH3tcH49OMRSA0d65AoyErb2Sttvc0mnUoWSRSXx9tw2+cleGBDHSZl/oxJGacwac9JTMk4iY/zTuGzvJPwy/kJS6w/YlbqCUyOPY4P047jnbhjeHp1MS59dhGefy8Au+NTsb+wyCmySKL41wnluP8VG+4bX4R7XyrAPeOsuGvMXjz1rywk7ilD1cGDThHGrvSBm0PlRdi3cw0+f64vfHx8MPLTNGyOzUe+rQqH6mtxqHI/inIysCc5GSncIpqWgXTrfpTU1P7yfl8DGhtrUGXLR/6eZKSlNMmk7duP/MpaVNU1or72ECr3Z2Crrw9mPNYXj81Yg3nB2dhjzcaBmmAsmz4dowdMgF9yDpL53mBRBjJ9hxvtGTAhBMk5vGlvRGNDHRprbCgvysa+PclIdVBX82BeV4Xaynzs35eGjLQzW1uzi8phq2lEnbHVVlYWm+3VS7c6OUcWBZ+9HSeuXr8iiytXrkRMTAwKCgoQm1KFjZGHsXf/SYMoPvjQDMQlV2DeglAMGDAWA64bi+uuH4vrfwmfLgltJovfrg7D7rgUFBTsN/6tuGXLlnOTRVs2ynK/xOLXH8MDV9+MkQtWISA2C0W5aUgKmYJXRzyG/teNwtSwRGwrtCNtrpTtpoTwrFVV7TqIBzOy2FBfh9rKUlhjQrFj1WKs2rEHUVnlsFVUorqiDBWlNhQXFxvBVl6Jiuo61NVzHuWDMUdksR71dTWorihFua0YxSUlKC4tR3lVDao5v/7y2ghfJ6mrrURVRSlKi4tRwjpspU311tWjrpeO8a76rifKO0MWWxCNXSOBxX8ySNsNIx+BNYxEj8ROJ4Iv4HDysyj66HZ89bc/4soH78LseffbyThDFnWduryQoRZ90ky6xS7KLp1KFrmiSKI4ducRPBr9I66LOIXrtp/EgK0/4uGon5Dy3c84dOJ0Uzh+Gu+nnsBfQo4gqeok5iQcw+8W5OE//s+3HWSxEg9OsOH+fzYRxbtfyMGQ5/fijlHp+N8JqdgYnomC/cXdjixmhvgaRPHWyy9Enz59cPE1g9HvvrfxzrIoZFbuR+aO9+A7YTgeGDAAN3KL6ODhGPbye/jCut/4IEzT5GZF1LJ38PYDAzD4xiaZwWPfw9sR+xFlazSI4o73hsNnaB9c9psL8ZvL+uIPA0fhgZc/wRbrMnziLFmssaHRugwhvqMw9oEBuNVBXc0Duy0K+yPexntjB2P44DNbW0f5hmCZtdEgjLKy2LGrds190YVvUtxKFgWfTq6e9D7cKbLIX1zExcUhNzcXu5MqEbrzMLKLTiJ1Xz1ikw/AduBHWAsaEJ9sQ3K6DemZNmRm2ZCVZUPFgQaUVzbg8283YenKzdi1OxE5uXkGWdy+fTv8/PxaX1nMTUVZyCRMG/cc+t/zL3y8PRHxhSUoteWhKDcMS2eMwuhBN2Pkol1YGmtHFl0pq5Gs1ghYdzrHsc2MLJIo5u4MROjShfho/lzM/2gxfAOCsSxsJ5LC1iEs8Bujr9hf3wTvwKaUCoMwNo2XjshiNaor9iFl03IEf+MHv8+/hN/yDQiOyUJKRaNBGFmWRLEidydiwgKx3M8Pn/v5we+bQCzbtBNJFZUo7cLjcHeYKzqyjR1DFl/E4eQX8MOKe5H8Rj8M+NvdQhaF0Hl0FbhTyKLaejpybTnuDazGfWtqMMAvB7+Zn4JL1zbi0g0/YGjEj8g/fBpxB09had5PqD1xGh+kHsftaxqRW3cKcxOO4sJ3rTj/iY/aTBa/CKr4hSjmg0TxruezcMdz6bjtmSQ8Mj4B6zanIidvf7cji0XJW40VPxK5oUOH4vZRczBhTjCCt25FWvJKLJw+DhN9fDB+/HRMnTodEyf6wIfBfyuCk4vQeMiGxsxl8J/jg/v/+leMnjgRE6fPwbsLl+GrNBuSqxrB1UuSUl+foXjkpj646REfPD7RHwuXbUaabSX8TbahPj5xDkYty0S2jdtQi1CevxUh7/hgzkQfjOd21elsz0SM85mIJ3384RvML5oewqHGTCQH+8J//DOYOPUNTKTs1KkYP348RvnMgc87IdiaX44ieWex19/cO0cWHW+TFnz2PtLX3htGRRZXr16NhIQE49+IuxMrsHnXYVhLTmJtSCbeXxBqEMXQLZn49/QATJ8RgLffCcDMWU0hYkcmbBVNZPGbwE2IjIpH9j4r0tPTjX83npMsWpNRFuiDyePH45qn/LA+IQt5BpErQVlZFsIWjceMh70x4gML/C12ZNGVsr2MLNbVVKE0KwYxG5ci0H8h/ANDsToiBruSkpBpsSAxIgIREdsQERGE4NAtWBuWguyK6l++euqALB7MR3m2BcFrA7E6OBibInZge0Q0YjLzkVXdiJr6RjTWlqOqOB0xESHYEroRmzZFYPv2CGzZshGhWzciNNGKzOKDvX68b6//dnS5jiOLo1Hjfw92jr8OI998FAHfum8b6vxJQ7Dym3/AGi4raWolTeKWWPAYWSwsLEJMYiosuxOwNCweV78VjUGL0jF63X7c6JuLK6Zsx2WT1+G3y6txafAPuGv7D8hrPI35GT/gzo3HkNfwM+alfI/bVzU0kcX4I7hgphXnPd52ssh3FLn19O4XrLjr+b248xeieMuTsXjYJwbrNqd0S7LIQbA8JxkhEwZg+vTpmBDSiJzyRjQWbMaeNa/ggaHD8aTPPCzekIydsckIXzMPi99+Anc++RHmLUtATWU+Gna8gznvTsDNr8xDQGoOcgqKUGO1wlpTA5v2NDN5+XT4jR6A0X7JWJ7MG031TtgzeOjCi9Gvbz/0HTAA/a+/Cdfc+ggemb4MH8TVoPBgAxoPxWBf9PsYe8ujGD/Rv3l10JYZhe1+7+GpASMw4e1lWFddirIDgfhq+nj8/cZRmL0x21jdrKm0wbpjGeaNnoC/DXwJH8ZbkVAn21A7ehLs6vqdI4uCz67ej129fYos8n+IiYmJxu8uouNLsSWqEfmlJw2i+Mjwt5GaeQAfLgpt3nrKLajcinrddWPx0aJQFJU24LNlm/D1io0It+xGRuZegyzy342fffZZ6yuLivBNngxvn0BYkq3NH3njqp7FfzIWPuuNZxe2QhbbU7aXkUWFxeLUCCSsJykvRmpxFb47VIiS9H0oyspDcXE+iovjELV9E9YEhCKmuAJFJH2OtqGWZsKWGopvNmzFpqQsFFbX4rvyclRXV6OCK4qcYyuzUbpnM5YvDcTa0CjE7S1GfmExcjKiEBe5Bl+vjUFUSpEh26DNyaqtEnfugy/3kcWheLNvX7zx5B34as0TSF7zELZOHYTPn7oFn38zCqmR9ltV9W2lZu8sDsabfX+DwRf9Clf2vQgDfvnQzR23XYmXZz2NiA0tCYIQJrGHwoDHyCKJ4oOjJsF72EhcNfRZXHjzM/j10HEYOPodfLBiB+ZG5OMfO2pwTcj36LPuBO7a+gtZ3PMD7thwFHn1P2Ne0ve4NbAeud+dwpy4I7jg7X3tIov8mM09BlHMMoji7c8kYeCTsbjp77vw4NidWLspuWeRxbSVSPEdjhv7/h4X9fkDLr9mALz7D8C1ff+Ay6+4Cr+64TVM+CQc1voq1FRGIfireXhl7ATM/tYCS1oRGmpqUNPQ0OI9CXOy+AZG9h2Jd9ZsxprkZMRGbMWGGT54d/onmPyFFbklNWjMXIvUb17CrSPex1T/qOb3DusOVWF/cjSWjv4b5i38BEtS8lC85d94d/pU3Pz8MuzYYzPem+R7JCSMFr95+HDU3/FeeCbCbUIWe/tNgnNkUfDZ23Hi6vUrsrhu3Trj90CpqamwxBRh++7DKKw4hZyCeqRnHsChuh9hK29A5l4bsrNt2Jttw569NqSk27C/pAGFtiay+MW367F5ayQSEpOQkpKCXbt2CVn0ICklHsy2oSqs2JPFmgP7YA0PxqaAr+DntwR+fh/D96NP8YnfaoRllSG32oQs1pWjsiQdkZtCsd0Sj8RcEsVa1Nc3vYdokD9bOkpiAvH5Yl8sWOiLjxf7YckSP3y62BeLPv4E8z4LQ1hc7hlyKYSxS62yuo8s6sTuNxjQ978xaKA3Rj/7APaEjMaxhPaQRZ2APonkX36hkRf8NEp3jMPhWCFHihxJ3BILHiOLGVn7MHfxMoyftgCP/XMOLvq/hbjmn19ixCeb8PGuPHy8px6vp52E96YfcMma4xiy5TjyGn/G/PQTuCP4CPLqT+H9xGO4dUUdcr87iTmxR3D+jOx2kcWFX+7BgAc3of/9G3HtXzbgmmFBuPrutbhqyCoMeTwIqzfE9yyymLwcyb6PY8DQxzH0cR9j1ZErj0Z4ew6mLwxGcFQ2bI11qGu0ITs5CltXrsXWzTHYGrwVW4NDsDW7HNnal1XNyWLLD4jUVRXBFuUL/zm+GD8hBPE55ahie/xGY8BoP0xfntxioC/PyUDIhOHw9fWFb0wOitZOMNrZ4uM4v0yOyct98ZXPcLy7NQNbi4Qsqhub3ho7RxYFn70VH+66bkUWg4ODQaKoyGJ4zGHYKk+BW099F4WitLwBEZGZeGdmAGb9sv307ZkBeOvtAGzamon84gb4Ld2EZrKYkGToio6Oxueff+7cyqJsQ22xotqedyWJizaRRWs+KrJ3ImxtMIKDQ7EpYju2R2xC8IoVWPHFSmzJLIXVmCsdbENtrEVtTTkKsjJhzbTCmr0f1vQMWPOLUVDdiFquSBanojhmNfyWrsbS1aHGtuQIY7trBCIidyFidyYyC8qNfzx23H+LO3d1zl2+2hl63EcWtS+XjrsR05++HE8NuRoP3HUb1nw7Crbd7SGL8oEbIYEtSaCz9vAYWVSDOH9xsTYyHfd9nofhq0rxWnQNJqb+gInpJzEm4SdcE3ICl6w6hiGbvze2nn5j/QHPhh9FcePPeD/xKAYu/66JLMYcxvlvtY8sLv46Drc/vBS3PPAlbr7/CyPcdN8XuOkvX+DhZ5Zj3cbYnkUW9ZU8PwtslTVNX2yrO4T6Q5WoPFSPQ3WcHJq+hlpXx5W7GjTssyL8E1+8/YIPJgZlICSnrpnYOUsWG+pLUVMZCP958zByuC/CMopQpLdHVhabbdoZE1tPqrM9ZFHwKTeFbfUBRRbXr19vfJBmz5492BVbjIjYwyg/eNLYYvq3/30bufkHsMSvaRuq2n7KL6P2HzAWHywMhbWw3iCLXwZswJbtO5GUnGLo4xdWz0kWXflIjStlPbjip+4ZOjpm/7eJLKalojg2CH4B4dgYl4vShu9QV1eI7Kht2LZsJcL3tkYW69HQUIe6ugbUV1XjYG4u4kM3YHtUEnYW1qHyuwY0lmagJCUUX66Nwvb4PFTX1qG+oQGN9XVoqKtFbV0D6oxtruK7bfVdT8i7jyxqxC5uNA5v/gtWPu+N/+1/BV6a/QS2hf4fDqwdhune12D6mHuwJvIF1CW8aHz05HTCaPwY+RcEjLkJI71vQsDakcg/6wur+rbV9hEIZ4mGyHV/+3qcLPJfiDkFxYjJtuFV/3D84bUVuHZ1NfqH/YhrNv6A3645josDj2FwaNN7irXHTxtE8YdTMD5qM/DbGuTWnsR7MYdx3vQsnPf3tr+zmL+/HLvjcxEUmoCVwbtbBBJFS3QPe2dRf0dw9Dws22E1CGOjLROVmTuwI7MSmTZOPHwSajV+Mm3d12AQxoRlvlgwcjj++s5W+Fma/mPJAddZslhTmQfrjn9j4oQJ+PNwXwSRLOrtkXcWhSy6aRtVe8ii4FNuONt6A6nIYkhICDIzM42wO94GS9xhVNachK28Hrl5B3Ds+E84WN2ArGwbMjJtSE23ITHFhrjEEmTn1SO7oA5Llm7ClwEh2Bq+C6mp6Yau+Ph4+Pv7t76y6MrvL1wpK2QRqSSL8evhFxSLjSlFKK2rRl1FItLDgrB+yUpsy2iNLFajrq4CFRV1qK6qx6GyEmRsXoVNYRasS6xAWXUdGuv2o7wgChu+WIlNG6KQklthEMbG6lLUluYit7QWpcY2V/HdtvquJ+Q7hCwmvYjDcaNR+NEgLH3y97hlxDB8+PHfUL3+AXxy58UY/fCNGDv3WdgiXzDI4o+Rz6BsrjemPtwPN955J0LWP4cqIYse/XpoTyPIHieL+lPC4MgkjPskFFfMDMdvFufjkrXHcfHKY7ho+RH0W3UEb8Z+b3zUhu8qcgvqg2u/wx+XHMTr4Q24f0UNzpvWPrJYU1Nj/EeRv8fgV08dBVtpebf7GioHQvVfwzk+j+Ovo+ZgIr+GGhWF7JxNCJ7wJKY//jieeWY83nhjqrG98+15vlhoKUJUUSMa68rRaAvB1mDf5q2qPqNG4cnHn8G45TEIzq5qJjZFW32x6Y3b8eQzEzCqta+hTn0D48c/A35t8hnfKMQUVaFKvobabEdPTF69pQ7nyKLd11AFn4LFNj6sUGRx48aNyM7ONkJcUimiEg/jUN0p8EunS5aEGkQxKirT2IL6zjsBeGtGAKa9FYCp0wIQvDEDmXn1WPLNJny1fCO274hG+p4MQxc/mnNOslhWiLKyWFgCZmDhmGF4dswzGDN+PF5//VWMG/cEHh0zGY9NCcTqNCsyyjJgzQhF4NyZ8PcPQmBsIayFzpa1+5KqkEWkWq0oz96G4LVBWK1tQ924egXWBazEttZWFmuLUWVLQsxui7G9dNuWLQhasQLBETGILKhGZW09GhsPoqYiG1lhaxGxejWCgjZh27bthnxkVAx251WhQHslpLeM793lOjuELCY3rQIeC30IKXNuwKO334LZUx9CVvj/IW7qDZj95LV49OEbMHXMLcb/Gt8ZcyMmPnw5nn9yICZO/Tv2ho/FMYMsaltbfQZius9AQ372q3di9uzHEL32H0Ko5JccDjHQqWSRxDE2LRsPT/0Kl7+9Hb/xL8Wvl9jw358U4798i/D/FuzHr+YV4D/n5uE/3svFBbOsxkdtzueKIonixFic978L2vzrDJJFd4Xa2lo0cItIG284Oky+cj8ad7yHZfyf4o2DceMDTf9ZtFbuR43K1/6zqP9DsfGXf8st8x2FBx4YgBt/+fdhy38x/vI0MzME1i/G4uVht2LwYP5ncQm2WNf9/+ydeVhUR9q3548s3/vNN5PNWTIzyUxciU400VeNiYmaaDQ6URN3jDsJE4lGnZDgkqgQEkkw0RBxiUTFKIIQFVFAtBEUbLZugWYRGhoau4VmGtp99/6uamwDLtgoW0N5XXV125xT55yqXz1V93mqniLA142pTk70EPs4itS1B04Dp1JzT0QLtmvV3z6LavJUgSwd+gm+vmFEWywYmkudyPtolPZROywasFiiCZP6bJS6aDD71gzakg0Wd+zYQVZWljUlJhcTn3QSc+UVVn6/g+HDF3LsWNU0VKdnp2Kbftqx01Q6dpzKUu8dpGVVsPJHEQ11B1H741AfTbfmpVQqWb16de2eRRu0pYeTGvox8517MahXRzp2eZ6O/Z0Z4xWI35Fi0rUC9uJJjfuW+YNexsXFi/lhxaRmF1Ns17kSFoWWxfYZqZGBRKYWkV5URGnJEZJ2BtTYKzEwJISI6J3E5pZY1x9aLOVYLNmkx8URGbif1CIDRaXHKMnex86wH/mx2j6L4UnpZFsslNv0XW7Akr2fpJv2WfwxbD/7sg3X85eexeZoZ+oMi7ETYV0vVrm/xPAP3yJ/zxRQjuVE6EB8Xn2BVe5DOKx04bQVYm76/dAUTu96iyj353j/xcfo3fExuogIpx3/QJcXnZgnzt3lwulDYhqkOLcfPq/+heHXo6BajxXfu/yFLiP7sWrl2NuCQkvzksnnqfu02CaHxfyCQiswTvt2Bw+N+bYqjV7OQ6NE8uXBd3x58O3raeQ31oA2YuqpNb21jAcGL5KwaOtgxGdFORZDHrosFWlJKSSl5ZKrM2KqKKfS9rtSSZJSiTJFRUpmHrmGcmuUUUul2QpxOm0GaWlKkpKqjknV5FFoKqes+nXK9JgKM9GkJpOSkkGapoDjpmJ02iwylUqSRf4iJSWjTMskQ6u/EfXUauCvX0uvzSAzTUny9WvVuB/b9cxGyg255GWmoEq5U55llJcVkafKQavVW0FRLv5vXYOJ2mFRvLE3oJf6lLBosyv3+GmDxV27dpGbm2tNSWklJKSexHLqitWjmJd/nNNnL1FcUsGR5EISjuiIS9ChiNexL1ZHkrqCpAwzK9btpPo+iyK/lJQU+2GxMJeC7BRSExXEKWKI2X+AmIOJJKg0VlAsLBKwl09B/lFS42JRKlVWUCzQFVNs17kSFkV/JfZbLDtexPEyMyazmQpzKaUlOvS6AgoKCyko0lOk13PcUIKx3FwVqMYaA6Ack9HI8SIDZeYKzBXlmMsNlOh16KqdW1JqsoLija0wKiuwlBsoLSmiqKCAwoICCnRF6PQGq/fRGgjnHvXbHAGrJd1TnWExcTrETsQU+a4VFC8cFusOp3EpfhInQp0xRU62guJVKyze9PuRGVw9NIWTkRMo2j6KnKBRaESE06DRaLaPRy/OPeTC1SMCDmznjiH/ehRU67Hi+7YxaHZOwnRgmoRF6Vm8rQaaHBZt01LFlNSPVmxn+hebrPA3ZekGuz99N4Zz8HAyefla60Do8uXLWIO01KMH8U6eyGbnWZQdiBwMt1IN1A6LrQucW9Lgq7k9iw0Ww8PDyc/Pt6bUowaU6pOcOnOFq9fg8lU4fxFOnQXzyWuYzNcwmK5RZLyGVn+NXN01jhytgsX1m3dx4GAiWdk51rxEwJw1a9bY51m0eRjl5z1HRRX6uluAm+amQXk/zdee1xkWJZzcFk6k96/u3r+GLLNmA4sCGrXaAhKTVFbwE/BXlyTOE+cLIyphsfkaUtnJybppKA1IWJTaaihtVc/XBosREREUFhZaU2KygcjYCvIKz1N8XOyveJE83UWy8y+SmXsRddYFUjIucER9gUMpFziYfIHdChNfroxk3aZIYuOV5OQes+Z19OhRCYuNCL+ibiUsSttRvY3fz3cJi80LchoSoFpT3kb1JrK0JZw5d55z587dcMr85lBaDvebDirT2RMZZd1o2OZBrO2zqKjICnzCQ1jXJEBRnC8auYRFafjvx9jLcx1TPxIWHbPeHK292WBxz5491j5H9DtbQ4uYtaCIj5cU4+6px32pno+X6vnPEj3zFleluZ/rmfN5MR99premDxfomDE3i+X+KRw8lERentaanwiaIz2LjTf9VehPwqK0HfVlhyQsSlhsiRB5SfeLFRRPnz7NyZMnmxYWawNJe/8mGryERWn468vwy3wcR0sSFh2nrhy5XdlgMTIykpISsQ1CCfEJegJ+1vHdmix8V2X+ljK2AAAgAElEQVTUKf28PY1DiakUFOqseWk0GtauXSunoTaSd1FoUcKitB31ZZMkLEpYbCmwaElaiph+ak25hykymMgvMli38hHeRQGNTeJZtBcIaztONHgJi9Lw15fhl/k4jpYkLDpOXTlyu9Lr9QQHBxMdHU1OTs6NlJ6eQYwinj3RijoncZ44X+SXmprKli1bEGsXL126hNFovOf1eLX1lfJvVd5LoUUJi9J21JdNkrAoYbGlwKKAxNvNMC02lt+wmRIW7QyOIwPcyE6mvjoZmc/9aUnC4v2Vn9SffeUngqcJYNy/f7/VAyi8gCKtWbOWH35YhZ9f3ZM4T5wv8hGgmJmZad2SScJiw09HFbqXsGif9qWNuHs5SViUsNiqYFGQ4/0m3fFS69rD48eP35jf2tDGRgwYr169al2AeebMGRo6nT17FnFNmWQZSA00rQbEjAIxNULsfScG87I+mrY+Wnr5i+A2hw8frvckPIpi716hZwkxdx+c3++YQuj02rVrXLx4UdoMOZa5bw0IHQk9ifGzMi0NbUrQr1P5bFP65Kcsk2asARHMRqxRLM49fEfPos1m/kYMuuojicWQIh/xhrQxkuhcxUOIT9HZNnQS15FJloHUQNNrQLR7GyyKF1SyTpq+TmQd3HsdCD2LJPqwxug7W+s1hEbFP/GSWer13vUqy66q7ISOxD+jqYK0rEKZZBk4nAay8nWctxynuLjwjrBos5m/EW/n7zelp6cTHx+PiO4m1l00RrJNARBvG8V0oYZOFRUViGvKJMtAaqBpNSDe6NpgUQQhkfXRtPUhy//+yl/oWYCi2OO3MfrO1noNoVMxwBezhKRm70+zsvxOWXUk9HTp8hXOnr8gkywDh9OAAMWrOX4Uq0PuCIs2m/kbscj+fpNSqWTv3r12b51RHwvuBSSKDlZAouhkGzrJNYsNP03ofqcZyfNbRx2J6WQ2WBRTBGW9t456b6n1LPQsvH0C4uqjb5R53H79o9CP8IoJ0GmpWpLP1Xi2UESIFP2QGIdy6RSUxkLJLplkGTiOBnQ/Q9pcLDlBt12OaDl19obNlLBoJ2hKWGw8Iyw7PFnWtWlAwqLUR236cLS/SVi8PdzVN/QKXUhYlLajvu2DaL+cM0D657SUgCfyOVpZ8B4BjULDIokXH9Wm64sXmeIFm4RFCYvyLatFdqD13YE2ZH4SFqVeG1JfjZ23hEUJi42tOXm9+rOhEhZbGVgpW+Dzps2tetkhXniUxt4yXV/YCwmLEhYlLEpYdCgNSFisv4GOHDQ2fVlKWJSwKNth07fDe60DCYstEJ5aIhDa+0wlu247A0PCooRFhwKFezXo8jzH7YxvrjsJiy2nLm+u29b4fwmLEhZbo+5byjNLWJSw2KKm7UpYvL8gOHLNohygtpTOzdGfQ8KibIuOruHq9y9hUcJidT3I745l3yQsSliUsGhnpNS6REMNPqJjXpj2npI417boXRjU1hwN1WwuQ6dTk6HVotZZKDM3jIE1GrUc06pJ0ZahNYprlGGxqFFGbGSthweLPTzwEGnhYjx81rJRoURtsVBm59TOW/NvmOeQHXDLKdfaYVHqU2rdsbRuLywW5mtIjw8k2N+Lrz7zwm+HihiVHaCVk4AmbgOBKxbgtWAOcz7+lDlLVrA8OIbw9GJyC+3Io9jxjxHtwp4ANxVmE6VF6WhS4jikiCMpx0jBiTtoqlyPqUhNuvIAcQeiiIpREHUkB03BiZozdswmLEXpFBQUkF5kxmQuqvqeXoTJZK557M157osh6uAREjUFHCu1UF5xh3uxs8+V9qF+y89eWLwcPxlz6BBivV9i7UcvsfXHd9FE3gG0Do7jZOhgopb0YtWH3Vky80WWLBlObNC7NYPoxE+G0CFoto4iKnQaJ+PHogkaRdTKsZw8MK3msTfn6dqTJfP6s8F/FMn7XDiTcP1eEqbCvhFo/F9l87zufOXanSUfvsTXS4awJ3QyuoN3uGd7pznK42rWS3Mrj6b2LOYXFhOfWcTMUB1/9im8NS0r5M/LCvnTsgL+9NX19GUBf/qygDaex3jIPYWPtmag1RZQVFRkNa53g0WtrgxVVhkqTen1dIK0TKM1pWcbMRjL7N5yo7l5FkuNhSQpVhMSE0NgkoWi0vo1gLYO5VhGDNF7V7MutpC4Y+IaeiyWMDZ6jGPww4/Tvm172jo50alzV9r1GMgob39W5xkoLK+o2QHeoSO7Nf+GeQ7b88hPxy/f2mFR6lNq3LE0bg8sFuamk3F4J7vWfcCs4f+kd/uODF4cg39MbRAnXq5mo1GsZfc3o5j6Zmde7NaODs/+k3/0GkS/mT7MC0rlYFYB+S0ABm0vku/0KdrF3WCxoryU0uIcctMi2Bvkz4/f+7E5toDkgps0VVmBxVxKqS6VHGUo4VtWEbBmJX5rAvALPUJcetUYxdYWK8tKKE/dYd1eLCKzjOOlKpKTUwiP0FBy3HS9r6zEYinHpEvlWEIwO7asYv2alXz/gz8rfgxkw57DRGcaKDJVYL5Df2q7nvy8qb4asLzsgcXLsZOo+GU4Sp9uLBr0BK/+4zFGzhlFyNabwOvIDDg0CXPwQBKXdGLea0/weudH6NLlL3QZ2Y9VK8fWAI2rMeM5/VVntnoOwOOHyRyPfoMQ79eZN3kY+t1Trh87A5RTOBk8kJRFHZg14An6d36Ezu3b0KHb0wye/ApLV00kTzGdC8ppXFKM5cSq7qyf/DeGd/s93ds/SqfOT/L8gM5MWTSCX4Inc1rpwtXmBjnyfmpo4569nU0NiwIUB6/LZ+i2Uj5MOM+HCedwO1yVZh46y8y4M3wQe5p/K07z7/2ncN13kvejLLwfWcmYnwtoM2Ud032CSUxSWYFRGMO7weLWvSeYvvQ4UxcXM+VzHZMXFTBx/jEmfJLNnGU5CGC0d3/G5gaLx3NT2b2oH57e3nyy20LO8YYxjikh3qz7qB8z16cSlCKuYRuMz2VC2wks2rqLrUol8VG/ELpgCNPcZtNvaTSpeQa7YPHW/BvmOWTn2XLK1T5YlPqUmncMzdsDi+nhfuzyfJuP5n/OtImDmPpWR0Z8dTdYzKa4OIzAJROZ+nxnRszzxmvDdvaGb2PT8smMe3s8XfrP5+uDqcRLWLT2V6XHksg9uI3I/bHsDAtk51Y/gg7dBhbNpVhKkkg6GMbWLYGE708gSZ1FQaGOAn0pxpu8heXHi8mO3MKhQ4eIzT+BUXe4ChZjCykx/vd6X1mOxZJN+sEwdqxZRVB0PHHqLPKPaTia+Avbg7ezauN+EooMFDUg/Ei7UTe7YQ8smn8agPI/7fnM7UVmv/13Zg16DGeP28DioUmwawBB85wY+9rTzJv5CluX/wvNtjFodk7CdJO38PTusRye8QxrPfry3eZ3Kd3+ShUszhmNfq/Nsyig8S2i5jkxq8sTOL/3MquW/wvVT8PY+9mzzBjSiRf69CJg+0S0yrGc2P4qPn2esP4+87PBxP70NvHLX8L/vXY836UzrvOGcFjpYgXGewYSCXb1A3YNUY5NCYti+qjwKApQHLznNP86dIV/xV9mWNwlJideYnvxFWJPXEFhvILCcIWlyeeZEHmGbccusvjwGXqvzuP3Y3yZsnQDBw8nk5evtRrXu8Himu1GBrkV8/oHhQx4P49+Ljn0nZpBn3dVvP2Rin3xueiK9HYBY3OCRa0ygghfF1z6tqFv3770dPbEzTOEEEUG2jI9WnUYERt98fHwYKGYIurpi3dAGDE6PVprJyOmvejIUIQQ4uOB58KqYzzXhhGi0pNhtFCm16IO88XXpS9vdmtDtzddGDnbH5+AXaToNuPv4cEkJzf8lFkoxbRTrQq171BcXFxwcgtDmaVH3GdckC9BcVqU2moGWKtEG7MWX+/FuIy8OX8FKTojWq0SVcxa1novxvM+prnKjq9aubeQAYZ9sCj1KbXvGNq3BxZzEsI5HLycDcHhLF8wmQXjOzLa5y6wmK+iON4LL9fR9Oz2Dv/ZsIdwVQ6F+emkx/tZf3+t2yBcN8QRbM90VgcHStEe7uZZLNcfQ69JRK05RuL+HRzY7kdIws2wWE65MY9jcduI2r2DLZFKUrKL0J8QsFddc6KfLaJAk8Lh8J2Erl3Jpo2b2PTLbnb/soktW7awbksU+1IKOKYvx2I2YimKI253COvWbCNanUfuiXIqhAezKMn6+6Y1gexWF6G507TYGtevfi/ye826qb/ysAcWz+wYgc6/H3v8R7Dhw858Pfwxpi64GRanciZyJMnu7VkysTNjpvUnZM1YdJFTbwILAYFj0fi/zvoJXZjx3CMMfekpho3qivuopxjz+jP0fb07Xt6jSN4xFeLfhdCXWDWxA307t8dr+UiSI6dyOX4S5tAB1t+Hdf477svHErt1GPnLuzK881NMmfgSW0MnYY6fwZnIEaQt78G7nf/E1IkvsSrUBVP8TV7RhgAXmedNdd8IZd4UsGibevrB9kI6fl/M5JhT9N9dyR82l/PHsPP8MewifaMvknvyGuXnr1F48ioXrsCXyefoGXSSbPMVvBJO8/CSLB58u+6wuDrkOANnFvKaa/51UMykzyQVPSckMfTfR9i2K5msnDyHg0UBcasmtqXHUw/Tpk0bHm/Xh/avLWTR2giS8g6ze70r7uP60qedE//s5ESH7n3pMfYDFsQko9CXYakwYjEoCPFxYULXP/Pcsx3o0OsNXnRexCeRucToLBjyVEQvHWoF0icffZhHn2zLX7s7M/D979itCeA7j9t7bia5zqbPomhScg2ogxbz4/svMPrrWNbGibVkVQa6LC6Ag0sG0rtnV/785zbUyN9lHbtVKhQx/qxb8CYjenSjewcnOv2zG+36vMk4n7UE5BnQ2TnN1XZN+Vl/nWNTl6V9sCj12dT1JK9vX5uzBxarT62M8Z+Dz/iOjL8bLGqUFAe6MGfaNP4xzIdNh9SkW4FPS3HxEUK/msacVzvyzhd3gU4Hh0Rb2Qk93g0Wq2u2IDmKhO1+bL8FFg0Yi1KJ3fgDv4TsZldSEZpjhRQU6CjU6dEbyjFZ+6frnsK4nWxf+R0rln2Nr++3rFi5khXfLMPX15dv12zkp+hMko6VYjGVYEkPJ2rnTlZsOczR4hOUWvtMAZ0lZB/aSeQGP4Ljb4ZX+3RW/dnk9/orM3tgsboHTuPdnfXDH2PGLbDoTOn2gXz34uPMHNaVOUvHcnDDaDRbx5ATPJ6iiCmcjK2aUmr1FLp3YfrTv6PDI//DU3/8He3//gjt2zzMU3/8LX/v8jcGvT+UoJ8mwYEJsOKfLBnbhQ6vvcLesHcxWyFsOijHc+jTLizu/RiT3EcR4v0aGvf2dOn9ArM//RfFShcuWo+dRHnYYH587ffMHtudeStc0B9oBHCRsNg6YNE29XTIZiPOuyuswPjoxzH81m0bbTaW8YftF+gbeYFcyzXW51zCef85KzB6J52j55bKKlg8fJqHP9fw4Mhv6uxZ9N9Wwmvv59NvRjZ9p2by0iQ1vSYk0WNMAm++f4htu5IcEhaF1y9z/1YrMApP3oSVKeyKzyVXFUHaXk+mjHHGda4v/qFKFPFKIkN8WfXlVIbP+Qn/MDUWQy6W6EV4LnThuSnufBseSeQ+BQmRCg7ojGSZLVSUl1mBUXgwFwxvy/AFW/EOySBNk8FxUwgBd1iz+Lq7PwsVBnKNFZTFrSX269G88P6PLA5S34BFddB3bJo5hDnrfuHjj2/KX6XiuHod/t6zGTHchSWrIgiJVBKviCDU34W5CxfjvDSaDDunucpOsf46xeZSlvbB4u3X1Ep9tjw9NBdd3ut9NDgszppFhykB7D2SSaEV/IooLtYS5TeLL97pyLhlEhZvV3d3hkUdxwsTiVgVxC+rN7EjaCNrVq/Cz+9H1vwYRui+bNIF/Fmur0E0asnPVBIZHIFCkUhaViZpe4NRKBREZhSRqzdRKuDSBot79/L9DhX5JWVUWGFR5GNGm7SX+GA/th+WsHi7+mqq3+oPFsdwPKgfHh3bMbPzU3w4+ClefPYJurT9M72fd+J917eIEvCnvL4GMfIdVD/0Z/HQriz/6FV2rhnKzmkdWP5Rbz77fizKnVMwC7i0weK0F+g85g1UuyZz2QphIp/ppHu9gP+bjzF9/nVYnN+RLm++zCKvd6ygeO36sZW73iZ8zKMsmiZhsTr8t7jvjeVZVKVn4rUigDlLvmPyp9/SZsw3tHVZzRDP7TivPsJI/yO8vCqJp4IqaRN8npf3XCDHco2vVBd4Mew0ORVX8Vae5X83V5D93yt4HTrFQ4syeeAeYHFVUPF1UMywehR7T0i2guLzbx/kjemxBO1UOiQsCqOoz1IS5uZkjUTqFmYhS2/BkhFCylpn+nTrTve+Ixnn6sFcdw9mu4xk3Ft9eKbfQjz8FejKdJjVAfj7evCWiwffRShRZmgx63TozGaM1z2A4jrKjR74TXJikp+SjUox0LStWXRhZJuejHRxw8XDA/e5c3EdNw4XD38WhenI1ZuxaBVk7PTBedRCPP0jUJuNlOkUhPh6MnucG/5xWWz0vyl/Yy4WxSI8Xd7g6Wd68sY4N1xmi/zdcB3Xk75vONPLOYB9Gboa99lUHYW8buPDh32wKPUptdn42ryXMm9wWJwzh44ugcQoNTeiiQtvm90eSulZrBngpvwY+qwYQlYGErI+hKioqKq0ewd7tgezbcMe9sdpqkUu1WPQq4kOOUBiooZ8QwlZ0eGkJCeTVGqh1Bbd1AaLUVH4hadTUGILfFOl4zvDq2Po/F7ahiOcU2+weHAEurU9mfr3vzO1eweWuHSvSu92xmN4e959sRtfuw+rFrl0HMYdg/Ea1osNnw3jaMQE4l3/afUOBu1zwWyLbmqDRZfudJnwJprwyTW8VTU8ncKzuKATXYa/whLvUTWOOxk+iqgJj1nvSXoWW7BXtbFgMS4xmUHOH9G271j+0ns0D3UbyyOvTKf3tM9Y84uCNckGZqVeptOuC7QJOs9LEefJsVzlq7Tz9N5+ipyKK3xx5Aw9NpnJ/u9lPONP8dDCe4PFFZuO0Wv8Ef53TAIvvHOQbsP3889hUTw7OIIBznvY+ktiy4JF5UaUXw3GqWN72vy1LU5OTr+mrn1wGriQRQEKNBYTJosGRVgAvu4L8A2IIkKhQpubh9ZYjrHaNhx3hsWaa8JMuhw0AZ/w3UJfZi49hDrvBGaLjsL0KFaPmYqPz1rWZ2vIO7gE34ULGeocQESGjsibYVSfhSXMDY9xPXn48ado277jr88gnqePmAobwG6NDl01qHWETkXeY/0MauyDRalPqbf60VtDl2ODw6L0LFohWdRjvUxDNWooUu1m8/c/ESwAMLuE0nIzltJjHE+PJnLVGnbuPEhsQQXGEwaMJelkHt1PcMAu9u5NJCUzk7hg4VmMJaGohCKTuWo7DBssSs/ijVlIDd326iP/eoPFyGHk+z7HiGf+yqRhvdi0bjz/jZ1u3cbCsLIHn3X8I7PH9uG7rdMpjZqIKXwI+7/ryeQe/2TRtFcJ+WEofkOFZ7EPAdvHW6ObWrfDsMGi9CzWgN8W5xGsrym7jQWL+flaBDBuD9/H0nW7+NvHMbz4vZp5B0rwTrXwRfp5ZqVcpuOO8zyx5SwvhZ8lp/IqX6acp3fwySpYTDxD943/vQGLDy7IuCfPoue3cTzZfS1/6b6GJ19YzZ+fX82fuvrzp+dW0eONADZvj295sLhiAk7vLMLFeyti/8sbKSkFZVouuTojJksllRYTRr0ObUYm2oRkIvzX4rtoKb6KPBS6XwdZ9sJipbkIky6QAB9f3huzmuj0QnQWMyfykjm0dDgLFy5mzDd72PvlCHx9fHAJ0KHSmUm4EyzOdaPthBVs3bX/12cQz5MipsLqOG4yy/DhrRSW7wUWpT5/bdP1MUCSedRfeTY4LMo1i/UPi0cj2Rywmz0H1OSXm/lvZSWWinLKirJJDf2BvXv3EaEycDx9P3HhG1i5wpdlX37NN998y3crV7J82TKW+/7Aqo07ic4ssXohb0xDlWsWWy8srniBET2ew+PDwahjp3M2cQYkTKVi+1uEjnicRdN64OE7kePf9WLVhL/R8anf8sT//R+ebPM72j79CE8/ItYsPs4LfbqwdNV4qxfyxjRUuWZRwqI9QNlYsGhbTJ6Tm4ciOYulu/NxDkhloH8iQyMtDI29RP99F3kq5ByPbz5Dn51VsHjIcJkfNRcoP3eNLxJO031DeRUsxp3kgfkZPDCi7msWI/ZlsvDLaGYt2MEHn4T+mtxD8fDaxa7IFuZZ1EagCnNn6OuuzPbYiEKtw1hmxmLUUqZVo9aWoTWKQU5VNFSj0YhOa8as1aHw98Vz0jic/eLYqDTeMNb2wqK5TItO7WuNXPr6UF/CVFpr5FWzPgtdmBueHrPpM3IxC0e+iaevP75qC9qy20xzLdNiUfvi6zGb/q97sD5MSYbWiMVchkWnRqvVotZZKKvm/ZQD1/obuDpCWd4LLEp9ti6NOIKObffYYLAoo6HWmHYryrtePIvlBZTkHiZ8UyhRUYmkF5ViMldgKddjzD1C3EZ/du8+QHS2CYM2HU3cL+z8eTUrfwphU0gI4Tt/Zu3Kn9i4aQd7Diah0pWiL7fIaKgO+vJTtF/OGSD9c7tgpMa0z+r7LB4chf6nV5j3UieWuLxKVOgkTsbPgIPjMP3Un1Uvt8H93V54rZ2M8echxH78LLP7/4FOPTswdFgH5o79B33+/heGvtQZj3kD2BU8Cd1BFxkN1R5Aksf8qt3GhkUbNIpP74176fDBOv60MosnAitos+08T/x8lsc3nab79tPsKbpkDWYj1iiKqacfxVjovK6M8LzzfLi3ggc+Tb8nWBR7KB43GEk7quFI8tHbpmN5BQ4XDVV0eoacZKI/6cHCuW5MWZlCuAhwo0tAk7qGJf0G4jbSjQUrQonaH49yXxgHwwPZdKiIBLGFReUJLKZDqFLiCA9XcuiQkq3LFjJ/9FCGLI3AX6G7AYsiommAy3M4f76NZTUC3NwUbfJ6ABoRDbXH1AB2ZF6fJmrSYdEE4L/YlVe6DWZAtwl4fBdEtHgGi8UaMbVm/hqOm/YQ4j0bt+dex+0/37N2ayTKQ7Eow39kZ0wc29QWisvk4Nc22Gxtn/bBotRna9OFoz5v/cFiPgX5R0mNi0WpVJGanU2BTu6zaBuLCH3UCyxaSinVa0gK20LMzt3sTzxK9rF8CrKOoInfwS+rt7B7bxJJJRZKRbA4bRKFiaH8fCCbQxoNJYWJ7Pj5AHGHsimxWKrNkJH7LDpiG643WFROwrxzGEEjn+GrsV1Z9tlgEn56G83a/sR+2pmZnZ/BfdoAgna5YD7kwuWfB5CzyIlRs95irf8wire9yocDerOqRhRTsbZO7rMop5zWYY1lU8KiSpNLQESCFRh/tzieJ7ae4/HAMzy64RR//MlCty0Wa/TT/w2ssE4//ZtfKb/72oDTDyd40tfAA58cvWdYLCsrswJjyXEDt0vGEyccEhYrijIxBE7FZ1xPurbrw7Ni64yASI4WJqFZPQPvkT3p8VQ7OnfshFOv1+k94RPmhOcQKWDRVIhFs5q1PuN49VUnnnvOibZd+tD1Xy7Mj1WhMArPYxWMiYimhz9/lbe6PUeXGltn3BRt8vrWFiLa5IIoHZmG69NEK81YTDoUa9359M32tHtzER4BcVZQFJHebs3/R3ZrNGTE+LPvP68z8jknurXtgNNzL+D06mhGeQfxvdpCgYTFG3Vkq6vW8mkfLEp9thY9OPpz1h8sxpMa9y3zB72Mi4sX88N0VmDUKNay+5tRTH2zMy92a0eHZ//JP3oNot9MH+YFpXIwq4D8FhLExgaGt/sUOqkfWKygoryE0uz9HNm7iZ9/XIH/D9/jt9If/9VbCIzUkJhdWgWKlRZKsw+RfeBnQhMLSdJoKM4+wJbQROKStFZQrLzhUbsePVWXyrGEYHZsWcX6NSv5/gd/VvwYyIY9h4nONFBkqqgGmPKlaVO3//qDxRlcjh2PeV1PNk97itHdfk+P9o/S5e9t6N75GYZPG8aGtZOqQPGIC+a1fTk06xneXzSarf7DKFjXm9EjX2VVjSimAhKuR08NHkjKog7MGvAE/Ts/Quf2bejQ7WkGT36FpasmWtc4XlBO45JiLCdWdWf95L8xvNvv6d7+UTp1fpLnB3RmyqIR/BI8mdNKF65Kb9yv3riWVBZNCYvCcAtgFB7Gfl+E81v3SH77n73837l7+J+PIvifWbv5Px+G8/DMcB76YBcPuu7kwfd38KDLLzww4xcemLyFB4Z61nnrDOFZrK9UXl5OpViXcMOwN7GRLtNjUYeh2OiLz0JPFvqEEKLIQFemx2z73cODhWJDe09fPNeGEaLSkyGmoYrNf3UKFBH++Ph4sHBh1THeAWHE6PTW6aM3nlOrRBezlgDvxXh6+uMTEEmKLgFFxEbWeniwWOQv0sLFePisxT9CaV3zWD1IjshLudET33Hd6Ts3BN8I7a/leEv+ClJ0RozVf7cj/xv321zqR97Hr3Vcz2VROyyK/TzVKKU+G6z8ZVurX9tfV1hUxQSzZ70X6/eoiFEVV5tqqUKj2kGg12f4+wcTGF+MJr+Y4pwENHEbCFyxAK8Fc5jz8afMWbKC5cExhKcXk1tYPY+W+13oti6weKJAQ54qDlWekYITN9V5Rbk1oE2BJpEjB6OI2Scioh4gRpHEkZzSGseX64+hz05CrS2lQK+nVJ9NklrLsYITt2+j5XpMRWrSlQeIOxBF1L4Yog4eIVFTUC3C6k33U882VrZx+8u3rrBoChpG2jcvsWvTu2gib/L4JEy1BrTR+L/K5nnd+cpVRETtxVcfDWDzj5NqHH9mh4ieOoA9P09Cs2Mc5h3/Iujbd0gOevf2EHNwHCdDBxO1pBerPuzOEteeLJnXnw3+oylHas8AACAASURBVKpFWHWxrpFk3whq3MOHL/H1kiHsCZ1cNbW1JcGRfJaaemlqWLS96RPA6DT5a9o7f0m7CXVLs323cPBwMnn5VbBx+fJlzGZzvQFhbWDZ7GDRUTqHG55Fb75wHsF7AWqC1PYbYtlpybK6WQO1w2Idy0vq8/YDVkexLy3gPusKi7a+VH7WDWzrCos32x35/zra1hbQNu2p87rCopwSeRMgS1irCWtNXR7NBRaFh3FvfCqbduznx5CoOqXtEbESFh3NAN9Ys+jGsLfe44vDGuLkFFI5QL8PHdcrLEp9Si3ehxbtGUze7RgJi3WDvnuFZFEPdfEs3q3e5N8lPAoNSFiU8NeiXgA0F1gUhr6wUEd6RhZp6sw6J3GeOF80UulZbK7GuiraaoYihBDvuXi6jcPZxYNRi8LYmXvTNNcmHqjJDr+5aujO93X/sCj1KXV/Z301dtlIWJSw2Niak9erv/YvYVHCooTF1FRS7UhiL7+9e/eSlJRUbf1Ew3YAwthJWKw/g1e/nYcJi0WDImARCwd2pU/XgQx1C2BptIU8Q3O9Z3lf9auBhivP+4dFqU9HqevWcJ8SFht2rGDzRAotSc9iw9nl1tBWb/eMEhYlLEpYtAMUBUxKWJQGuKYRFYGATBh1ueSmJZGSlIYqS2cFxfIKWVY1y0qWR13L4/5hUeqzrmUuj2+4diphUcKibF8N174aumwlLEpYlLAoYfFG8BwZ4MZxjXlDdxYy/8bVxv3DYuPer9SHLO/aNCBhUcJibfqQf2ve9kPCooTFVgGLWVlZ3G9KT08nPj6ejIwMjEZjo6RTp05Zp5QIQyoiojZ0qqioQFxTJlkGUgNNq4GLFy9y7tw5q93S6XSyTUq75NAaEHoWSypENO7G6j9b43WE3b569Spnz551aL3I/qdp+5+by1+0X86XwbEfIP1zmWQZOLYGSmNvayd/IwZd9ZFOnz5tzefSpUs0RhJrD65du2YFRtHRNnQS15NJloHUQNNrQLR7GyweP35ctktpmxxaA0LPIok+rDH6ztZ6DWG7xT8BjNKON70dbyl1INouVy9XAeM5A8gky8CRNXDp1G3t5G8MBgP3m0pKSsjPz0cM3BpryoRw/QujLwaNZ86cafAk3kaKa8oky0BqoGk1IAbVNljU6/WyTUq75NAaEHoWA2fhsWis/rM1XkfYbTGwF54gacOb1oa3pPIX7RcxwC6NhZJdMskycGwNnMy9rZ38jT3RTu92jAxw07zn1LfGgYF85parSTHQsMFiYWGhHGDL7WccWgNCz8LbJ6aG2iJ3ys/6X8co+gQJ5S23X2iqPl+0X6s3UUy/bOoN1eX1ZR3crwaa0z6L9dERCsMg3uiItYpirUdDJxngRnYyTdUZyevW1J6ExZrlIfXh2OUhYbH+wfB2YwzRTiQsOnZbaY62TsKiDHDTol4SSFi8P6CUsCg7mebYUbXGe5KwKNtiS9K9hEUJiy1Jz63tWSQsSliUsCi3zrjhsZSwKAeora0TbK7PK2FRtsXmqs17uS8JixIW70U38pzmYQclLEpYlLAoYVHColwP5dDroVrigELCYvMYJLVEbTXFM0lYlLDYFLqT16wfOyphUcKihEUJixIW7wsWtei1cYT5BhERoURtsVB2X/nVj3GXnaRjl2P9waLUp2wLTd8WJCw2B1iswGIpRV+Qi0adjkZvQl9+szbsOebmc+T/W7qNqR0WZ4ByErqgEcR+O4TYHZPRHbQXru7nXHuvIY9rUaB3v8FtxPnNZc2iKreI/Ud195TEubaF68IAteYAN5WVFZhMBoxlZRhMFioqG6ZTMpvLKC0zcLysgjJzzWtUmssx6fLQZqhIUypJUipRKlNITs0ks9CAviyBLKUfbk6T8PDYSJjFgl7CovRU3qcG7IVFqc+a7bWlD9oc9flqh0XR52nJ16hITzxIwoH9KGJiiNl/gJiDiSSoNKRriyksqgW4CnMpyE4hNVFBnKKO5xbXkq+D/U3o484BbsxYLEVokmKJCt1BVGYJGuPN7ceeY24+R/7fUdulvfddOyxOA+VYYr36sGREZ5asGk9spAscmQGHJnEychxF20eREzQKTfBYcndOxBg7nTMJAuLucG59AIHMQ0ZNvZMGmgsseu8twOmbY/eUxLkSFqs6HwGKGk00CrWaaI3FCoz2Gre6HKfTqUlSR7NbbUCtq9nxCVDUBCzF13koA52c6OrkhJNTH3r0m8rU1VGEqSMlLN4nGNWlrlrLsfbCotRnzfbaWvThaM9ZOyxqKS4+QnygF37O/RnzfBd6dexIxy7P07G/M2O8AvE7UmwFRlvfeMtnejipoR8z37kXg3rV8VwHA8Jbnr3a/Qtd3BUWD0UTFbiFqPTiO8NircfINudo7e9+79cuWPy0B0v6PsOSlWOrYPHQJNg1gCj3jrz/4mP07vgYXbr9nVdG9sJr3USS91WDxZvPvdMgX/4uAbA+NNDUsCi8ggL2nENKeC3IdCMN2GrCmn4uo//mUmvqF1hKv00n6LfhBK/+ZKSnXz6/m7mbf69WkJ6RRWGhzuqduZtnMS65lDXbjawOMeAfXIL/Nj0/bNXh93Mhm3boyC8svTHN9G5bbzS3ADdGXRaKADf8N27EV2FBe8tb0PrptDIUGwnxc8MzLIuIjF/zNGYoUG72xmOaGy7Os3F19cDd3QMPDw8WevrgE5KCIkMhYVHCYr17Uu2BRanPX9vq/Q6G5PkNW5a1w2I+xcVxxAT7smLOND6dM4s5c+Ywa+ZMpr3zNsMmL+Adr3D2qHLJqQZGVdAkzo0nZsMCfCb3Y/zkcUx2dWXWrJlMmybOncPwjwPZkqJBdcu5LcejaANIoeO7wmJcFFEbNhOVXnRnWKz1mIbVimyLza987YLFj7uz5MW/s2SFgMV3ORkxlCjXdiwZ9Qzvju2Cx7QXcJ/4LDNGdWLwqFf4+ttRaJXTuCC8kjXOldNG5bTRBtZAU8KiAMWNh3X876pCBoaa+Uh9lY9UV/go7TIfqy7zbc4Vfsi5jF/WJb7XXOTz5PPMiT/H1ynnWHToDGO3FPCH8cuZsnQDBw8nk5evtQsWBSi+4abn9Q90vOaqpf97x3h1moaXJx9lzH/SSUwrxnjihF3A2JxgsUyvJXP/VlZNbIuLiwsTVqawKz6XXJ2Rsopyygx5aLOqTQ1NUZGqyaPQVH59zWAlFosJoy6X3DQlKUlKlCkqUjLzyDWUYzRbqCgvw5CnIsLXhQXD2zJ8wVa8QzJI0xRw3FSMKsSHdVNepefwRbj4Kqp5N3WYTBo0GhM6nfIGLLrP9SOwMJOE1GRSxJTVlDTSco+jM4qpPVX3I56rMDON1OQklLccY+skyigvKyJPlUOWKoPMTDXJyRqytHoMFgsVEs7qHc6a2wCldlgU64oMZEh9tngdNDdd3uv91A6L1z2L8eFsCwtjf3Y26cXFaNOTOeL3Ea5jXOg86At+ilPdCny6DIqz17Bi1nAGPvM8E5b9zIb4dLTZKRwJ+5iZo4fT6Vln3MMT2ZPf8uDQBom2T1E/tcNiCceS4ogL20lcdgnHSm19ju1T9FV3O8Z2rPy81/bgaOfVDovTQTmeZM+XWDWyC6vWjSd5z9sU/fS/vN/+McYP64bXuvHWqafm0MHsm9+J3k89zYRp/QmNnU5F4k3nWj2ODQwL9eGdknk4rpezKWFReBQFKE7df4phsRd5NuoKz+69jFPERYYoLpH036uUnb9Wlc5d44vk8wwIO8UR42U8E87wp2U5/J93fO8BFg0MctPx+r+rQPGV6Vm8NOUovZ1TecstmV8i1RzLK3A4WFSH+VpBscdTD9OmTRseb9eH9q8tZFGAArUhD3X0Unzdqk0N7TOUfu8vZbUmzxpkRoCixaJBEbCIhQOd6NPVCac+Q+kzdSkLo/JQ6CxWUIxeOhSXvm148tGHefTJtvy1uzMD3/+e3ZptrPVcyMwe01my4xARWmO1dZNmKivFnpaVmM2/wqLruEl8snoq7/TrQR8xZbXPQAYu3E2AQniJq+5HPNfqqQPp16MrTrccY+t81eSpAlk69BPchjozdeoIevR4DzffMKItFiswOlpnI+/XVrf2fdYOiwYslmhCpD4lLDrIi6PaYfH6msX8HLKys8nT6SgsLqaoMANt+hp8F3zGqEFfsPV2sJidTHHYR3w6bSKdXv0P3+5N5HB+IUW6HLTZ4axf4MykXs8zYfkB1se3dlgULyzNlJcaMepLMJabKa+42R7Zc8zN58j/t/T+rXZYFEFqpnNm37uYdo7HJNYjBg8i57NO9O72LO9/OIgk8VviDC7Hj6MosB+evR/DdWxPPls3A4P4W/VzrWsZJSxK72IDaqApYNE29XRCkJ7+gaW8ttWEk18Wj36VxB+CLPwh9AJ9oy6Se/Iah05cYX3OJcrPX+PL5HP03Goh23wFr4TTPLxYw4Nvf1NnWFwdXHIdFHMRoPjylHR6T0zlf8cd4U3XBLbtSiYrJ8/hYFGrjLB6/ATI9e3bl57Onrh5hhASEUGKcjM+HtOY7eJyY2ro7NkuuIjkH0GIUoulTIdFHYC/pwuvv/EGk2bPZraHJ4t9AlibokNptCC8fALefF368ma3NnR704WRs/3x8Q8hReGJp4cHrw/1JUylRXvHQZmARV/cnPoy8o2RjPPxYO5CDzxmO+M26U16vr4YD38FaksZZRY1GREbCfHwsObt4eHC7LnOvDHOE8+N4hhbJNVf83yj+xu87jqbSe7++Mtoq60GDmqFxTItFrUvvlKfrUYPjj4YrR0Wbw9xhbkppId/jNeCBbzzXiB7lJpbp6FqlBQHujDH1ZV2Y/zYnpB+/ZhCiovTCV/uyoIhHRn9ZQz+Mbe/js0r1xI+hU7u7FmUUOfo7aip7r92WLzNoH7ra2g+7UCX/r1w/2wEZqULl62euKmYd/yLoGGP4D6xO/NWuKA/cJvzpdfOcb12jlB3jQWL+fla4hKTiTmYwPrwwzwzP5Zey1OZtC2Prr7ZPP3xXp6cs40/bizlDyEXeHnvBXIs1/hKdYEXfzlDTuVVvJPO0vPnyipYPHyKhz7T8MDIusOiWKMopp6+Ml3Dy1OO8uJ1UHxhVDxDXOLYtivJIWFRGEV9lpIwNyfrGkG3MAtZeguWY7tI2/oBA/sOZZSLNytCleyPVxK51ZsVC9/mxVHf4B2QgMmQS2X0IjwXu/H8B95sSM4i65gWk0aDxmRCVw3+lBs98JvkxCQ/JRuVFiz6LCxhbtbrOrmFoczS1zIoFWD3FW5OHXnjjUmMCYhmr86ATheJOvRTRrQbj6s1SmoZeouaY3ExxP8YzpHYQyiVW9kVupAJr4xitncA20wWiq0RX++QZ7V7bqpOQ163cQZctcKi1Gct7bFx6ke2g7qVc51hsTCXHOUewj97h08//Yypfkc4ki6mq94EfDZYnDOHji6BxCg1NY6J8Z+Dz/iOjPeRsCg1WzfNyvL6tbzuCRYXdKLL8FdY4j2qBvicDB9F1ITHWOIiYVF6D5voRUFjwaIAxUHOH9Gx3wT+0Xc8Dz8/jkf6TqP7pEV8uSkar6hc3o020S7sLG22nefliOuwmHaB3qGnyam4iveRs/QIrCD7v1fwPHSKhxZm3hMsimA2r1pBMd0Kij3HHaH7qHi6jTjAoKn7CdqpbFmwmLKZJN+hdG37Fx5r81eeaudEx05OdGj7V556+h/8tsuHuH0XiabCiMmgIGStNx9MdWPJTzHEpGipNJkwVVZirgZe9w+LK3BzeofZs/1YrzOQZ67AbE5AE7+c9zq9i3s1WEwJ8mbl6Fd59YXncHJqS/t2T/P4/+vCG27f8b3GQoFJGGgBi7fJs9o9y47s146sJZZF/cLibbQk9SmBsxHtSZ1hMT2clB1f8LGLFytW7LCCorbw122lbkCjhMUacCxsofQstuy+oSn6OwmLTQQ1juClc8R7bCxYVKVn4rUiANdPlzH835489o4P7f69htHf7eTbAzl8m1bBrJTLdNx5gSe2nuOl3efIsVzlq9Tz9A45RU7FFb5IPEOPTWay/3sZz/hTPLgg455g0WdNGk6DdtLp9V/oMCCUdv2CeeaVIP7x0s+8NDKYLaGHWxYsKjei9B2JU9+R9B3pYvX+ieik1rTQEw+fEEIUGegsZswWHRlKBRGbg4jYFUdESAQRIWFEZOjJqBZZ9RZYNOZiUSzCc/Zsug/1JeSu01Bvt8+iAL5qv5fp0KsD2Og5m1FvjGPa7LnM9pjNbFdn3ujQHefZvviqLWjLbLBY7Vy5d2OrG9jXCotSn61OD00xQKzPa9oNi4W5FKeHE7PNH/8vl+PvF05MjKoGEN0AReFltMGinIZqLSMJixIU67Pd2vK6J1iU01BreFSlF7EZAXdjwaKtsxJbXATtS+W1VTkM/bmID2NNzE6+wOzUy0xOuES7sPM88fMZXtp11jr19EfNBcZHnqbAcpUvEk/TfeN/q2Ax7iQPzr83WFyx7hA9h6znhYFreP711dbU7bXVdBuwmiHjNrLtl/iWBYvqIJJ/fI8eo7/A3S8GncGEuaISi7mMijIDhrIKysyiw6iKPmo2mzEZTFRmaoj8zpeF012YHawiLEtEfavqWG6BRZMOiyYA/9muDOn6LvN/ib9NgJsyTKYyqwexBhTeALubYFGfhV5MbXV1pe2I79mqLkBrziJfGciXrw/A3V3Coq0+5KeFWmFR6vNG25VacYzBsT2wWJivIUcVQ8qer/H3WcH8+WGkpmbfGRQFLMoANzXKR7QH6Vl0jDbhSLarzrAYam+AGxcMsc0IIhzRSybvue5Q3tiwKPZCzDpWQFyGjpn+kfz1w0102FJKp/CLtPvlAn/ceo7HA8/QZ0fVOsXyc9esoHjhCtagNt1/MpFdfpmlcSd5wCOdB0bUfc1ibp6eg4ezCd6RwOaQgzWSAMWY2Ba2ZrEsjszYL5j6wjBcJ3kTEK2xAqNFp8agjiZabUCtE51FVfRRnU6HJrPSCowJAb4smzCUNxZF4BdTtY+lMNi3wGKlGYtJh8LfnfkD29F1yKe32TpDjUajtq5NrBMsurvT9r1tbNUUo9XFkB32CXOcXsTVVcKiI3WeDX2vtcKi1KeExUacQlofWrcHFtPjAwlfP5ePvwjEf3OcFRQLCnQ1YMj2ovbGp9w6o0b5iLqSsChhsT7abPU86gyL8fZuneFCRaKERel1bGQNNDYs3uiwiosJ2XeEad/t4OnPInl0RS5PBJ3j8c1neGzjKdr/fIp58WetQW3EWkUxBXVQ0H/52/cnmBVZyeubTDzw6b3Boslksu6jKLbHEFFPb5d0RXqHi4YqDFWZVoXadyieLiN5w9mT2SIaqkJBRtZOQtxG4TFyJOPGuTJ3rrt1GupCb198YrQotBYsZj0WXRgRIb43pqq6ODszauQ4pm2MIyTDeGPAqY3wZefcnowa54aziIYaoCBFZyRDGUGknzvuk1xxcZ59I/KqdcrrYk881oYQoQypOd30Tp7FMi16te/16KzjmHR9GupcN2fG9eyOi4eExeqdU2v/XissXgcFETFY6lMODB2hrdQKi/kaiuMD2eA1mdFDutGt72iGjXZlzpw515MXn3kFskOlQVWsQqPaQaDXZ/j7BxMYn48mP56YDQvwmdyP8ZPHMdnVlVmzZjJt2tsMmzyH4R8HsiVFnHtTcJwW+H+hBQmL0ibUt02oMywq3+VkxFCiXNuxZNQzvDu2Cx7TXsB94rPMGNWJwaNe4etvR6FVunBBesbq7hmTZXZ/ZdaUsCjAMT4lgyHua3lq4V4e9S/ike91/P67An7nq+X/Lcvjt97H+B+vHP7P0mwe+lxjDWrzoPAoClCcHc8Dby2r89YZAhbrK5WXl1NZKaZvNhNja8jDEr2UALGfYtc+dB1Ytc+ixpCHyfa72KvQ6dY9FIVnUEwlDfB1ZuBAJ7pe32ex5l6M159THYZm9VTeF/sj9hH7LAawW6OzRkw16fLQBCzF17nano5OfegqjlsYQIAi7MaeiL419kH8da/Eqt8NGCzRKALcauz72GPEe0x9bwSLAgII0FjQWQPc3Hyu3Fux2WiykdqGPbAoykTqs5nYqkbShaO2g1phMTuV4rD5eLkMomPHjrdJg3h50Hy+jUslvjie1LhvmT/oZVxcvJgfVkxqdrF1nWNq6MfMd+7FoF4d6djleTr2d2aMVyB+R4pJ17Z8UBRjEKEPCYvSJtS3nag7LLrAoUmwawBR7h15/8XH6N3xMbp0+zuvjOyF17qJJO9rZG+SBKz7A6yWVH5NDYv5BYVWYJz27Q4eGvNtVRq9nIdGieTLg+/48uDb19PIb6wBbcTUU2t6axkPDF4kYbH6oKuiHIshD12WirSkFJLScsnVGTFVlFNp+12pJEmpRJmiIiUzj1xDOUaxZvH6VD2dNoO0NCVJSVXHpGryKDSVU1b9OmV6TIWZaFKTSUnJIE2j47hJBMixUGkutw7ItRkq0mzXUqaQJI7L1aEz6ikvKyJPlYNWq8dgsVBhzbvspt8rqLAYMOqyyE1TknL9fpLVGjI1anJ1Oisomq1bZ9x8ri1P2QnWdyfYXPOzFxalPmWbaK4arn5ftcKiroDi7FRUyjhiYmJuk+KIjUvlaH4B+cX5FOQfJTUuFqVSZQXFAl0xxYW5FGSnkJqoIE4RQ8z+A8QcTCRBpbGCYmGRhMXq9SG/S7tRFw3cEywemWEFxpOR4yjaPoqcoFFogseSu3MixtjpnEmQsCinnzaRBpoaFm3TUsWU1I9WbGf6F5us8Ddl6Qa7P303hnPwcDJ5+VrrW8LLly9jDdJSjx7EO3kim51nsTrQye/Nx+Mr66LB68JeWKxLhy+PlQPEptJArbDYAqeD2sYCjf0p6ld6FmU7r+92fk+w2JI8UfJZWpZXsrnAouggtNoCEpNUVvAT8FeXJM4T54sGL2FRGv76Nvwyv+avKQmLzb+OZDuyv44kLDaOZ1NoUsKi/bqUbdi+spKw2EQeMAmpDQOpzQkWi4qKrMAnPIR1TQIUxfnCkElYtM+YSaMvy6klaUDCotRzS9PzpUuXMBqNNaJ3NrbnraVfT2hGwqK0HfVtOyQsSlhsUVNmmxMs1kenJBq8hEVp+Ovb8Mv8mr+mJCw2/zqS7cj+OhJ6lrDY8N5FoUkJi/brUrZh+8pKwqKERQmLqamk2pGUSiV79+4lKSmp0d6MCkMmYdE+YyaNviynlqQBCYtSzy1NzxIWJSy2JE23pmeRsChhUcKiHaAoYFLCohy8tabOQT5r0+pdwmLTlr/Uf/2Wv9CzhEUJi7Jd1W+7aqzylLAoYbFVwKLBYOB+U0lJCfn5+Rw/frzBIyHaDIBooFevXuXcuXOcOXOmwdPZs2cR15RJloHUQNNqQMwoEO0+KysLvV4v26S0Sw6tAaFnOT2y4UFB2O1r165x8eJFh9aL7H+atv+5ufxF++XSKSiNhZJdMskycGwNnMy9rZ38jRh01Uc6ffq0NR/xhrQxkuhcheEXn6KxNnQS15FJloHUQNNrQLR7GyyKF1SyTpq+TmQd3HsdCD2LJPqwxug7W+s1hEbFP/GSWer13vUqy65m2Ym2y9XLcL4MzhlkkmXg2BoQLz5uYyd/I97O329KT08nPj6ejIwMa0Q3EdWtodOpU6esBl94GsVeiw2dKioqENeUSZaB1EDTakB4BmywqNPpZJuUdsmhNSD0LEBR7PHb0P1ma85f2G0BimKWkLThTWvDW1L5i/ZrBcVjP0D65zLJMnBsDZTG3tZO/saeADZ3O0auWWz4KTS26bfyU5Z1a9eAmAZkg8XCwsJGm/re2stdPn/D2B6hZ+HtEyBXH5HCZR63X/8o9Cu8YgJUpJYbRsutsVxF+7V6FAUkyb3/ZBk4ugbk1hkm65tb8fb2XlJ5eTmVlZWyk7HITqY1dojN6ZklLMo22Jz0eL/3ImHx9nBX39Ar6knCorQd99tebz5fwqIMcNOiXhJIWLw3SLSBpYRF2cnc3EnI/zeNJiQsNk25S703TLlLWJSwKNtWw7StxihXCYsSFiUsyq0zbnghJSw6rjFvjA5DXqPx9CFhsfHKWuq64ctawqKERdnOGr6dNVQZS1iUsChhUcKihEU57VROPW5mGpCw6LgDq4YasDlyvhIWJSw6sn5b+71LWJSwKGFRwqKExWYGCq29Y5LPb7HukSYD3EhgbCltQcKihMWWouXW+BwSFiUsSlhsAFgMPqJjXpj2npI417boXRglEW5cbJlhW1fYkJ/NbRqq2VyGTqcmQ6tFrbNQZm6YwaPRqOWYVk2KtgytUVyjDItFjTIigiDfMOK0erR1BMpb82yYe2+NHVdreGbROd8ZFqU+W4MGWtIz1hkWVTGodvjj9Zk//sExxBcXk19cC3DlJKCJ20DgigV4LZjDnI8/Zc6SFSwPjiE8vZjcwlrOrS1fB/ub0MxdA9yU6zEVqUlXHiDuQBRR+2KIOniERE0Bx0otlFfIvqoltb36eBa7YPHgOE6GDiZqSS9WfdidJa49WTKvPxv8R5G8z4UzCRK4WhRwOXJE1KYOcJNfWEx8ZhEzQ3X82afw1rSskD8vK+RPywr401fX05cF/OnLAtp4HuMh9xQ+2pqBVltAUVGRdWrg3WBRqytDlVWGSlN6PZ0gLdNoTenZRgzGMrtBs7nBYqmxkCTFakJiYghMslBU2jCd2LGMGKL3rmZdbCFxx8Q19FgsYWz08GCSkxt+yiyUdYTFW/NsmHuvj45A5tH86qZ2WJT6lJptfpqtrU7sh0XxsjQbzR4/gv8zkhf+9i9Gf+xPYHExmtuC2/XjFWvZ/c0opr7ZmRe7taPDs//kH70G0W+mD/OCUjmYVVA7bN42b8cDTFEHd4ZFEem8HJMulWMJwezYsor1a1by/Q/+rPgxkA17DhOdaaDIVIG5jv1dwcg+cgAAIABJREFUbXUv/+ZYbfV29VU7LM4A5RROBg8kZVEHZg14gv6dH6Fz+zZ06PY0gye/wtJVE8lTTOeCIwOGvPeWs2VIU8OiAMXB6/IZuq2UDxPO82HCOdwOV6WZh84yM+4MH8Se5t+K0/x7/ylc953k/SgL70dWMubnAtpMWcd0n2ASk1RWYBSN9m6wuHXvCaYvPc7UxcVM+VzH5EUFTJx/jAmfZDNnWQ4CGO31RjY3WDyem8ruRf3w9Pbmk90Wco43jNFNCfFm3Uf9mLk+laAUcY37H4zfmmfD3PvtDLv8zfHLuqFhUerT8TXiSO3cfljMprg4jMD1XzFj+HtMeXYkC5bUBovXj18ykanPd2bEPG+8Nmxnb/g2Ni2fzLi3x9Ol/3y+Pphq9U7aZu201E+hiTvDYjkWSzbpB8PYsWYVQdHxxKmzyD+m4WjiL2wP3s6qjftJKDJQJGFRruOvpoHaYXEKKN8iap4Ts7o8gfN7L7Nq+b9Q/TSMvZ89y4whnXihTy8Ctk9EK4Gr5QCXI9dlU8KimD4qPIoCFAfvOc2/Dl3hX/GXGRZ3icmJl9hefIXYE1dQGK+gMFxhafJ5JkSeYduxiyw+fIbeq/P4/RhfpizdwMHDyeTla+3yLK7ZbmSQWzGvf1DIgPfz6OeSQ9+pGfR5V8XbH6nYF5+LrkhvFzA2J1jUKiOI8HXBpW8b+vbtS09nT9w8QwhRZKAt06NVhxGx0RcfDw8Wenjg4emLd0AYMTrblFEzFouODEUIIT4eeC6sOsZzbRghKj0ZRgtlei3qMF98XfryZrc2dHvThZGz/fEJ2EWKbjP+NTyLWvTaOMJ8gwjx30hYyFr8PBfjKa7v6YNPSAqKDGMteSpI0RkxVjPAjjTYk/fauHBRd1iU+pQabVyN1qW87YPFHHI1CsIDl7Dc34u5Xj7M7TMeL69aYDFfRXG8F16uo+nZ7R3+s2EP4aocCvPTSY/3s/7+WrdBuG6II1jleJ7CukKtqJM7wqLZiKUojrjdIaxbs41odR65J8qpMJdSWpRk/X3TmkB2q4vQnGi+WqqL7uSx9VOPtcJi/LsQ+hKrJnagb+f2eC0fSXLkVC7HT8IcOsD6+7DOf8d9+VhiI+VUVDkVtRlooClg0Tb19IPthXT8vpjJMafov7uSP2wu549h5/lj2EX6Rl8k9+Q1ys9fo/DkVS5cgS+Tz9Ez6CTZ5it4JZzm4SVZPPh23WFxdchxBs4s5DXX/OugmEmfSSp6Tkhi6L+PsG1XMlk5eQ4HiwLiVk1sS4+nHqZNmzY83q4P7V9byKK1ESTlHWb3elfcx/WlTzsn/tnJiQ7d+9Jj7AcsiElGoS/DUmHEYlAQ4uPChK5/5rlnO9Ch1xu86LyITyJzidFZMOSpiF461AqkTz76MI8+2Za/dndm4PvfsVsTwHc1YFFJlnLF/2/v7MOirNLHv39U+/3ufve362bt1tbWZhJlaemqWZaWWobrS6GiGCo6ySZJ2EbhWylERU6KseJLoogpiiAIyIvoICgwvDgIDO8DA4MzwkwDY5maVp/f9QyigIhovOrxus414/A85zlzzn3f5/7Mfc59cLV9A6eRU5C5TsVu2DMM6/93bJ8ahO3MTfiE5lFaqiK21ToDiVZr0QpYFL/YtkMGbhwWhXwKx7BjHMPO6Mf2wGJF8TGUBwNZ4erOZ1v82Jy8myXjZrcNi2olVcEy3J2deXiCL9uP5pBrXVKqoaoqnbDPnHF/0YY3PkkkIPE2h0VjNZbcKOIjI/HbeYwTVaeosdoi6YfVagqPRhK3zZ89KeVklvdcWeoM+RR1tj3ebcLi4Zng9yQrpw+g/8svEBv+JmZr1GkeKGdw9MMBfDy8D04e9oTu6gGg0JsjYqLtHROZ7Q5YbFx6On6HAcfoOisw/un9RH7vupu+QbXcs/c8I+POU2z5hS1FF3A8dNYKjD4ZZxm6s74BFo99z28/UnPnlNU3HFkM2F3NywvKGDW/kJFz83nOKYdhMzMYMi2V1xYcZff+jF4Ji1LUL//QLiswymQyZq7LYn9KMcWqGI7HejFnmiMui+UEhClRpCiJC5Wz/tO5THLfSkB4DhZ9MZaE5Xgtk/HUHA/WRMURd1BBapyCw1oDBWYLdaZaKzBKEcylkx5h0tJdVuA7rs7jpDGUwKtg8TNcbW0YM3IKdj5fs+lgEgfjAghfI2PMUzJr5DPWVGsFxqvr1HLSaBZ7QdoBSmLivl421NaWSUuwKORTyE7bTl939U97YDE3ahsRPu7IPo/F/0Ayx5J349VeWFy0iP5zAolNz6fCCouVVFVpiPdfxCdv2ODwuYBFSyMsxsbyVYSKsupa6qz2WNrLaEaTEUvKHn/2HhOw2F160lOf2y5YdH6GJ6a9gmr/bC5aoUbayziPXO9nCHitD/OWCFgUUcUe8mNBV8GiKjcfb79A3FeuZfaHa+g7bTWPyDYw3msvjhvSmRKQzvPrM3gwpJ6+e87x/IHzFFl+4TPVeZ4N/56iup/xUf7AP3fUUfjtT3gf/Y67ludzx03A4vqQqkugmGeNKA6fmWkFxadfP8Ir85IIiVT2SliUjKauQEm4qy2enp64hlso0Fmw5IWStcmREYMGM3jkFBxcPFns4YmbbAoOE0fwj1HL8AxQoK3VYs4JJEDuyUSZJ2tjlCjzNJi1WrRmc7PloMogT/ydbHHyVxKklJytaznjclxtR+Lo6ImnIgeloRaDQUFenBeO/R1x8wwiXGq3xcLVdfZMJ66nTk63e7ukyfna2VCFfN7u8tHbvn+bsFhRTFVuFFEBX/Kpmzf+YSoSVSpUybv5pL2w6O6OjSyYRKX6cjZxaQlnYoA7vjNsmOErYPEyLMbH4x+VS3m1sdkqj/LMeFL3+rM3VcBib9Ovzm5vu2BRNpgBM19DHTW7WfRH7TOYLZP6MH+pgEUBi7cZLCanZTLO8V0eGTmd+4dP5a5B0/njC/MY7ryCjfsUbMzUsyj7Io/tP0/fkHM8F3OOIsvPfHb8HMP3fkdR3U98kn6GIdvNFH57Ea+U77hr2c3Bot/2EobNSOef01J55o0jDJp0iCcnxPP4qzG85HiAXfvSbi1YVAah/OxVbG0epe/fHsHW1vZKGTgC27HLWB6oQG0xYrSoUYQHIvdYijwwnhiFCk1xKRqDCUOTYziuBrtrOeP+uNo64dkECi0WKaJz9edX1ylgsbMntFup/puDxavlUMin0LueoBdtwWJlSTaauCXIP1iMvf1n7Nq1n8TEvezdLsftuUksWrQC36RkEk+UoS5rsZS0cRmqiCxaIVka62vuWRSRxWZw3BP0ore0oV2wKCKLzSBZgGEPAcPWlu52VWSxrEyDBIx7ow6yavN+Hng/kWe/yuG9w9X4ZFv4JPcci7IuYhNxjrt3/sBzUT9QVP8zn2adY/ie0w2wmHaGwUHfXobFO5fm3VRk0WtNMvcN3sT9gzdy3zMb+OvTG/jLwAD+8tR6hrwSyI69KbceLPrNxPaN5ch8dqFUKq+UjCyUx4sp1howWuqptxgx6LRo8vLRpGYSE7AJ+fJVyBWlKLRXnMirwU7AYm+ZxG7VdgpYvKKft+oY307fqy1Y1Jw4RvqaKbiMs6FPn7/xyCOPYmPTj34PP8C9//cn7r33PmyeH8eMNckEp1wDFsWexfbDotizKKDxBreDtAsWxZ5FAYutgVlP/KyrYLExQ1lRcSmKzAJWRZfhGJjN2IA07OIs2CVdYPTBH3kw9Cx/3nGGEZENsHhUf5Gv1ecxnf2FT1K/Z/A2UwMsJp/mjiV53DH5xvcsxhzMZ9mnCSxaGsHbH4RdKR5heHrvZ3/cLRZZ1MSgCvfAboyLddmnIkeLodaMxaChVpNDjqYWjUFyNBuyoRoMBrQaM2aNFkWAHC8nBxz9kwlSGi5PGAIWhWPe0xx3AYtCJnuaTP6a9rQFixXFueRG+bPty6W4u7tfKi64OE/l5X6DePnlCcxY4Y1vhLQ8tQUsimyozZbdSmN0zciiyIZ6ec7/NbJ8O97bJiyKbKgCEnsiELbVpq6GxUZolF59gmLp//Zm/rKugLuD6+i7+xx3f/MDf97+PYP3fs+BygvWZDbSHkVp6em7iRae2FxLVOk53omt444Pc28KFqUzFE/qDRw/oSY980SrpaS0vNdlQ5UMsr4ok4QPhrBssStz1mURJSW40aaizt7IylFjcZ3iylK/MOIPpaA8GM6RqGC2H60kVWPBUn8Ki/EoqqxkoqKUHD2qZNfny1gy1Y7xq2IIUGgvTxw5IR8TKHsKx49283loHtdOcNP+ZX5X1ykS3NyOk+zNfufOhkUhnwJGb1Y2b+a+tmCx6Tx65f219iyWUV52guzkJJRKFdmFhZRrwwkW5yxeP7JoEecs3ozsinsaEq5xVg+5H7UCRuKcRbHktAcvOW0NGrsTFlXqYgJjUq3A+IePU7h711n+HHyGP237jnu3Whi002LNfvrP4Drr8tMH/Gv4wxd6bP97ivvkeu744MRNw2Jtba0VGKtP6mmtGE6d6pWwWFeZjz54Lr4OQxnYbwSPS0dnBMZxoiID9Yb5+EwZypAH+/GEzWPYDhvD8Jkf4B5VRJwEi8YKLOoNbPJ14MUXbXnqKVseGTCCgf+SsSRJhcIgRR4bHMba5E0c++hFJg56igFtHp3Rfli8uk5xdEZjf4vX64NKZ8OikM/rj4GQ047ro46DxRSyk9ewZNzzyGTeLAnXWoFRrdhE9Gp75r72BM8O6kf/x5/k4WHjGLXQl/dCsjlSUE6ZNUtqi8jkLfaZJLPXjCxapKynJozabEpS9xCxcz1bNq7jq/8G4Pd1MNsOHCMhX0+lsU5k7b7BZZq3uq2Q9PfasChlPZ3D6T1jyVren0Uv3c3oJ/7IE4/2pf+gv/Pq7BdYtX4WpYp5nG/NcReftQLgvQy+etsYdicsSr+ISsAoRRhHfRLF7z3i+P1/Yvnd4gP877sx/O+iaP7nnSh+uzCKu97ez50ukdy5III7Zfu4Y/4+7pi9kzvsvG746AwpsthRxWQyUV8vTSgd5yT8qrpqdVhywlEEyfFd5sUy31BCFXloa3WYGz/39GSZpyeeXnK8NoUTqtKRJy1DlZbcaBUoYgLw9fVk2bKGa3wCw0nU6tA0/Y4aJdrETQT6fIyXVwC+gXFkaVNRxMQQIg8nWSNdf+XQ85gYJTkWC7XWOq7x+VV1KsjSGpplYf1VfdO0/eJ9z5HZDhqLtmGxFoslB6WQz1tu3G9Vm3DjsFhEce4xovy3ERWVSEpV1SXYU6FWRRDsvYKAgD3WPYzWpDdFqaiTtxHstxTvpe64v/8h7iv9+HJPIlG5VRRX3NqQ2BiRleTn2rB4aV436TBW5pCrPEzy4XjiDyYSfySdNHU5JTUWTHU9ZP7vIFt6q+pUV36vtmHxEtgcceB02KvErxzG+ncGs9JlKCvfG822AHsyD8o4kyoASEQge4gMdDcsNhpsCRhtZ3/Bo46f0m/mjRU3+U6OHMuktExjdYQuXryI2WzuMCBsCyx7HCyKyUI4w7epDLQNi8KZ60pHSTzr18vbjcPi7QF3jT5DR71KsnpdWLxNbarQ45vX43bBYm+LLon23r4RzZ4Ci1KEMTYlm+0Rh/g6NP6Gyt6YJAGLYjITkHiby4CAxZt3bIRT2PP6TsBi18CvgMWeJ/u3gj0SsNhDImICcDsGcHsKLEq/ElZUaMnNK+B4Tv4NF+k+6X7JyIjIojD+t8JkI77DjcmxgMUb6y8hXz27vwQsClgUOtqzdbSt8RGwKGDxllpC25NgsSOWlUjKK2Cx9xrYtoyv+JsY17ZkQMCikI+25KO3/U3AooDF3iazor1XbLCARQGLAhazs8luR5EOf4+NjSUjI6PZuUYdAYXXqkMyVgIWrxgsYbxFX9wuMiBgUcj6rSTrAhYFLN5K8ny7fRcBiwIWBSy2AxQlmBSwKJy3222CEN+3+2RewGL39b2Q+47vewGLAhaFXnW8XnVVnwpYFLB4W8BiQUEBv7bk5uaSkpJCXl4eBoOhS8p3331nzWwmGQQpI2pnl7q6OqRniiL6QMhA98rAjz/+yNmzZ612S6vVCp0UdqlXy4Akz9IqGSkbd1fNn7fjcyS7/fPPP/PDDz/0ankR80/3zj8t+1/SX87VQsl/IfcjUUQf9G4ZqElq1U7+RnK6OqJ8//331nouXLhAVxQpBfYvv/xiBUZpou3sIj1PFNEHQga6XwYkvW+ExZMnTwq9FLapV8uAJM9Skeawrpg7b9dnSLZb+icBo7Dj3W/Hb5UxkHSXny82AONZPYgi+qA3y8CF71q1k7/R6/X82lJdXU1ZWRmS49aVoX/J6EtO45kzZzq9SL9GSssNRBF9IGSge2VAcqobYVGn0wmdFHapV8uAJM+S4yxFLLpq/rwdnyPZbcmxlyJBwoZ3rw2/lfpf0l8kB7smCar3iyL6oHfLwOniVu3kb9qTwOZ614g9i713vf3t6DSI79y75VVyNBphsaKiQjjYt/m5m71dnyV5lqJ90tLQayV0E5//+n2NkpwIKO/dtr8n6rqkv9ZoorT8Upz1J/qgt8uAODrDaN0TIu0LuZliMpmor68XjqlwTIUMdLMMCFgUDl9PdBpvtk0CFn89CLYHpgUsCrtxszra1n0CFkWCm1vqRwIBizcHiY1gKWBRTDRtTRjib10nHwIWu66vhVx3fl8LWBSwKPSs8/Wss/pYwKKARQGL4uiMy1FIAYu915h31iQh6u0emRCw2D39LuS9c/pdwKKARaFbnaNbXdGvAhYFLApYFLAoYLGblxx2hbEXz+hdE7WAxd41XkK/2h4vAYsCFoWOtK0jPbl/BCwKWBSwKGBRwGJPh8VaHZaccGJiYpCH56DR1Yo9hT19zH5l+3oVLAr5FPp4HXkXsChgsSfDkGhb2yArYFHAooDFToBFVXElh05ob6pI9zZuZJcMmJSy2Gw2Xwa6xv2FnfHa05ah1tfXYTTqMdTWojdaqKtv26DdrME3m2upqdVzsraOWrOFerMRo1aNRqNBrTViNDck/Wn8vLiggONqLSeNZsySk1RvxmLUotVoyFdr0Td+fh0Hqt3t1RVgCXfF09MTW9dwlAU64Zx2VN/20HragsVGORTy2Tn2oN162UNlpye2v92wWFlBlSYXtSqVtCOJHD6USGKykuTsQsrKtZfnxsY58vJrRTHlhVlkpylIViSSeOgwiUfSSFWpydVUUVHZNbB2uT1V3fM8aezbkw1VmlvNJj2G6kqqtJVU15gxmq+hT3Um6kx69Dotldpyyiu0lOtqMBjNzeeh+josJr3VV9Gb6qmrNzW815uoq2uROO+qOisor9ShMxipMXfeXN8TdaM3tKm9sPhL2jx+TJqFMWo65aHTqUpw5nTKNUArdS4Xkhw5FTmNsj32qHdPQx3phPGwc/Nso2nzIGkWpw/P5lTSfC6kzWl4f2AOF47Nb35tyzpDpqLeOwNt3GzMR2VcTL/UlvT5cNSJ03EOVO61pyjEHvWe6RRHzsKQNI8zqU3a3Bl19vZsor29/T0lwY1PbDm2q0tuqkj3Nk44khG5nWFRAkW1OgFFTg4JaosVGDvDsGq1OWTkJBCdoydHa7GCojpwAXK5nAWBaiswSs+VAFL6fLmrK2MXBBKt1qKVHEajFos6kEC5nLkLAolv/LyjnEkBi82dko7q1x5cT1uw2CiHQj6v4dz24HHtDPvVG+psNyxqcqlK9yfYexqOo214eoANNuNkjFsSbgXGxrnxqtfcKLLD3meJ4zDGDbPBZsDT2Ix2ZJp3MP7pVVZgvOqebgK6zmyHJAvtgUUJFKsLD5EcFczOwGAi0ivJrbyGPtWUoC88yKHwrwn+2h//jYH4h6WTnFvZ3C6b9FgKD5Gbm8uhQhN6U2HD+0OF6PWm5te2rHP9RvyDwghNziWj2mIFxt4g17dLG9sLixIoVm0exvqZDzH1nw/xzkfTiQ9rAl5NIePgZE5tHoLvlL8yaVAfBgy4nwFTRrF+3fTmAJg0CzYPI95vPL6b53AqaSLx617D952JnDowp/m1Leu0uYcBz9oy12M8IftlVmC0RsiOOsH+l4j3sGHBs30YbtOHAYMe4oUpw/DePIvMg03a3Bl1Nu0H8b75GHZFf3Q3LEpRQQn2HEOreTnEeLm8tMuItXxTy+gdNdYyKriGUdtPMWrbKV7camCofxl/WBjNvzcoyM0roKJCazWu14PF5MwaNu41sCFUT8CeagJ26/jvLi3+31SwPUJLWUVNu6OSPS2yaNAWoAh0JSAoCLnCgsZwjcnsVzqHeYogQv1d8QovICbPgllXgDbcFS9PT15xDUdRoMNgsWAozkOx3BG3Ka8w0sEVeXIBSqlNhmIsiuXW64c5BnIwT2u9vsMmEgGLzR2NXzneHTYundiOtmBRyGfn2IHeIBe9tY3tgsWiVHIVm/BfOYvFLlNxdnZm0aJFuHsH4B2cgkpddvmH1CvAJX2WQuK2pfjOHsWM2Q7MdnFh0aKFODu/zoTZ7kx6P5idWWpUtyAcXumHhkimJB/Xg0WTroTK3COkpx4kOnQLO7f4szO5nMzyFnpVZ8JSU0JJzmEUsSFERYYTHR1NfKKC+PQi1OWnmtlls0FHZXIoaWlpJBTVoK/OIDMzi6iEEqovw6IUjaykPOcwxyK2sTdiL/uio4mNPUBk5G52RsQTkpBLnt7IqU60r71Vj7qr3e2BxTMRkynzG8GOpUPwmHAf0wb3Ydr79oTuagJeEgikzoWDk8lcM4w1zv14b7otHrMGsnLhs6xcOYmkkDebwcP5OAc0HjZsW/Ei3lucMES9RKjPGN5zmYwuZu6la6Vo5HTUa4axxf4B5ts/xsJZA1nuPAi36Y8yzX4wM13GcyhmNkblm5yOsSPepR8r7f/Bm9MH4On8DB6zHrfe96r9C3yxxh6N0pnzHV6njPNdAUPiGc1k6KoltN0JixIoBh3T8s/1FYwNM/Nuzs+8q/qJd49f5H3VRdYU/cR/iy7iX3CBr9Q/8lHmOdxTzvJF1lmWHz3D9J3l3DPjS+as2saRY5mUlmnaBYsSKL7iqmPM21pedtEw+q0SXnRW8/zsE0z7Ty5px6swnDrVLmDsSbBYq9OQf2gX62c9gkwmY+a6LPanFFOsNVBbZ6JWX4qmQMVxpZIMpRJllopsdSkVRhO11klGWvZixKAtpvi4kqyMhmuy8ksp1pswSEtdTLXoS1XEyGUsnfQIk5buwic0j+OqbE7mrEHu6cmrYz9lz/EySiy1VKqzCH7LDc8po3B+2w63CBX7SyzUV6kx7n6LZcuWMcTjAJl5anSaPPKPK8ls5bkWSx0Wix6dRkNBppqC/BxUqjyyVaVU1JowGHToi/PJz8okS5lFZlIC+V+/hetisQy1uybLrn5uW7BoMZZjUX/FWiGfzZzVrh4j8bwWcNGGc982LEpbLzQUJ28h2s+RV+3smOHmjX94OrmFmlYAsckST20eVYUb8Vs0ibH/eJqZn3/DtpRcNIVZpIe/z8Kpk3jscUc8otI4UNbkvlsUHCWZvB4s1pRkUJwcSkJyBrHRe4jb68+e1JawWEedSUdNYQKK2D0E7gznoLKQksqaFjonzbMmjIZqyvNPkLonkNjYWGKPF1BwPBaFQkFofD4F5aeoMdVhqa/FYsomPTaE7X4bCTuWR05ljXVJbHVhAgdCd+H/3zASS3SUXmtZbBtyJnSy/Tp5I33VHlg0b32JDA8bvD1eYvmbj/LxpD44LW0Ji/O5mDQD8+YhrHF+lDEv2+KzciKZYU4tnHtpeekcTsfNRP3f8Wyxu5/lzs+wfPW/SFn9DF++O5y5MjtSdr2JOWk+pDlB0lh2OPdj4oP3IFvyGgfCnPgxyZGqzUPwnPAITz5qi8/WGRw//DqVW//Jgkf7MGPCILw3z7AuPTWHvcrBJY8x/MG/M9N5NGGHnag73MF1JsmoS2sBzwLsWox9F/RPd8KiFFGUQHHuoe+YkPQjj8f/xOOxF7GN+ZHxigtkfPszted+aShnf+GTzHO8FP4d6YaLeKWe4S+fF/E/b8hvAhb1jHPVMubfDaD4wrwCnptzguGO2Ux0zWRfXA4lpeW9DhZzwuVWUBzy4G/p27cvf+43gkdfXsbyQAU5+lJyElYhd7VjrK0tA21tsR1hx6gFq9igLiXHOpkYsVjUKAKXs2ysLSMGNlwzYu4qlsWXotBarKCYsMoO2ci+3Pen3/Kn+x7hb4MdGStbQ7RqgxUWZw50Z0NGIVmWHIpydvDB5GV4TpnI50vtcN6qYkeWBWN5DuqvJuPr68vcQDX5qV8TLndk7lhbhrTyXAkULZYEwuVyXIe8hevcydjZOTLKbhUbVKUoFOHEL5vL3BFDGGE7giHPTGDu1MkMdRCweCMTXG++tk1YrK/CYtxNoKcnQj47xznqzbLTE9veNixKQJhOlN9Cltg9zWTPb/ANU1lBsUJ7ZQ9/yyia9f+FmVSFv8uHzrN47MX/sCY2jWNlFVRqi9AURrFlqSNOw55m5peH2ZIiYFGSjTpTDSbpB0lDDYVpB0jZ68/eq2CxhhpdHhnhG4mKPEC4UkdZtQmTWfqhs6nOSctLC8lNjmLvOj/8P/+U1atXs9pvHev8Vlu3cqz2D2RrfD4ZJTVYTCexFMaRGBmO/7YE0st06Mx11NebMJuKUR0OZ9/XGwlLq0B1rWWxzZ7ftC3iffOx6bj+aA8sXkxy4kycA4Y4J46uGETApD7MuwoWnTBHvkbIlHt4b/og/r1yBjn753AmpcXeQ6W0vHQi8R5PMf/v/48Bf7yT+/r+jvse+COPPfA7Hrz399z3yP2MldkRslUCRUfY/AyfTbflyeFD2B48A23KfH5Jm8uPSZPZ/44tbw+6B9mKqez3G0fRiscYPuhxFrwzjgxpj2LafC6mOFAZPAqv4X0PIIGkAAAWyElEQVRwmT6UFX6O6P06uM7NMvRJXQBDAkDbBtDugMXGpaczQ3SMDq7h5V1GbP0L+NNnGdwTYuGesPOMjP+R4tO/cPTUT2wpuoDp3C98mnmWobssFJp/wjv1e377sZo7X199w7C4YU/1JVAsRgLF5+fkMnxWNv90SOc1l1R278+koKi018GiRhljjfhJIDdy5EiGOnrh6hVKaEwMWcod+Ho64yaT4eLiiYeHJ25uMmRSCYghVKnBUqvFkhNIgJeMMa+8gpObG26eXnzsG8imLK11+agUvZSgVC4byWuD+jLoNRlT3ALwDYwjS5tKqNyLZa844qvIQ6FRUHBsLa4ugVaIjNwkw/7jGAJiNBiKVSiW2yGXe+K2K4aAxTK83GS4eHri4Sm1zQ1nmRv2sgDkoUpyLDpqLeEEecqY2Gcwo+wdmeLmhYfvDuKy9hMk98JjjAMuTotxc/PEc7Ebng6vMHKKm0hwc5s4Cm3CokXKhptDjJDPFo5rxzlHneV03a71tg2LRVRVRbFtqQuz+w1ltvP7uLgvxd39fdzdV+L95R6Co3JRF1dcHWVUK6kKluHu4kK/aRL05FJkjRpK1+YS9aULS8fbMPXTRAISBSy2lL/yzHhSW4VFHXptBglfB7JveyiR8UeIjT9IfPxhEg8rSc+ppFwngeKlZaXqNI5G7eWbTdvYuTOUfdFR7Nu+iZ07dxJ84AiJKi0l0vXGaiy5UcRHR7MuNIMCXQ0mq02XILSGkrRoDn/jT+jRlpFOodstx64r/98eWGy61E/tM5gtk/ow/ypYdMCw5yW8B93Pwuf64yYbwXLZEFbKhvHZO6PZsWY66ghpaemlZaUBL7Jx5mO88dQDTBvTn4VvPsnC5+5l2ph/MGnOCD5bPZVM6frDM8HvSVbOGshjE14iJcKJM1ZgkiDUicwVA/lidB/mfmhPqM/LqD/sz4DRw/BYMRmzUsZF67VzMUf8i5AJf8Rj1mDe85mJzqeD6/SToTssYLGprHTL+66CxbIyDclpmSQeSWVL1DH+sSSJYV9m47S7lIHyQv7+fiz3ue/m3qAa7gk9z/Ox5ymy/MJnqvM8u+8MRfU/45PxA0O/qW+AxWPfcdcKNXdMuXFYlPYoSktPX5in5vk5J3j2Eig+Y5/CeFkyu/dn9EpYlAyhrkBJuKutNQuoa7iFAp0FS8l+ju96m7Ej7bCX+eAXpuRQipK4XT74LXudZ+1X4xOYilFfTH3Ccrw+duXpt33YlllAQYkGo1qN2mhsSExzCTyUQZ74O9ni5K8kSHllUsraIWfr23YsjVARrggnJ3IZC30VBIWEkBPvzeS565EHKihTp7L9rTeQ+8hYuuMTJj05ARe3AALVFrRGC9ocBbH+q5hmOxXXZYHsNuqoqpdg0YGJf7VllIc/Pooc1DVlGDM+xdfFhREDPyBgXxE5Wi36ohgSPrDDwcFFwKKAxcuAJOTziq52peMknnXj/d4mLFbmU6UJxH/RQv71x7EsfG00E0YNxqa/LTYPP82zoxbi/J8w4tMKKa5oAXyNsOjujo0smESluhlQJga44zvDhhm+AhZbk9trwmKdhuqyZCK+2k14wHaiQgLZtGE9/usCCFgfTPCedNJUlU0yl0qZVdUkRSjIyFCjMVRTmhRFVmYmx6otnGpcUtoIi/Hx+EflUl4trQC6Ik/XbE+Ta5peL95f6bvO7IsOg8XUN6gKfo53/vEoLo89yHuv3s+Ix+9mwEN9Gdz/ISbZjWbb6ulNMpc6UrN/AmunDWeX9wTyY2eicn/SCnxf75dhOnoJvBphUTaYATNfQx01u1lkqRm8SrC49DEGTHqBlT72za47HWVP/Mw+rJQ1gcWOrFPAYrP+7hZQlH4Y6CpYlEBxnOO72IyaycMjZ/Dbpx3440hnBjst59PtCXjHF/NmgpF+4T/Qd/c5no+5BIvHzzM87HuK6n7GJ/0HhgTXUfjtT3gd/Y67luXfFCxKyWxetIJirhUUhzqkM9g+hUGTDzNu7iFCIpW3Fixm7SBDbsfAR+6nT9+/8WA/W2wes6X/I3/jwb8/zO8HvIPr2jjUdQaMegWhm3x4e64rK7cmkpilod5oxFhf33DkxXVgsWS/nIildry9VYV/gD8JvlN5KyCLoORk1JnreWuSN/K1ARzKCcZ98gfIXWUEBrzFE/af4BGgsIKiud6CudZAqTKJLU7/wsd3LV+pdZQbJVhcjGN/J7zilCQaajGeLKQ+2p1lHh48OScYxfFKas1m6ipV6INlLF7sIWDxNnEapMn57NmzFBRIya4qmjlUjU6BkM+ucZQa+1u83nx/twmLmhyq0n35zPkNnv3LaN56bw0BwREkxoaTuP0/eDu8wdSnHVn6TRpRuQIWW12Oe2kPpiSj19uz2FSOrwlnNYVUnTjATr8thARHo8jIp6ikjPKCdNQpEexbH0z0AWWTzKVaTlZlErPzEClH1ZSerOZETAMsqswWahuPvRKw2KotbzomPfF9h8HiwX9R7jeIqQ/ex8wXBrJmlR1p215HvWk0SR88wcL+D+ExZ3STzKXTOBn+Mp4vD2XjhxNQRc8kbnYDLEYdlVHfeBSGgMWeAWG9ZflrV8GiKjcfb79AXD78nEn/9qLPG770+/dGpq6NZM3hItYcr2NR1kVsIs9z966zPBd9liLLz3yWfY7hod9RVPcTn6SdYch2M4XfXsQr5TvuXJp3U7Dou/E4tuMieWzMPvq/FEa/UXv4xwshPPzcNzw3ZQ87w47dWrCoDEIpn4LtyCmMnCKzRh2l8wetZZkXnr6hhCry0FqkMxC15CkVxOwIIWZ/MjGhMcSEhhOTpyOvSWbVa0UWDYoAkn3tcVgWiaebJ7sW27F4l4rQPA2avDjkjh4EyD0JSpYzxUGO3M2NOH8n+jv54xmkbDYp6ApUhLtKS1XlyHN0aGolWPTEydYVf2UBSgmCrpX19Fqf3ybg1BMnz85uU3tgUcjnzcNLZ4+fqL/52LQJi2UqqpI/wdtlNiMGOeO9LZ5EVRFVFcVU5UaxZ+lsFj0/DOevFGxLvQYsimWo1oiqJHcdAosGNZU5B9ixYQ8R0WnkVtZglPYrmnQYitNJDgogOvowCYVG9NK5mFnxREV+w6Z1WwnaHkp4VBQhm6RlqKGEH8kgW1uDziQdMyWWofZG29BhsBg3gbI1g5j8xKMsnPUi8WFOnJb2Kx5xwLh1NOuf74vHm8Pw3jQbwzfjSfIZzOLpDzPiofuxe64/C2Y+yYynpGWo/XF57yX27XFCe0QmlqH2FkjrKe3sKlhs/GVPOuIi5GA2L68vwu6bSt5JMuKWeR637IvMTr1Av/Bz3P3NGZ7b/4N16enX6vPMiPuecsvPfJL2PYODvm2AxeTT3Lnk5mDRb/NRho7fwjNjN/L0mA3WMujlDQx6aQPjHYLYvS/l1oLFnBAyv36LIVM/wcM/Ea3eiFk68NdcS12tHn1tHbXWJS8N2VDNZjNGvZH6fDVxa+UsmyfDbY+K8IIrBwpfCxYtOSHkBC5gsuMXOE+U4ffWND5PyCVRa+FkoZpo97cI9HHCa+cyRr2zg7U+Plfa1q7IYgtYPFmIpdXI4nH0wXNYvHixiCzeJoDcHlgU8tkcSHqjE3a7tLlNWNScoCp9DV+8v5hXx3iyOS4dZVkFVZUVVGlyOSBfyMpJA5glP8SmpBawKBLcNFt222GwWFNEVf4hdgfFEK/Iocxk5tv6eixSJvLKQrLD/kts7EFiVHpO5h4iOWILfvLP+fSLNaxes4Z1fnI+//QLVq8OYGNQJAn51ZTUWESCm146f3UYLB6cRMX6YTg+O5CV775KTtI8fkibbz1Oo27vRMIm/5nlzkPwlM/i5NphrLe/j/73/JY//PkP3HffH7B58Pfc/bv/5b6+fRk+YgBe62c0nIkoEtyIyOKNgGhXw6J0FmJBSTnJeVoWBsTxt3e2039nDY9F/Ui/fee5d9dZ/hx8hhERDfsUTWd/sYLi+Z+wJrUZvNVIoekiq5JPc4dnLndMvvE9i8WlOo4cK2RPRCo7Qo80KxIoJibdYnsWa5PJT/qEuc9MwMXJh8AEtRUYLdoc9DkJJOToydFKTmRDNlStVos6v94KjKmBcj6faccry2PwT2w4x1KaXK8Ji7XJqI99wVsTF2A/SsaihavYm1NKgdlCTVkOGZ9OZq3rGBzfcWPi6iwCExOvtK1dexZbwGJNGZZW9yzuI+GDgTg4OAhY7KWT7Y1CQbtgUchns+j9jfaxuL7rYLtNWKwsoUoTx46Vi3n7+QksWbOHiJRcKyhWpfuzxeUNZj0+GpdNR9iV1QIWxdEZnQOLddXoK7I5FLyD+KjDpBVWU2MyW89dPJmbQNz6jURGHiGpvA7DKT0GdTInDoUQuD+V2LQ08k8cYk/gfmJj08mrrEZnNGOqs4ijM3rp/NVhsJg6k1MhY/Ed+TArZw5j++YZfJs0z3ruon7dEFbY3Ivb9BGs3TWPmvhZGAOeI27hI7w040WWr3iRQ2uHMnvIkyx3Hs3BvTOoVMzjTKpMHJ1xI6Akru26PYuNkcWmr6EH03FeG8HfV8TxJ79i7g45y593nKFP0Hc8+s13vJfygzWpjbRXUVqCOi7kWx746hSL4uoZs93IHR/eHCwajUbrOYrS8RhS1tPWirZS1+uyoUqOXK1GRY7cDi/ZFF5x9MJNyoaqUJBXEEmoqz2eU6ZYk75Ie/mkZajLfOT4JmpQaCxYzDos2nBiQuWXl6rKHB2xn+KAc1AyoXmGy46mJkZO5OKh2Du44mjNhqogS2vAYMmjWLWF5XajeWWkI6+4BqIo0GKwWDBr89AGOuLlOJLBox1x3JJnXZ6qK44hfHl7s6G2gEWzAYtWYc1y2TwbqiueDkN5ZYqMEa7hZBXoLrddOLxd5/B2ZV+3CxaFfAo96CXOZ5uwWNWQuTR1z5dsWTQZV2dHXFxccF+0EHfnN5g91YVZzv5sis8ltUiFWhVBsPcKAgL2EJxShroshcRtS/GdPYoZsx2Y7eLCokULcXZ+nQmz3Zn0fjA7s9SobtGzFZv6IZKN6pBlqBYTJoOGkuRIkqNDiYyMtJ6fGB8dwYHwUHaHHOZQWok1WihBoKkkjdLk3exOLiVNrUZXmkzo7mSS00qokY7ruCynl7Kn5hzmWMQ29kbsZV90NLGxB4iM3M3OiHhCEnLJ0xs5dfmeW9PGd+V88muf1WGwqJzLmbg3yPQYwPpZ/XGbPsB6fuLKN5/A83Ub3hw3jC9WTLZGCyUIPLP1RY6//yhvvj+FbQET0G5/jrnjn2N9syymUpKbS9lT1wxji/0DzLd/jIWzBrLceRBu0x9lmv1gZrqM51DMbIzKNzkdY0e8Sz9W2v+DN6cPwNP5GTxmPW6971X7F/hijT0apTPnldNRd2idMs4LWOv+KGhXRxabGmnpfUpWHuM9NvHgslj+FFDJH7/S8v/WlvMHuYb/+7yU3/uU8L/eRfzPqkLu+khtTWpzpxRRlEDRLYU7Jn5+w0dnSLDYUcVkMlEvLTXpKUZaX4olYRWB0nmKA0cwcGzDOYtqfSnGxs+bnLPY9AxFi1GLRR1IoNyRsWNtGXjpvMPmZzFemoRywlFvmMuCUUMYMcKRsQsCiVZr0Vq0aNXRBC4Yi6OjK3arElCVSmckWrBcapvc1ZERYxewLFptPbux8bntPWfxA7tVBKsaz4ZsaI+25TmLQyYzd+5bOLrKWbAqAXVjG3rKOIl2dLjOtA8WhXz2GFsldKBNHWgbFi9FC3OjyA57nyWOwxg3zAYbmwHY2IxmnMyfJeFVZBdK16WQnbyGJeOeRybzvvJ5y3sHPI3NaEemeQfjn15FrqZFRPIWBUdJH24EFitzk8mOCyYuu5LclucammuwVGeQmxxKWJA/G9f74+//NRsDIwlLr252fU1JBsXHIklQVZNbUkJ18TEiE1Rk5Fa2Lhc1JegLD3Io/GuCv/bHf/1G/IPCCE3ObZI0R0BiT7FvNwqLmnXPETb/IVZ8Np34sBZHRRx1gv0vEe9hw4Jn+zDcpg8DHvkrw/85gAUfzWh2vXnrS2QsGYC3fAbxWydTte0F3nF5hZB101sHjoOTObV5CL5T/sqkQX0YYHMPA561Za7H+CZJc2TQWhsGPcQLU4bhvXlWw9LWRqjrjDob6xavrY9jZ/dLd8NiWXmFFRid10Rw17Q1DWXql9xlLxU5d74h587XL5Upq60JbaSlp9Yy8XPueHW5gMWmTledyQpl2gIVxzOyyDheTLHWgLHORL2+FOvnSiUZSiXKLBVZ+aUU600YpD2L9WYkcNNq8jh+XElGRsM12epSKowmaps+p1aHsSIfdXYmWVl5HFdrOWmUEuSYMRtPolUfJy+vwAqKtaZLhxJfapumII+s42qKTxqbPVenySP/uJLMS89t1jaLVIcenUZDkaqUytrm7TFLByYX55OflUmWMovMzBzy89XkFWisoGhsbEPT7yDet+6U9NJ+aR8sCvnsKc6UaEfbjn27YLGimPLCLLLTFCQrEklMPERi4hGSlblWUCzXSsBXRnnZCbKTk1AqVVc+b3nvocMkHkkjVaW2gmJFpYDF1mTUbDRQe7KSk7VmjI3HWzTazPo6LOYajAYduspyKirKKS/XUqGtRlfT/Po6Uw2mU9XopXpMJsymU1Tra6kxXskN0Oz5dSbqTHr0Oi2V2nLKKyoor9ShMxibHMfRtkw1q6+xzeK1U+bBG4XF84ffpC56OvpEZ06ntIDF9PlWWDsd50DlXnuKQuxR75pGUegMKhPmNbv+YpITZ+JnYDg0j9NJc/nxyJtUxczGfFiKJLaoV/p/6lwuJDlyKnIaZXvsUYdMRb13Btq42U2O45BBa23YM53iyFkYki4tbW2svzPqbKxbvLY+jp3dL90Ni42RRmlJ6rt+e5n3yXYr/M1Zta3dr/KgKI4cy6S0TGNV+osXL2JN0tKBEcRrRSJ7XGRRGP5OMfxiku35Tkj7YLHnfw8ha2KMJBloFyzeotG+Rr+gK16lvr6RyKLQT6Gf7ZGBG4XFVkGuswFA1N894NUb+72nwKI0KWg05aRlqKzgJ8HfjRTpPul+SYkFLApj3h5jLq65teREwOKtNZ63u34KWOyayKYkZwIWhe3oaHsjYLGVKGZvhCTR5gag7kmwWFlZaQU+KUJ4o0UCRel+SeEFLArD39GGX9TX82VKwGLPHyOhR+0fIwGLAhaFvrRfX3paXwlYFLB4S0WLexIsdsSSE8lgCFjsvQa2pxl80Z7eI0sCFnvPWAm9uv5YCVgUsCj05Pp60lP7SMCigEUBi9nZZLejKJVKa+rojIyMZucadQQUXqsOyXAIWOy9BranGn7Rrp4vUwIWe/4YCT1q/xgJWBSwKPSl/frS0/pKwKKARQGL7QBFCSYFLPZeQ9fTDK9oj5Cl68mAgEUhI9eTkd70dwGLAhZ7k7yKtja3vwIWBSzeFrCo1+v5taW6upqysjJOnjzZZRkqJQX9+eefOXv2LGfOnOn08sMPP1iz1knPFUX0gZCB7pMBaUWBpPcFBQXodDqhj8Im9WoZkORZJF5p7oB3BpBINvuXX37hxx9/7NXyIuae7pt7Wut7SX+58B3UJEH1flFEH/RuGThd3Kqd/I3kdHVE+f777631XLhwga4o0uQqGX7pVVLWzi7Sc0QRfSBkoPtlQNL7RliUfqASY9L9YyLG4ObHQJJnqUhzWFfMnbfrMyQZlf5JPzILeb15eRV917zvJN3l54twrhbO6kURfdC7ZUD64aMVO/n/AQLtsk+TNnQtAAAAAElFTkSuQmCC;" vertex="1" parent="x9bEP2mhulIpiE2jmw_l-5">
          <mxGeometry x="3.9700000000000273" y="30" width="486.03" height="127" as="geometry" />
        </mxCell>
      </root>
    </mxGraphModel>
  </diagram>
</mxfile>
